<svg width="266" height="100" viewBox="0 0 266 100" fill="none" xmlns="http://www.w3.org/2000/svg">
<g filter="url(#filter0_i_1137_1843)">
<path d="M43.3902 23.1341H33.4852V25.2341H39.8552C44.0902 25.2341 44.8602 26.4241 44.8602 30.4841V37.6591H19.9402C15.7052 37.6591 14.9352 36.4341 14.9352 32.3741V30.4841C14.9352 26.4241 15.7052 25.2341 19.9402 25.2341H26.3452V23.1341H16.4402C14.4102 23.1341 13.5352 21.8391 13.5352 20.3691C13.5352 18.9341 14.3752 17.5691 16.4402 17.5691H22.3902C23.4052 16.1341 23.7902 14.5591 23.7902 12.9141V11.2341C23.7902 10.8141 23.5802 10.5341 23.0902 10.5341H17.6652C15.4602 10.5341 14.5152 9.55414 14.5152 7.87414C14.5152 6.33414 15.4252 5.28414 17.6652 5.28414H40.1702C43.2852 5.28414 44.5102 6.08914 44.5102 8.88914V12.4241C44.5102 14.4541 44.2652 16.2041 43.8102 17.6041C45.5602 17.7441 46.2952 19.0391 46.2952 20.3691C46.2952 21.8391 45.4202 23.1341 43.3902 23.1341ZM30.6502 10.4641V12.0391C30.6502 14.2791 30.3002 16.1341 29.3552 17.5691H36.9502C37.4402 16.1691 37.6502 14.6641 37.6502 13.3341V11.1641C37.6502 10.7091 37.4052 10.4641 36.8102 10.4641H30.6502ZM37.8952 32.8291V31.0091C37.8952 30.3791 37.7202 30.0641 37.0202 30.0641H22.7752C22.0752 30.0641 21.9352 30.3791 21.9352 31.0091V31.8491C21.9352 32.5491 22.0752 32.8291 22.7752 32.8291H37.8952Z" fill="#FB9504"/>
<path d="M79.2652 17.0441H80.5252C82.6602 17.0441 83.2902 18.6891 83.2902 20.0891C83.2902 21.5241 82.6252 23.1341 80.5252 23.1341H79.2652V37.6591H72.2652V8.25914C72.2652 5.98414 73.9102 4.79414 75.7652 4.79414C77.6202 4.79414 79.2652 5.98414 79.2652 8.25914V17.0441ZM62.3252 11.8641H52.1752C50.1452 11.8641 49.2002 10.3591 49.2002 8.88914C49.2002 7.41914 50.1102 5.87914 52.1752 5.87914H64.6702C68.6252 5.87914 69.8502 7.38414 69.8502 10.7091V14.9791C69.8502 20.1591 69.4302 23.4491 68.5202 26.0041C67.8552 27.8241 65.7552 28.5941 63.7252 27.9991C62.1152 27.5091 61.6252 25.7591 62.1502 24.1491C62.8502 22.0491 63.1652 19.2141 63.1652 14.9441V12.7041C63.1652 12.1091 62.8852 11.8641 62.3252 11.8641ZM59.5602 30.7641H68.1002C70.2002 30.7641 71.0402 32.2341 71.0402 33.6691C71.0402 35.1391 70.1652 36.5041 68.1002 36.5041H51.4752C49.4102 36.5041 48.5352 35.1391 48.5352 33.6691C48.5352 32.2341 49.3752 30.7641 51.4752 30.7641H53.1202V19.6341C53.1202 17.4641 54.4852 16.7641 56.3402 16.7641C58.1602 16.7641 59.5602 17.4991 59.5602 19.6341V30.7641Z" fill="#FB9504"/>
<path d="M95.6547 13.4391C94.0447 13.3691 93.0647 12.2141 93.0647 10.7791C93.0647 9.30914 94.0447 8.18914 95.7597 8.18914H101.115C101.15 5.94914 102.48 4.61914 104.72 4.61914C106.96 4.61914 108.29 5.94914 108.325 8.18914H113.645C115.36 8.18914 116.34 9.30914 116.34 10.7791C116.34 12.2141 115.36 13.3691 113.75 13.4391C114.135 14.3841 114.345 15.4691 114.345 16.6941V18.4441C114.345 24.5341 110.425 27.1241 104.72 27.1241C99.0147 27.1241 95.0597 24.5341 95.0597 18.4441V16.6941C95.0597 15.4691 95.2697 14.3841 95.6547 13.4391ZM121.625 4.79414C123.48 4.79414 125.125 5.98414 125.125 8.25914V37.6591H118.125V8.25914C118.125 5.98414 119.77 4.79414 121.625 4.79414ZM107.8 18.6191V16.3441C107.8 14.1741 106.4 13.2291 104.72 13.2291C103.04 13.2291 101.64 14.1741 101.64 16.3441V18.6191C101.64 20.8241 103.04 21.7341 104.72 21.7341C106.4 21.7341 107.8 20.8241 107.8 18.6191ZM96.3547 30.5191H113.89C116.06 30.5191 116.9 32.0591 116.9 33.4941C116.9 34.9641 116.025 36.4341 113.89 36.4341H96.3547C94.2197 36.4341 93.3447 34.9641 93.3447 33.4941C93.3447 32.0591 94.1847 30.5191 96.3547 30.5191Z" fill="#FB9504"/>
<path d="M159.25 10.7441H160.335C162.47 10.7441 163.1 12.3891 163.1 13.7891C163.1 15.2241 162.435 16.8341 160.335 16.8341H159.25V22.9591H152.25V8.25914C152.25 5.98414 153.895 4.79414 155.75 4.79414C157.605 4.79414 159.25 5.98414 159.25 8.25914V10.7441ZM148.68 10.1141V22.1541H134.015C130.62 22.1541 129.36 21.3141 129.36 18.0941V9.90414C129.36 6.71914 130.62 5.80914 134.015 5.80914H144.235C147.385 5.80914 148.68 6.71914 148.68 10.1141ZM135.905 11.5491V16.3791C135.905 16.8341 136.115 17.0791 136.675 17.0791H142.205V11.5141C142.205 11.0941 142.03 10.8491 141.54 10.8491H136.57C136.08 10.8491 135.905 11.0941 135.905 11.5491ZM138.18 24.0441H152.11C157.185 24.0441 159.81 26.8791 159.81 30.9041C159.81 34.9291 157.185 37.7641 152.11 37.7641H138.18C133.035 37.7641 130.48 34.8591 130.48 30.9041C130.48 26.9491 133.035 24.0441 138.18 24.0441ZM139.965 32.9341H150.325C151.97 32.9341 152.705 32.0241 152.705 30.9041C152.705 29.7841 151.97 28.8391 150.325 28.8391H139.965C138.32 28.8391 137.585 29.7841 137.585 30.9041C137.585 32.0241 138.32 32.9341 139.965 32.9341Z" fill="#FB9504"/>
<path d="M203.884 17.0441H205.144C207.279 17.0441 207.909 18.6891 207.909 20.0891C207.909 21.5241 207.244 23.1341 205.144 23.1341H203.884V37.6591H196.884V8.25914C196.884 5.98414 198.529 4.79414 200.384 4.79414C202.239 4.79414 203.884 5.98414 203.884 8.25914V17.0441ZM177.179 6.05414H187.539C191.389 6.05414 192.859 7.83914 192.859 11.0241V19.2491C192.859 31.1841 185.614 35.8391 177.144 36.1891C175.254 36.2941 173.539 35.2441 173.644 33.1791C173.714 31.7091 174.589 30.5891 176.339 30.3791C181.869 29.7491 185.964 27.4041 185.964 19.2141V12.9491C185.964 12.4591 185.649 12.0741 185.089 12.0741H177.179C175.079 12.0741 174.064 10.5691 174.064 9.09914C174.064 7.66414 175.044 6.05414 177.179 6.05414Z" fill="#FB9504"/>
<path d="M214.314 5.21414H236.854C238.499 5.21414 239.269 6.54414 239.269 7.87414C239.269 9.20414 238.464 10.4991 236.854 10.4991H217.394C216.904 10.4991 216.659 10.6741 216.659 11.1291V12.0741C216.659 12.5291 216.904 12.7391 217.394 12.7391H237.064C238.674 12.7391 239.479 13.9991 239.479 15.3291C239.479 16.6591 238.639 17.9191 237.064 17.9191H214.314C211.094 17.9191 209.659 16.9041 209.659 13.8241V9.27414C209.659 6.22914 211.094 5.21414 214.314 5.21414ZM210.989 19.6691H238.079C240.074 19.6691 240.914 20.9291 240.914 22.3641C240.914 23.8341 240.039 25.0591 238.079 25.0591H210.989C209.029 25.0591 208.154 23.8341 208.154 22.3641C208.154 20.9291 208.994 19.6691 210.989 19.6691ZM231.674 32.2341H212.459C210.569 32.2341 209.519 31.2191 209.519 29.6441C209.519 28.0691 210.569 27.0891 212.459 27.0891H234.439C238.674 27.0891 239.444 28.3141 239.444 32.3741V37.6591H232.444V33.0041C232.444 32.4441 232.234 32.2341 231.674 32.2341Z" fill="#FB9504"/>
<path d="M251.379 28.4191H244.239V9.09914C244.239 6.82414 245.954 5.63414 247.809 5.63414C249.629 5.63414 251.379 6.85914 251.379 9.09914V28.4191ZM244.064 33.5991C244.064 31.4291 245.464 30.0641 247.809 30.0641C250.154 30.0641 251.554 31.4641 251.554 33.5991C251.554 35.7341 250.154 37.1341 247.809 37.1341C245.464 37.1341 244.064 35.7691 244.064 33.5991Z" fill="#FB9504"/>
<path d="M53.4763 54.7941C55.3313 54.7941 56.5213 55.9841 56.5213 57.8041V87.6591H50.3963V73.3091H48.6463V87.6591H42.5213V57.8041C42.5213 55.9841 43.7463 54.7941 45.6013 54.7941C47.4563 54.7941 48.6463 55.9841 48.6463 57.8041V67.4991H50.3963V57.8041C50.3963 55.9841 51.6213 54.7941 53.4763 54.7941ZM35.3113 70.0541C40.5263 72.7841 41.8913 78.1041 41.4713 85.6641H35.1363C35.4163 82.3391 35.5563 79.0491 34.0163 76.7741C33.0713 79.8191 31.6713 82.3391 29.6413 84.5791C27.6113 86.7841 24.8113 86.1891 23.8313 84.9991C22.9213 83.8791 23.0263 81.9891 24.3563 80.6241C28.8713 76.0741 29.1163 71.7341 29.1163 61.9691V59.2391C29.1163 56.9991 30.5163 55.8441 32.4413 55.8441C34.2963 55.8441 35.6963 57.1041 35.6963 59.2391V61.9341C35.6963 64.9441 35.5913 67.6041 35.3113 70.0541Z" fill="#FB9504"/>
<path d="M90.4713 61.2691H91.2063C93.3413 61.2691 93.9713 62.9141 93.9713 64.3141C93.9713 65.7491 93.3063 67.3591 91.2063 67.3591H90.4713V74.0091H83.4713V58.2591C83.4713 55.9841 85.1163 54.7941 86.9713 54.7941C88.8263 54.7941 90.4713 55.9841 90.4713 58.2591V61.2691ZM63.8013 73.3091C62.2263 74.1491 60.1963 73.8691 59.3913 72.5041C58.5513 71.1041 58.9013 69.6691 60.1263 68.8291C62.5413 67.1141 62.7163 64.9791 62.7163 60.2191V58.6091C62.7163 56.4041 64.0113 55.3891 65.7263 55.3891C67.4413 55.3891 68.8413 56.4041 68.8413 58.6091V60.2191C68.8413 61.5841 68.8063 62.8091 68.7013 63.9291C70.0313 64.3491 71.1163 65.0491 71.9563 66.0291C72.2713 64.5941 72.3763 62.7391 72.3763 60.1841V58.4691C72.3763 56.2641 73.7063 55.2491 75.4213 55.2491C77.1363 55.2491 78.5713 56.2641 78.5713 58.4691V60.1491C78.5713 61.5141 78.5013 62.7391 78.3963 63.8941C81.4413 65.1191 83.4013 68.0941 82.9463 73.5191H77.1713C77.4863 71.9091 77.3463 70.6491 76.8913 69.7391C75.9463 71.6991 74.6513 73.0641 72.9363 73.8691C71.3613 74.6041 69.4363 74.4641 68.6663 73.2041C68.1763 72.3991 68.1413 71.4541 68.5963 70.6841C68.4563 69.9841 68.1063 69.4241 67.6163 69.0391C66.8113 71.0341 65.5513 72.3991 63.8013 73.3091ZM64.3263 75.4441H85.6763C90.0513 75.4441 90.8563 76.6341 90.8563 80.8341V87.6591H83.7863V81.7441C83.7863 81.2191 83.5063 80.9041 82.9463 80.9041H64.3263C62.4013 80.9041 61.3163 79.8191 61.3163 78.1741C61.3163 76.5291 62.4013 75.4441 64.3263 75.4441Z" fill="#FB9504"/>
<path d="M107.141 69.9491C112.216 69.4941 116.276 67.3941 116.801 63.4041H108.296C106.196 63.4041 105.356 62.0041 105.356 60.5691C105.356 59.1691 106.161 57.7341 108.296 57.7341H116.661C116.766 55.6691 118.201 54.5141 120.406 54.5141C122.611 54.5141 124.011 55.7041 124.151 57.7341H132.516C134.651 57.7341 135.456 59.1691 135.456 60.5691C135.456 62.0041 134.616 63.4041 132.516 63.4041H123.906C123.871 64.1391 123.731 64.8041 123.556 65.4691C129.541 65.2941 135.316 68.0241 136.051 75.6541H129.156C128.386 71.9091 124.886 70.1241 120.581 70.5791C117.501 73.6941 112.776 75.4091 108.436 75.6541C106.511 75.7941 104.936 74.7441 104.726 73.0991C104.516 71.5591 105.426 70.1241 107.141 69.9491ZM123.976 81.2191H133.846C135.946 81.2191 136.786 82.6541 136.786 84.0891C136.786 85.5941 135.911 86.9591 133.846 86.9591H106.966C104.901 86.9591 104.026 85.5941 104.026 84.0891C104.026 82.6541 104.866 81.2191 106.966 81.2191H116.836V77.0891C116.836 74.8141 118.551 74.1141 120.406 74.1141C122.226 74.1141 123.976 74.8491 123.976 77.0891V81.2191Z" fill="#FB9504"/>
<path d="M145.011 55.2141H167.761C169.441 55.2141 170.246 56.2991 170.246 57.7341C170.246 59.1341 169.406 60.1841 167.761 60.1841H148.161C147.706 60.1841 147.461 60.3591 147.461 60.7791V61.5491C147.461 61.9691 147.706 62.1791 148.161 62.1791H167.901C169.546 62.1791 170.421 63.2291 170.421 64.5941C170.421 65.9941 169.511 67.0441 167.901 67.0441H145.011C141.896 67.0441 140.461 66.0991 140.461 63.1241V59.0991C140.461 56.1591 141.896 55.2141 145.011 55.2141ZM141.861 68.7941H168.951C170.946 68.7941 171.786 70.0541 171.786 71.4891C171.786 72.9591 170.911 74.1841 168.951 74.1841H141.861C139.901 74.1841 139.026 72.9591 139.026 71.4891C139.026 70.0541 139.866 68.7941 141.861 68.7941ZM146.726 75.8641H164.086C168.706 75.8641 170.806 78.2791 170.806 81.8141C170.806 85.3491 168.706 87.7641 164.086 87.7641H146.726C142.106 87.7641 140.006 85.3491 140.006 81.8141C140.006 78.2791 142.106 75.8641 146.726 75.8641ZM148.721 83.0391H162.091C163.246 83.0391 163.701 82.5491 163.701 81.8141C163.701 81.0791 163.246 80.5891 162.091 80.5891H148.721C147.566 80.5891 147.111 81.0791 147.111 81.8141C147.111 82.5491 147.566 83.0391 148.721 83.0391Z" fill="#FB9504"/>
<path d="M175.531 67.0441V64.6291C175.531 63.8591 175.706 63.1591 176.021 62.5641C174.446 62.4941 173.571 61.5141 173.571 60.0791C173.571 58.6091 174.446 57.6291 176.161 57.6291H181.166C181.306 55.6691 182.636 54.5141 184.736 54.5141C186.836 54.5141 188.131 55.6691 188.271 57.6291H193.276C194.991 57.6291 195.901 58.6091 195.901 60.0791C195.901 61.5141 195.026 62.4941 193.416 62.5641C193.731 63.1591 193.906 63.8591 193.906 64.6291V67.0441C193.906 71.5241 190.371 74.2191 184.736 74.2191C179.101 74.2191 175.531 71.5241 175.531 67.0441ZM204.931 61.0941H206.016C208.151 61.0941 208.781 62.7391 208.781 64.1391C208.781 65.5741 208.116 67.1841 206.016 67.1841H204.931V74.3591H197.931V58.2591C197.931 55.9841 199.576 54.7941 201.431 54.7941C203.286 54.7941 204.931 55.9841 204.931 58.2591V61.0941ZM187.536 66.4841V65.0491C187.536 63.4041 186.451 62.3191 184.736 62.3191C182.986 62.3191 181.901 63.4041 181.901 65.0491V66.4841C181.901 68.0941 182.986 69.2141 184.736 69.2141C186.451 69.2141 187.536 68.0941 187.536 66.4841ZM179.136 75.6191H200.136C204.511 75.6191 205.316 76.8091 205.316 81.0091V87.6591H198.246V81.8841C198.246 81.3591 197.966 81.0441 197.406 81.0441H179.136C177.211 81.0441 176.126 79.9941 176.126 78.3491C176.126 76.7041 177.211 75.6191 179.136 75.6191Z" fill="#FB9504"/>
<path d="M232.616 61.8641H213.611C211.511 61.8641 210.531 60.2891 210.531 58.8541C210.531 57.4541 211.476 55.8441 213.611 55.8441H234.996C239.126 55.8441 240.386 57.4191 240.386 60.8491V64.6991C240.386 70.1591 239.651 74.2891 238.741 76.4941C237.796 78.5941 235.276 79.3641 233.456 78.4891C232.126 77.7891 231.566 76.4941 232.091 74.9191C233.036 72.3641 233.491 69.2141 233.491 64.8391V62.7391C233.491 62.2491 233.176 61.8641 232.616 61.8641ZM230.026 81.3941H238.881C240.946 81.3941 241.786 82.7591 241.786 84.1941C241.786 85.6641 240.911 86.9591 238.881 86.9591H211.931C209.901 86.9591 209.026 85.6641 209.026 84.1941C209.026 82.7591 209.866 81.3941 211.931 81.3941H214.311V71.3841C214.311 69.2141 215.676 68.5141 217.531 68.5141C219.351 68.5141 220.751 69.2491 220.751 71.3841V81.3941H223.586V71.3841C223.586 69.2141 224.951 68.5141 226.806 68.5141C228.626 68.5141 230.026 69.2491 230.026 71.3841V81.3941Z" fill="#FB9504"/>
</g>
<defs>
<filter id="filter0_i_1137_1843" x="13.5352" y="4.61914" width="238.02" height="83.1445" filterUnits="userSpaceOnUse" color-interpolation-filters="sRGB">
<feFlood flood-opacity="0" result="BackgroundImageFix"/>
<feBlend mode="normal" in="SourceGraphic" in2="BackgroundImageFix" result="shape"/>
<feColorMatrix in="SourceAlpha" type="matrix" values="0 0 0 0 0 0 0 0 0 0 0 0 0 0 0 0 0 0 127 0" result="hardAlpha"/>
<feOffset dy="-2"/>
<feComposite in2="hardAlpha" operator="arithmetic" k2="-1" k3="1"/>
<feColorMatrix type="matrix" values="0 0 0 0 0 0 0 0 0 0 0 0 0 0 0 0 0 0 0.08 0"/>
<feBlend mode="normal" in2="shape" result="effect1_innerShadow_1137_1843"/>
</filter>
</defs>
</svg>
