<svg width="266" height="100" viewBox="0 0 266 100" fill="none" xmlns="http://www.w3.org/2000/svg">
<g filter="url(#filter0_i_1137_1835)">
<path d="M71.5698 23.1341H61.6648V25.2341H68.0348C72.2698 25.2341 73.0398 26.4241 73.0398 30.4841V37.6591H48.1198C43.8848 37.6591 43.1148 36.4341 43.1148 32.3741V30.4841C43.1148 26.4241 43.8848 25.2341 48.1198 25.2341H54.5248V23.1341H44.6198C42.5898 23.1341 41.7148 21.8391 41.7148 20.3691C41.7148 18.9341 42.5548 17.5691 44.6198 17.5691H50.5698C51.5848 16.1341 51.9698 14.5591 51.9698 12.9141V11.2341C51.9698 10.8141 51.7598 10.5341 51.2698 10.5341H45.8448C43.6398 10.5341 42.6948 9.55414 42.6948 7.87414C42.6948 6.33414 43.6048 5.28414 45.8448 5.28414H68.3498C71.4648 5.28414 72.6898 6.08914 72.6898 8.88914V12.4241C72.6898 14.4541 72.4448 16.2041 71.9898 17.6041C73.7398 17.7441 74.4748 19.0391 74.4748 20.3691C74.4748 21.8391 73.5998 23.1341 71.5698 23.1341ZM58.8298 10.4641V12.0391C58.8298 14.2791 58.4798 16.1341 57.5348 17.5691H65.1298C65.6198 16.1691 65.8298 14.6641 65.8298 13.3341V11.1641C65.8298 10.7091 65.5848 10.4641 64.9898 10.4641H58.8298ZM66.0748 32.8291V31.0091C66.0748 30.3791 65.8998 30.0641 65.1998 30.0641H50.9548C50.2548 30.0641 50.1148 30.3791 50.1148 31.0091V31.8491C50.1148 32.5491 50.2548 32.8291 50.9548 32.8291H66.0748Z" fill="#FB9504"/>
<path d="M107.445 17.0441H108.705C110.84 17.0441 111.47 18.6891 111.47 20.0891C111.47 21.5241 110.805 23.1341 108.705 23.1341H107.445V37.6591H100.445V8.25914C100.445 5.98414 102.09 4.79414 103.945 4.79414C105.8 4.79414 107.445 5.98414 107.445 8.25914V17.0441ZM90.5048 11.8641H80.3548C78.3248 11.8641 77.3798 10.3591 77.3798 8.88914C77.3798 7.41914 78.2898 5.87914 80.3548 5.87914H92.8498C96.8048 5.87914 98.0298 7.38414 98.0298 10.7091V14.9791C98.0298 20.1591 97.6098 23.4491 96.6998 26.0041C96.0348 27.8241 93.9348 28.5941 91.9048 27.9991C90.2948 27.5091 89.8048 25.7591 90.3298 24.1491C91.0298 22.0491 91.3448 19.2141 91.3448 14.9441V12.7041C91.3448 12.1091 91.0648 11.8641 90.5048 11.8641ZM87.7398 30.7641H96.2798C98.3798 30.7641 99.2198 32.2341 99.2198 33.6691C99.2198 35.1391 98.3448 36.5041 96.2798 36.5041H79.6548C77.5898 36.5041 76.7148 35.1391 76.7148 33.6691C76.7148 32.2341 77.5548 30.7641 79.6548 30.7641H81.2998V19.6341C81.2998 17.4641 82.6648 16.7641 84.5198 16.7641C86.3398 16.7641 87.7398 17.4991 87.7398 19.6341V30.7641Z" fill="#FB9504"/>
<path d="M123.834 13.4391C122.224 13.3691 121.244 12.2141 121.244 10.7791C121.244 9.30914 122.224 8.18914 123.939 8.18914H129.294C129.329 5.94914 130.659 4.61914 132.899 4.61914C135.139 4.61914 136.469 5.94914 136.504 8.18914H141.824C143.539 8.18914 144.519 9.30914 144.519 10.7791C144.519 12.2141 143.539 13.3691 141.929 13.4391C142.314 14.3841 142.524 15.4691 142.524 16.6941V18.4441C142.524 24.5341 138.604 27.1241 132.899 27.1241C127.194 27.1241 123.239 24.5341 123.239 18.4441V16.6941C123.239 15.4691 123.449 14.3841 123.834 13.4391ZM149.804 4.79414C151.659 4.79414 153.304 5.98414 153.304 8.25914V37.6591H146.304V8.25914C146.304 5.98414 147.949 4.79414 149.804 4.79414ZM135.979 18.6191V16.3441C135.979 14.1741 134.579 13.2291 132.899 13.2291C131.219 13.2291 129.819 14.1741 129.819 16.3441V18.6191C129.819 20.8241 131.219 21.7341 132.899 21.7341C134.579 21.7341 135.979 20.8241 135.979 18.6191ZM124.534 30.5191H142.069C144.239 30.5191 145.079 32.0591 145.079 33.4941C145.079 34.9641 144.204 36.4341 142.069 36.4341H124.534C122.399 36.4341 121.524 34.9641 121.524 33.4941C121.524 32.0591 122.364 30.5191 124.534 30.5191Z" fill="#FB9504"/>
<path d="M187.429 10.7441H188.514C190.649 10.7441 191.279 12.3891 191.279 13.7891C191.279 15.2241 190.614 16.8341 188.514 16.8341H187.429V22.9591H180.429V8.25914C180.429 5.98414 182.074 4.79414 183.929 4.79414C185.784 4.79414 187.429 5.98414 187.429 8.25914V10.7441ZM176.859 10.1141V22.1541H162.194C158.799 22.1541 157.539 21.3141 157.539 18.0941V9.90414C157.539 6.71914 158.799 5.80914 162.194 5.80914H172.414C175.564 5.80914 176.859 6.71914 176.859 10.1141ZM164.084 11.5491V16.3791C164.084 16.8341 164.294 17.0791 164.854 17.0791H170.384V11.5141C170.384 11.0941 170.209 10.8491 169.719 10.8491H164.749C164.259 10.8491 164.084 11.0941 164.084 11.5491ZM166.359 24.0441H180.289C185.364 24.0441 187.989 26.8791 187.989 30.9041C187.989 34.9291 185.364 37.7641 180.289 37.7641H166.359C161.214 37.7641 158.659 34.8591 158.659 30.9041C158.659 26.9491 161.214 24.0441 166.359 24.0441ZM168.144 32.9341H178.504C180.149 32.9341 180.884 32.0241 180.884 30.9041C180.884 29.7841 180.149 28.8391 178.504 28.8391H168.144C166.499 28.8391 165.764 29.7841 165.764 30.9041C165.764 32.0241 166.499 32.9341 168.144 32.9341Z" fill="#FB9504"/>
<path d="M223.304 37.6591H216.304V8.25914C216.304 5.98414 217.949 4.79414 219.804 4.79414C221.659 4.79414 223.304 5.98414 223.304 8.25914V37.6591ZM192.399 17.6041V14.2441C192.399 8.15414 196.879 5.38914 202.619 5.38914C208.359 5.38914 212.804 8.15414 212.804 14.2441V17.6041C212.804 23.6941 208.359 26.4591 202.619 26.4591C196.879 26.4591 192.399 23.6941 192.399 17.6041ZM199.259 13.9991V17.8491C199.259 20.1241 200.939 20.9641 202.619 20.9641C204.299 20.9641 205.979 20.1241 205.979 17.8491V13.9991C205.979 11.7591 204.299 10.8841 202.619 10.8841C200.939 10.8841 199.259 11.7591 199.259 13.9991ZM194.534 30.5191H212.069C214.239 30.5191 215.079 32.0591 215.079 33.4941C215.079 34.9641 214.204 36.4341 212.069 36.4341H194.534C192.399 36.4341 191.524 34.9641 191.524 33.4941C191.524 32.0591 192.364 30.5191 194.534 30.5191Z" fill="#FB9504"/>
<path d="M71.6096 55.9141H91.8046C93.7996 55.9141 94.4996 57.5241 94.4996 58.8541C94.4996 60.1841 93.7646 61.7591 91.8046 61.7591H74.0946C73.3596 61.7591 73.1146 61.9691 73.1146 62.7041V68.0941C73.1146 68.8291 73.3596 69.0741 74.0946 69.0741H92.3646C94.3246 69.0741 95.0946 70.6841 95.0946 71.9791C95.0946 73.3091 94.2896 74.9191 92.3646 74.9191H71.6096C67.4096 74.9191 65.9746 73.4141 65.9746 69.3541V61.4441C65.9746 57.4191 67.4096 55.9141 71.6096 55.9141ZM67.1296 81.0441H93.8696C96.0396 81.0441 96.8796 82.5841 96.8796 84.0191C96.8796 85.4891 96.0046 86.9591 93.8696 86.9591H67.1296C64.9946 86.9591 64.1196 85.4891 64.1196 84.0191C64.1196 82.5841 64.9596 81.0441 67.1296 81.0441Z" fill="#FB9504"/>
<path d="M130.9 74.0091H123.9V58.2591C123.9 55.9841 125.545 54.7941 127.4 54.7941C129.255 54.7941 130.9 55.9841 130.9 58.2591V74.0091ZM120.085 73.6241H105.595C101.92 73.6241 99.8896 71.3841 99.8896 68.1991V67.6391C99.8896 64.4191 101.885 62.4591 105.245 62.4591H112.21V61.1641C112.21 60.6391 112 60.4991 111.405 60.4991H102.305C100.765 60.4991 100.03 59.2741 100.03 58.0841C100.03 56.8591 100.8 55.6341 102.305 55.6341H114.765C118.02 55.6341 119.385 57.2441 119.385 59.8341V66.8691H108.115C107.555 66.8691 107.065 67.1491 107.065 67.8141V67.9191C107.065 68.5491 107.555 68.7941 108.115 68.7941H120.085C121.625 68.7941 122.36 70.0191 122.36 71.2441C122.36 72.4341 121.695 73.6241 120.085 73.6241ZM130.935 87.6591H106.47C102.235 87.6591 101.465 86.3991 101.465 82.4791V80.4141C101.465 76.4941 102.235 75.2341 106.47 75.2341H126.21C130.165 75.2341 130.935 76.4941 130.935 80.0991V87.6591ZM108.36 80.6941V82.1291C108.36 82.7941 108.535 82.9341 109.095 82.9341H124.04V80.6941C124.04 80.0991 123.865 79.9241 123.305 79.9241H109.095C108.535 79.9241 108.36 80.0991 108.36 80.6941Z" fill="#FB9504"/>
<path d="M160.3 69.1091H158.725V78.9091H152.6V57.8041C152.6 55.9841 153.825 54.7941 155.68 54.7941C157.535 54.7941 158.725 55.9841 158.725 57.8041V63.6491H160.3V57.8041C160.3 55.9841 161.525 54.7941 163.38 54.7941C165.235 54.7941 166.425 55.9841 166.425 57.8041V78.9091H160.3V69.1091ZM149.415 74.8491H140.49C136.955 74.8491 134.715 72.3991 134.715 69.0741V68.4791C134.715 65.1191 136.92 63.0191 140.14 63.0191H144.305V61.6191C144.305 61.0591 144.095 60.9191 143.465 60.9191H137.41C135.765 60.9191 135.03 59.5891 135.03 58.3991C135.03 57.1391 135.8 55.8091 137.41 55.8091H146.09C149.1 55.8091 150.71 57.4891 150.71 60.1491V67.6741H142.835C142.24 67.6741 141.715 67.9891 141.715 68.6891V68.8291C141.715 69.4941 142.24 69.7741 142.835 69.7741H149.415C151.025 69.7741 151.76 71.1041 151.76 72.3291C151.76 73.5541 151.095 74.8491 149.415 74.8491ZM144.55 82.2691H164.325C166.39 82.2691 167.195 83.5641 167.195 84.9641C167.195 86.3991 166.355 87.6591 164.325 87.6591H141.645C137.725 87.6591 136.675 86.2941 136.675 82.5491V79.5041C136.675 77.2991 138.32 76.2141 140.28 76.2141C142.24 76.2141 143.78 77.3341 143.78 79.5041V81.5691C143.78 82.1641 143.955 82.2691 144.55 82.2691Z" fill="#FB9504"/>
<path d="M176.61 55.9141H196.805C198.8 55.9141 199.5 57.5241 199.5 58.8541C199.5 60.1841 198.765 61.7591 196.805 61.7591H179.095C178.36 61.7591 178.115 61.9691 178.115 62.7041V68.0941C178.115 68.8291 178.36 69.0741 179.095 69.0741H197.365C199.325 69.0741 200.095 70.6841 200.095 71.9791C200.095 73.3091 199.29 74.9191 197.365 74.9191H176.61C172.41 74.9191 170.975 73.4141 170.975 69.3541V61.4441C170.975 57.4191 172.41 55.9141 176.61 55.9141ZM172.13 81.0441H198.87C201.04 81.0441 201.88 82.5841 201.88 84.0191C201.88 85.4891 201.005 86.9591 198.87 86.9591H172.13C169.995 86.9591 169.12 85.4891 169.12 84.0191C169.12 82.5841 169.96 81.0441 172.13 81.0441Z" fill="#FB9504"/>
</g>
<defs>
<filter id="filter0_i_1137_1835" x="41.7148" y="4.61914" width="181.59" height="83.0391" filterUnits="userSpaceOnUse" color-interpolation-filters="sRGB">
<feFlood flood-opacity="0" result="BackgroundImageFix"/>
<feBlend mode="normal" in="SourceGraphic" in2="BackgroundImageFix" result="shape"/>
<feColorMatrix in="SourceAlpha" type="matrix" values="0 0 0 0 0 0 0 0 0 0 0 0 0 0 0 0 0 0 127 0" result="hardAlpha"/>
<feOffset dy="-2"/>
<feComposite in2="hardAlpha" operator="arithmetic" k2="-1" k3="1"/>
<feColorMatrix type="matrix" values="0 0 0 0 0 0 0 0 0 0 0 0 0 0 0 0 0 0 0.08 0"/>
<feBlend mode="normal" in2="shape" result="effect1_innerShadow_1137_1835"/>
</filter>
</defs>
</svg>
