<svg width="266" height="100" viewBox="0 0 266 100" fill="none" xmlns="http://www.w3.org/2000/svg">
<g filter="url(#filter0_i_1137_1845)">
<path d="M90.1202 13.5449H91.2052C93.3402 13.5449 93.9702 15.1899 93.9702 16.5899C93.9702 18.0249 93.3052 19.6349 91.2052 19.6349H90.1202V29.6099H83.1202V8.25992C83.1202 5.98492 84.7652 4.79492 86.6202 4.79492C88.4752 4.79492 90.1202 5.98492 90.1202 8.25992V13.5449ZM71.3952 17.6399C69.0852 21.8399 65.1302 24.0449 62.2252 24.0449C60.4052 24.0449 59.1102 23.0299 59.1102 20.9999C59.1102 19.7049 59.8802 18.7249 61.2102 18.1999C64.5002 16.8699 66.2502 14.5949 66.3552 9.72992V8.39992C66.4252 6.33492 68.0702 5.28492 69.9602 5.31992C71.8152 5.35492 73.3202 6.50992 73.3202 8.50492V9.76492C73.3202 10.6399 73.2502 11.4799 73.1452 12.2499C78.3252 12.8449 81.3702 16.4499 81.1252 23.5549H74.3352C74.5802 20.1949 73.5302 18.2349 71.3952 17.6399ZM69.8902 32.2699H88.3352C90.4352 32.2699 91.2402 33.5299 91.2402 34.9299C91.2402 36.3649 90.4002 37.6599 88.3352 37.6599H66.9152C62.9952 37.6599 61.9452 36.2949 61.9452 32.5499V28.8749C61.9452 26.5999 63.5902 25.5149 65.5502 25.5149C67.5102 25.5149 69.0502 26.6349 69.0502 28.8749V31.4649C69.0502 32.1299 69.2252 32.2699 69.8902 32.2699Z" fill="#FB9504"/>
<path d="M123.905 20.1949H133.95C135.945 20.1949 136.785 21.4549 136.785 22.8899C136.785 24.3599 135.91 25.5849 133.95 25.5849H106.86C104.9 25.5849 104.025 24.3599 104.025 22.8899C104.025 21.4549 104.865 20.1949 106.86 20.1949H117.29V18.0249C116.135 18.8649 114.77 19.3549 113.3 19.3549C111.55 19.3549 110.045 18.5849 110.045 16.6249C110.045 15.3299 110.885 14.5949 111.76 14.2799C112.915 13.8599 113.615 13.1599 113.615 12.3199V11.3399C113.615 10.9549 113.51 10.7449 113.09 10.7449H107.595C105.635 10.7449 104.725 9.34492 104.725 8.01492C104.725 6.71992 105.6 5.28492 107.595 5.28492H130.24C134.09 5.28492 135.28 6.75492 135.28 9.83492V12.4249C135.28 13.6849 134.93 15.7149 134.405 16.8349C133.74 18.4099 131.99 19.4949 129.855 19.0749C128.21 18.7599 126.81 17.1849 127.79 15.2599C128.315 14.2099 128.42 13.3699 128.42 12.4599V11.3749C128.42 10.9549 128.28 10.7449 127.755 10.7449H120.23V12.4949C120.23 13.3349 120.055 14.1399 119.775 14.8749C120.02 14.8399 120.3 14.8399 120.58 14.8399C122.4 14.8399 123.905 15.5749 123.905 17.7099V20.1949ZM108.33 27.6149H130.31C134.545 27.6149 135.315 28.8399 135.315 32.8999V37.6599H128.315V33.4249C128.315 32.8649 128.105 32.6549 127.545 32.6549H108.33C106.44 32.6549 105.39 31.6749 105.39 30.0999C105.39 28.5249 106.44 27.6149 108.33 27.6149Z" fill="#FB9504"/>
<path d="M168.285 4.79492C170.14 4.79492 171.33 5.98492 171.33 7.80492V37.6599H165.205V23.3099H163.455V37.6599H157.33V7.80492C157.33 5.98492 158.555 4.79492 160.41 4.79492C162.265 4.79492 163.455 5.98492 163.455 7.80492V17.4999H165.205V7.80492C165.205 5.98492 166.43 4.79492 168.285 4.79492ZM147.705 30.4149H153.34C155.37 30.4149 155.965 32.0249 155.965 33.3549C155.965 34.7199 155.335 36.2599 153.34 36.2599H145.15C140.6 36.2599 139.76 35.1749 139.76 30.7999V11.4449C139.76 7.06992 140.6 6.01992 145.15 6.01992H152.535C154.565 6.01992 155.23 7.62992 155.23 8.95992C155.23 10.3249 154.53 11.9349 152.535 11.9349H147.705C147.075 11.9349 146.795 12.1449 146.795 12.9499V29.3999C146.795 30.2049 147.075 30.4149 147.705 30.4149Z" fill="#FB9504"/>
<path d="M205.805 37.6599H198.805V8.25992C198.805 5.98492 200.45 4.79492 202.305 4.79492C204.16 4.79492 205.805 5.98492 205.805 8.25992V37.6599ZM177.21 30.4499C182.845 29.8549 187.01 27.4399 187.01 19.1449V13.0199C187.01 12.5299 186.695 12.1449 186.135 12.1449H178.05C175.95 12.1449 174.935 10.6399 174.935 9.16992C174.935 7.73492 175.915 6.12492 178.05 6.12492H188.55C192.4 6.12492 193.905 7.90992 193.905 11.1299V19.1799C193.905 31.2549 186.555 35.9449 177.98 36.2599C176.125 36.3649 174.41 35.3149 174.515 33.2499C174.585 31.7799 175.46 30.6599 177.21 30.4499Z" fill="#FB9504"/>
<path d="M73.4952 87.6599H66.4952V58.2599C66.4952 55.9849 68.1402 54.7949 69.9952 54.7949C71.8502 54.7949 73.4952 55.9849 73.4952 58.2599V87.6599ZM61.6302 86.1899H48.5402C44.3052 86.1899 42.6602 84.6499 42.6602 80.4149V73.6949C42.6602 69.4599 44.3052 67.9899 48.5402 67.9899H55.0152V62.8799C55.0152 62.4249 54.8752 61.9349 54.1402 61.9349H45.9502C43.8502 61.9349 42.9752 60.4649 42.9752 59.0299C42.9752 57.6299 43.8152 56.0899 45.9502 56.0899H56.0652C60.7552 56.0899 62.0152 57.4199 62.0152 61.2699V73.6949H51.2352C50.0452 73.6949 49.6602 73.9749 49.6602 75.1649V78.9799C49.6602 80.1699 50.0452 80.4499 51.2352 80.4499H61.6302C63.7652 80.4499 64.6052 81.9199 64.6052 83.3199C64.6052 84.7549 63.7302 86.1899 61.6302 86.1899Z" fill="#FB9504"/>
<path d="M81.9302 55.1449H105.94C107.165 55.1449 107.9 55.9149 107.9 57.0349C107.9 58.2249 107.13 58.9249 105.94 58.9249H85.7102C85.3602 58.9249 85.1152 59.1699 85.1152 59.4849V60.0449H106.045C107.095 60.0449 107.69 60.7099 107.69 61.6899C107.69 62.6699 107.06 63.2999 106.045 63.2999H85.1152V63.8249C85.1152 64.2099 85.3602 64.4199 85.7102 64.4199H106.36C107.585 64.4199 108.32 65.1199 108.32 66.2399C108.32 67.4299 107.55 68.0599 106.36 68.0599H81.9302C79.3402 68.0599 78.1502 66.9749 78.1502 64.6649V58.5399C78.1502 56.2299 79.3402 55.1449 81.9302 55.1449ZM79.2702 69.1449H106.92C108.635 69.1449 109.475 69.9849 109.475 71.4199C109.475 72.8899 108.6 73.6599 106.92 73.6599H79.2702C77.5902 73.6599 76.7152 72.8899 76.7152 71.4199C76.7152 69.9849 77.5552 69.1449 79.2702 69.1449ZM107.06 87.6599H82.1052C79.0952 87.6599 77.6952 85.8399 77.6952 83.5649V83.4599C77.6952 81.1849 79.0602 79.5399 82.1052 79.5399H100.83V78.9099C100.83 78.5949 100.69 78.4549 100.305 78.4549H80.0402C78.7452 78.4549 78.0452 77.5799 78.0452 76.5649C78.0452 75.5499 78.6402 74.6749 80.0402 74.6749H104.12C107.095 74.6749 108.04 75.7949 108.04 77.9299V82.7599H85.7452C85.3952 82.7599 85.2202 83.0399 85.2202 83.3199C85.2202 83.5649 85.3952 83.8449 85.7452 83.8449H107.06C108.495 83.8449 109.02 84.7549 109.02 85.7699C109.02 86.7849 108.53 87.6599 107.06 87.6599Z" fill="#FB9504"/>
<path d="M141.475 81.2199H151.345C153.445 81.2199 154.285 82.6549 154.285 84.0899C154.285 85.5949 153.41 86.9599 151.345 86.9599H124.465C122.4 86.9599 121.525 85.5949 121.525 84.0899C121.525 82.6549 122.365 81.2199 124.465 81.2199H134.335V74.7449H131.92C126.075 74.7449 122.54 70.4399 122.54 65.6449V64.7699C122.54 59.9749 126.075 55.6699 131.92 55.6699H143.855C149.7 55.6699 153.27 59.9749 153.27 64.7699V65.6449C153.27 70.4399 149.7 74.7449 143.855 74.7449H141.475V81.2199ZM129.82 64.7349V65.6799C129.82 67.6399 131.395 69.0749 133.74 69.0749H142.035C144.38 69.0749 145.99 67.6399 145.99 65.6799V64.7349C145.99 62.7749 144.38 61.3399 142.035 61.3399H133.74C131.395 61.3399 129.82 62.7749 129.82 64.7349Z" fill="#FB9504"/>
<path d="M185.19 71.5949H163.385C159.64 71.5949 158.205 70.3349 158.205 66.7299V60.3949C158.205 56.8249 159.64 55.5649 163.385 55.5649H184.77C186.555 55.5649 187.255 57.1749 187.255 58.4699C187.255 59.7299 186.52 61.3399 184.77 61.3399H166.15C165.52 61.3399 165.275 61.5149 165.275 62.1099V65.0499C165.275 65.6449 165.52 65.8899 166.15 65.8899H185.19C186.905 65.8899 187.675 67.4999 187.675 68.7249C187.675 69.9849 186.87 71.5949 185.19 71.5949ZM159.465 74.0449H186.345C188.445 74.0449 189.285 75.4799 189.285 76.9149C189.285 78.3849 188.41 79.7849 186.345 79.7849H176.475V87.8349H169.335V79.7849H159.465C157.4 79.7849 156.525 78.3849 156.525 76.9149C156.525 75.4799 157.365 74.0449 159.465 74.0449Z" fill="#FB9504"/>
<path d="M222.43 61.0949H223.515C225.65 61.0949 226.28 62.7399 226.28 64.1399C226.28 65.5749 225.615 67.1849 223.515 67.1849H222.43V73.6599H215.43V58.2599C215.43 55.9849 217.075 54.7949 218.93 54.7949C220.785 54.7949 222.43 55.9849 222.43 58.2599V61.0949ZM211.86 60.1849V72.8549H197.23C193.765 72.8549 192.54 71.9799 192.54 68.7249V59.9749C192.54 56.7199 193.765 55.8099 197.23 55.8099H207.345C210.6 55.8099 211.86 56.7199 211.86 60.1849ZM199.12 61.5849V67.0449C199.12 67.4999 199.33 67.7799 199.89 67.7799H205.385V61.5499C205.385 61.1299 205.21 60.8499 204.685 60.8499H199.785C199.26 60.8499 199.12 61.1299 199.12 61.5849ZM196.67 75.0949H217.635C222.01 75.0949 222.815 76.2849 222.815 80.4849V87.6599H215.745V81.4649C215.745 80.9399 215.465 80.6249 214.905 80.6249H196.67C194.71 80.6249 193.625 79.5049 193.625 77.8599C193.625 76.2149 194.71 75.0949 196.67 75.0949Z" fill="#FB9504"/>
</g>
<defs>
<filter id="filter0_i_1137_1845" x="42.6602" y="4.79492" width="183.621" height="83.0391" filterUnits="userSpaceOnUse" color-interpolation-filters="sRGB">
<feFlood flood-opacity="0" result="BackgroundImageFix"/>
<feBlend mode="normal" in="SourceGraphic" in2="BackgroundImageFix" result="shape"/>
<feColorMatrix in="SourceAlpha" type="matrix" values="0 0 0 0 0 0 0 0 0 0 0 0 0 0 0 0 0 0 127 0" result="hardAlpha"/>
<feOffset dy="-2"/>
<feComposite in2="hardAlpha" operator="arithmetic" k2="-1" k3="1"/>
<feColorMatrix type="matrix" values="0 0 0 0 0 0 0 0 0 0 0 0 0 0 0 0 0 0 0.08 0"/>
<feBlend mode="normal" in2="shape" result="effect1_innerShadow_1137_1845"/>
</filter>
</defs>
</svg>
