<svg width="266" height="100" viewBox="0 0 266 100" fill="none" xmlns="http://www.w3.org/2000/svg">
<g filter="url(#filter0_i_1137_1837)">
<path d="M84.2096 19.7759C87.6046 19.3559 89.6346 17.2559 89.6696 13.9309V13.7209H84.8046C83.1596 13.7209 82.2496 12.2509 82.2496 10.9909C82.2496 9.73094 83.0196 8.19094 84.8046 8.19094H89.5296V7.80594C89.5296 5.74094 90.7546 4.76094 92.9246 4.76094C95.0946 4.76094 96.3546 5.77594 96.3546 7.80594V8.19094H101.36C103.145 8.19094 103.915 9.73094 103.915 10.9909C103.915 12.2509 103.005 13.7209 101.36 13.7209H96.2496V13.9309C96.2496 14.6309 96.2146 15.2959 96.1096 15.9259C101.465 15.9959 104.16 18.8659 104.055 24.9909H97.5796C97.6846 21.9809 96.2496 20.5809 94.0796 20.7909C91.8746 23.6959 88.3746 25.2709 84.9796 25.2359C83.2996 25.2359 81.8996 24.0459 81.8996 22.3309C81.8996 20.9309 82.7746 19.9509 84.2096 19.7759ZM109.9 4.79594C111.755 4.79594 113.4 5.98594 113.4 8.26094V37.6609H106.4V8.26094C106.4 5.98594 108.045 4.79594 109.9 4.79594ZM96.4946 30.7659H102.235C104.335 30.7659 105.175 32.2359 105.175 33.6709C105.175 35.1409 104.3 36.5059 102.235 36.5059H84.5596C82.4946 36.5059 81.6196 35.1409 81.6196 33.6709C81.6196 32.2359 82.4596 30.7659 84.5596 30.7659H89.7046V27.3709C89.7046 25.1659 91.2446 24.4659 93.0996 24.4659C94.9196 24.4659 96.4946 25.2009 96.4946 27.3709V30.7659Z" fill="#FB9504"/>
<path d="M119.91 24.0109C118.125 24.0459 116.865 22.9959 116.865 21.4209C116.865 19.8809 117.775 18.9359 119.14 18.7959C122.255 18.4109 124.075 16.4509 124.075 13.4409V13.0909H119.595C117.95 13.0909 117.04 11.6559 117.04 10.3959C117.04 9.13594 117.81 7.63094 119.595 7.63094H123.935C123.935 5.56594 125.09 4.58594 127.26 4.58594C129.43 4.58594 130.655 5.60094 130.655 7.63094H135.1C136.885 7.63094 137.655 9.13594 137.655 10.3959C137.655 11.6559 136.745 13.0909 135.1 13.0909H130.585V13.5459C130.585 14.0359 130.55 14.5259 130.48 15.0159C135.52 15.1559 138.11 17.6759 137.97 23.5909H131.495C131.775 21.0359 130.515 19.6359 128.66 19.7409C126.63 22.4709 123.305 23.9759 119.91 24.0109ZM136.71 15.1909C136.71 13.5809 137.83 12.4259 139.615 12.4259H141.4V8.26094C141.4 5.98594 143.045 4.79594 144.9 4.79594C146.755 4.79594 148.4 5.98594 148.4 8.26094V24.0109H141.4V17.8859H139.615C137.865 17.8859 136.71 16.8359 136.71 15.1909ZM123.97 25.2359H143.71C147.665 25.2359 148.435 26.4959 148.435 30.1009V37.6609H123.97C119.735 37.6609 118.965 36.4009 118.965 32.4809V30.4159C118.965 26.4959 119.735 25.2359 123.97 25.2359ZM126.595 32.9359H141.54V30.6959C141.54 30.1009 141.365 29.9259 140.805 29.9259H126.595C126.035 29.9259 125.86 30.1009 125.86 30.6959V32.1309C125.86 32.7959 126.035 32.9359 126.595 32.9359Z" fill="#FB9504"/>
<path d="M182.525 13.5459H183.61C185.745 13.5459 186.375 15.1909 186.375 16.5909C186.375 18.0259 185.71 19.6359 183.61 19.6359H182.525V29.6109H175.525V8.26094C175.525 5.98594 177.17 4.79594 179.025 4.79594C180.88 4.79594 182.525 5.98594 182.525 8.26094V13.5459ZM170.73 23.4859H156.765C153.65 23.4859 152.705 22.3309 152.705 19.4959V9.97594C152.705 7.14094 153.65 6.02094 156.765 6.02094H169.225C171.255 6.02094 171.85 7.45594 171.85 8.75094C171.85 10.0459 171.22 11.4809 169.225 11.4809H160.125C159.635 11.4809 159.425 11.6909 159.425 12.2159V17.3609C159.425 17.8859 159.635 18.0959 160.125 18.0959H170.73C172.76 18.0959 173.285 19.5309 173.285 20.7909C173.285 22.1209 172.725 23.4859 170.73 23.4859ZM162.295 32.2709H180.74C182.84 32.2709 183.645 33.5309 183.645 34.9309C183.645 36.3659 182.805 37.6609 180.74 37.6609H159.32C155.4 37.6609 154.35 36.2959 154.35 32.5509V28.8759C154.35 26.6009 155.995 25.5159 157.955 25.5159C159.915 25.5159 161.455 26.6359 161.455 28.8759V31.4659C161.455 32.1309 161.63 32.2709 162.295 32.2709Z" fill="#FB9504"/>
<path d="M29.9548 71.7709H16.1998C10.8798 71.7709 7.79984 68.2709 7.79984 63.9309V63.3359C7.79984 58.9959 10.8798 55.4959 16.1998 55.4959H29.9548C35.2748 55.4959 38.3898 58.9959 38.3898 63.3359V63.9309C38.3898 68.2709 35.2748 71.7709 29.9548 71.7709ZM15.0098 63.3009V63.9659C15.0098 65.4359 16.1648 66.5209 18.0198 66.5209H28.1698C29.9898 66.5209 31.1798 65.4359 31.1798 63.9659V63.3009C31.1798 61.8309 29.9898 60.7459 28.1698 60.7459H18.0198C16.1648 60.7459 15.0098 61.8309 15.0098 63.3009ZM9.65484 74.0459H36.5348C38.6348 74.0459 39.4748 75.4809 39.4748 76.9159C39.4748 78.3859 38.5998 79.7859 36.5348 79.7859H26.6648V87.8359H19.5248V79.7859H9.65484C7.58984 79.7859 6.71484 78.3859 6.71484 76.9159C6.71484 75.4809 7.55484 74.0459 9.65484 74.0459Z" fill="#FB9504"/>
<path d="M44.9348 67.6409C49.4498 67.1509 53.9648 64.7009 54.6298 61.3059H45.9848C43.8848 61.3059 43.0448 59.8709 43.0448 58.4359C43.0448 57.0359 43.8498 55.5309 45.9848 55.5309H70.2048C72.3398 55.5309 73.1448 57.0359 73.1448 58.4359C73.1448 59.8709 72.3048 61.3059 70.2048 61.3059H61.6998C61.6298 61.9709 61.4898 62.6009 61.3148 63.1959C67.8948 62.8109 73.2498 66.4509 73.8098 73.3459H66.8798C65.8998 69.7059 62.2598 67.6759 58.3048 68.1309C55.1198 71.3859 50.2198 73.3809 45.8798 73.3809C43.7448 73.3809 42.3798 72.1909 42.3798 70.3359C42.3798 68.9009 43.4298 67.7809 44.9348 67.6409ZM44.6548 74.5709H71.5348C73.6348 74.5709 74.4748 76.0059 74.4748 77.4409C74.4748 78.9109 73.5998 80.3109 71.5348 80.3109H61.6648V87.8359H54.5248V80.3109H44.6548C42.5898 80.3109 41.7148 78.9109 41.7148 77.4409C41.7148 76.0059 42.5548 74.5709 44.6548 74.5709Z" fill="#FB9504"/>
<path d="M78.2198 66.7309V64.5959C78.2198 63.8259 78.3948 63.1259 78.7098 62.5309C77.1348 62.4609 76.2598 61.4809 76.2598 60.0459C76.2598 58.5759 77.1348 57.6309 78.8498 57.6309H83.8548C83.9948 55.6709 85.3248 54.5159 87.4248 54.5159C89.5248 54.5159 90.8198 55.6709 90.9598 57.6309H95.9648C97.6798 57.6309 98.5898 58.5759 98.5898 60.0459C98.5898 61.4809 97.6798 62.4609 96.1048 62.5309C96.4198 63.1259 96.5948 63.8259 96.5948 64.5959V66.7309C96.5948 71.1759 93.0948 73.8709 87.4248 73.8709C81.7548 73.8709 78.2198 71.1759 78.2198 66.7309ZM107.62 60.7459H108.705C110.84 60.7459 111.47 62.3909 111.47 63.7909C111.47 65.2259 110.805 66.8359 108.705 66.8359H107.62V74.0109H100.62V58.2609C100.62 55.9859 102.265 54.7959 104.12 54.7959C105.975 54.7959 107.62 55.9859 107.62 58.2609V60.7459ZM90.2598 66.4859V64.6659C90.2598 63.1259 89.1398 62.1109 87.4248 62.1109C85.6748 62.1109 84.5548 63.1259 84.5548 64.6659V66.4859C84.5548 68.0609 85.6748 69.0409 87.4248 69.0409C89.1398 69.0409 90.2598 68.0609 90.2598 66.4859ZM86.1998 75.0959H100.83C105.835 75.0959 108.18 77.6509 108.18 81.4309C108.18 85.1759 105.835 87.7659 100.83 87.7659H86.1998C81.1598 87.7659 78.8498 85.1059 78.8498 81.4309C78.8498 77.7209 81.1598 75.0959 86.1998 75.0959ZM87.8798 83.0759H99.1848C100.48 83.0759 101.075 82.3759 101.075 81.4309C101.075 80.4859 100.48 79.7859 99.1848 79.7859H87.8798C86.5498 79.7859 85.9548 80.4859 85.9548 81.4309C85.9548 82.3759 86.5498 83.0759 87.8798 83.0759Z" fill="#FB9504"/>
<path d="M134.71 60.8509H116.405C114.13 60.8509 113.185 59.6609 113.185 58.0509C113.185 56.5459 114.095 55.2859 116.405 55.2859H138.42C141.29 55.2859 142.48 56.5809 142.48 59.0309V60.4659C142.48 63.5109 142.235 65.5059 141.85 66.7309H134.955C135.305 65.5059 135.585 64.2809 135.585 62.2159V61.6209C135.585 60.9909 135.34 60.8509 134.71 60.8509ZM129.39 68.0959H141.57C143.635 68.0959 144.475 69.4609 144.475 70.8959C144.475 72.3659 143.6 73.6609 141.57 73.6609H114.62C112.59 73.6609 111.715 72.3659 111.715 70.8959C111.715 69.4609 112.555 68.0959 114.62 68.0959H122.25V66.0659C122.25 63.7909 123.965 63.0909 125.82 63.0909C127.64 63.0909 129.39 63.8259 129.39 66.0659V68.0959ZM119.555 75.1659H136.635C141.395 75.1659 143.495 77.7909 143.495 81.4659C143.495 85.1409 141.395 87.7659 136.635 87.7659H119.555C114.795 87.7659 112.695 85.1409 112.695 81.4659C112.695 77.7909 114.795 75.1659 119.555 75.1659ZM121.48 82.8309H134.71C135.865 82.8309 136.39 82.2709 136.39 81.4659C136.39 80.6609 135.865 80.1009 134.71 80.1009H121.48C120.325 80.1009 119.8 80.6609 119.8 81.4659C119.8 82.2709 120.325 82.8309 121.48 82.8309Z" fill="#FB9504"/>
<path d="M150.005 74.0109C148.22 74.0459 146.96 72.9959 146.96 71.4209C146.96 69.8809 147.87 68.9359 149.235 68.7959C152.35 68.4109 154.17 66.4509 154.17 63.4409V63.0909H149.69C148.045 63.0909 147.135 61.6559 147.135 60.3959C147.135 59.1359 147.905 57.6309 149.69 57.6309H154.03C154.03 55.5659 155.185 54.5859 157.355 54.5859C159.525 54.5859 160.75 55.6009 160.75 57.6309H165.195C166.98 57.6309 167.75 59.1359 167.75 60.3959C167.75 61.6559 166.84 63.0909 165.195 63.0909H160.68V63.5459C160.68 64.0359 160.645 64.5259 160.575 65.0159C165.615 65.1559 168.205 67.6759 168.065 73.5909H161.59C161.87 71.0359 160.61 69.6359 158.755 69.7409C156.725 72.4709 153.4 73.9759 150.005 74.0109ZM166.805 65.1909C166.805 63.5809 167.925 62.4259 169.71 62.4259H171.495V58.2609C171.495 55.9859 173.14 54.7959 174.995 54.7959C176.85 54.7959 178.495 55.9859 178.495 58.2609V74.0109H171.495V67.8859H169.71C167.96 67.8859 166.805 66.8359 166.805 65.1909ZM156.2 75.0959H171.53C176.535 75.0959 178.88 77.6509 178.88 81.4309C178.88 85.2109 176.535 87.7659 171.53 87.7659H156.2C151.16 87.7659 148.85 85.1409 148.85 81.4309C148.85 77.7209 151.16 75.0959 156.2 75.0959ZM157.88 83.0759H169.885C171.18 83.0759 171.775 82.3759 171.775 81.4309C171.775 80.4859 171.18 79.7859 169.885 79.7859H157.88C156.55 79.7859 155.955 80.4859 155.955 81.4309C155.955 82.3759 156.55 83.0759 157.88 83.0759Z" fill="#FB9504"/>
<path d="M194.814 74.0109C193.029 74.0459 191.769 72.9959 191.769 71.4209C191.769 69.8809 192.679 68.9359 194.044 68.7959C197.159 68.4109 198.979 66.4509 198.979 63.4409V63.0909H194.499C192.854 63.0909 191.944 61.6559 191.944 60.3959C191.944 59.1359 192.714 57.6309 194.499 57.6309H198.839C198.839 55.5659 199.994 54.5859 202.164 54.5859C204.334 54.5859 205.559 55.6009 205.559 57.6309H210.004C211.789 57.6309 212.559 59.1359 212.559 60.3959C212.559 61.6559 211.649 63.0909 210.004 63.0909H205.489V63.5459C205.489 64.0359 205.454 64.5259 205.384 65.0159C210.424 65.1559 213.014 67.6759 212.874 73.5909H206.399C206.679 71.0359 205.419 69.6359 203.564 69.7409C201.534 72.4709 198.209 73.9759 194.814 74.0109ZM211.614 65.1909C211.614 63.5809 212.734 62.4259 214.519 62.4259H216.304V58.2609C216.304 55.9859 217.949 54.7959 219.804 54.7959C221.659 54.7959 223.304 55.9859 223.304 58.2609V74.0109H216.304V67.8859H214.519C212.769 67.8859 211.614 66.8359 211.614 65.1909ZM201.009 75.0959H216.339C221.344 75.0959 223.689 77.6509 223.689 81.4309C223.689 85.2109 221.344 87.7659 216.339 87.7659H201.009C195.969 87.7659 193.659 85.1409 193.659 81.4309C193.659 77.7209 195.969 75.0959 201.009 75.0959ZM202.689 83.0759H214.694C215.989 83.0759 216.584 82.3759 216.584 81.4309C216.584 80.4859 215.989 79.7859 214.694 79.7859H202.689C201.359 79.7859 200.764 80.4859 200.764 81.4309C200.764 82.3759 201.359 83.0759 202.689 83.0759Z" fill="#FB9504"/>
<path d="M257.254 67.0459H258.514C260.649 67.0459 261.279 68.6909 261.279 70.0909C261.279 71.5259 260.614 73.1359 258.514 73.1359H257.254V87.6609H250.254V58.2609C250.254 55.9859 251.899 54.7959 253.754 54.7959C255.609 54.7959 257.254 55.9859 257.254 58.2609V67.0459ZM239.964 67.9209C246.054 70.3709 248.714 75.7609 248.084 85.6659H241.364C241.994 80.3809 241.259 76.4959 238.739 74.3609C237.234 79.3309 234.679 82.8659 231.179 85.1059C229.359 86.3659 227.084 86.0859 226.139 84.8609C225.194 83.7759 225.124 81.7459 226.664 80.6259C231.914 76.8809 233.349 71.7359 233.349 61.9709V59.2409C233.349 57.0009 234.994 55.8459 236.849 55.8459C238.634 55.8459 240.279 57.1059 240.279 59.2409V61.9359C240.279 64.0709 240.174 66.0659 239.964 67.9209Z" fill="#FB9504"/>
</g>
<defs>
<filter id="filter0_i_1137_1837" x="6.71484" y="4.58594" width="254.566" height="83.25" filterUnits="userSpaceOnUse" color-interpolation-filters="sRGB">
<feFlood flood-opacity="0" result="BackgroundImageFix"/>
<feBlend mode="normal" in="SourceGraphic" in2="BackgroundImageFix" result="shape"/>
<feColorMatrix in="SourceAlpha" type="matrix" values="0 0 0 0 0 0 0 0 0 0 0 0 0 0 0 0 0 0 127 0" result="hardAlpha"/>
<feOffset dy="-2"/>
<feComposite in2="hardAlpha" operator="arithmetic" k2="-1" k3="1"/>
<feColorMatrix type="matrix" values="0 0 0 0 0 0 0 0 0 0 0 0 0 0 0 0 0 0 0.08 0"/>
<feBlend mode="normal" in2="shape" result="effect1_innerShadow_1137_1837"/>
</filter>
</defs>
</svg>
