<svg width="266" height="100" viewBox="0 0 266 100" fill="none" xmlns="http://www.w3.org/2000/svg">
<g filter="url(#filter0_i_1137_1841)">
<path d="M55.6447 17.0445H56.3797C58.5147 17.0445 59.1447 18.6895 59.1447 20.0895C59.1447 21.5245 58.4797 23.1345 56.3797 23.1345H55.6447V37.6595H48.6447V8.25945C48.6447 5.98445 50.2897 4.79445 52.1447 4.79445C53.9997 4.79445 55.6447 5.98445 55.6447 8.25945V17.0445ZM41.7847 30.7295H45.1797C47.1747 30.7295 47.8747 32.0245 47.8747 33.4595C47.8747 34.9645 47.1397 36.2595 45.1797 36.2595H30.0947C25.6847 36.2595 25.0547 35.3845 25.0547 31.1495V11.0945C25.0547 6.85945 25.6847 6.01945 30.0947 6.01945H44.4797C46.4397 6.01945 47.1747 7.34945 47.1747 8.78445C47.1747 10.2895 46.4047 11.5495 44.5147 11.5495H41.7847V30.7295ZM32.4747 30.7295H35.3447V11.5495H32.4747C31.6697 11.5495 31.5297 11.6895 31.5297 12.4945V29.7845C31.5297 30.5895 31.6697 30.7295 32.4747 30.7295Z" fill="#FB9504"/>
<path d="M87.8097 17.3945H64.6397C61.2447 17.3945 60.1597 16.2745 60.1597 13.5445V9.06445C60.1597 6.33445 61.2447 5.21445 64.6397 5.21445H87.5997C89.5947 5.21445 90.2947 6.33445 90.2947 7.66445C90.2947 8.99445 89.5597 10.0095 87.5997 10.0095H80.8447V12.5995H87.8097C89.7697 12.5995 90.5397 13.6845 90.5397 14.9795C90.5397 16.3095 89.7347 17.3945 87.8097 17.3945ZM67.1247 10.7445V11.8645C67.1247 12.3545 67.4047 12.5995 67.9297 12.5995H74.0197V10.0095H67.9297C67.4047 10.0095 67.1247 10.2195 67.1247 10.7445ZM89.2097 24.3595H61.9797C60.0897 24.3595 59.2147 23.2395 59.2147 21.7695C59.2147 20.3345 60.0547 19.1445 61.9797 19.1445H89.2097C91.1347 19.1445 91.9747 20.3345 91.9747 21.7695C91.9747 23.2395 91.0997 24.3595 89.2097 24.3595ZM79.0247 28.6995C84.7647 28.3845 90.2947 31.0445 91.3797 37.6595H84.2397C83.0847 34.8245 80.1097 33.2145 76.5047 33.6695C73.1797 36.8895 67.1597 38.4645 62.8547 37.8345C60.9647 37.5545 59.7747 36.4345 59.9147 34.6145C60.0547 33.0045 61.4197 32.1645 63.2397 32.3045C67.0897 32.6545 71.0097 30.7295 71.8147 28.1745C72.4097 26.1795 73.8447 25.3745 75.8397 25.4445C77.7297 25.5145 79.0947 26.4945 79.0247 28.5595V28.6995Z" fill="#FB9504"/>
<path d="M95.7197 18.2695V15.0495C95.7197 14.2445 95.8947 13.5095 96.2097 12.8795C94.6347 12.8095 93.7597 11.7945 93.7597 10.3595C93.7597 8.88945 94.6347 7.87445 96.3497 7.87445H101.355C101.46 5.87945 102.825 4.68945 104.925 4.68945C107.025 4.68945 108.355 5.87945 108.46 7.87445H113.465C115.18 7.87445 116.09 8.88945 116.09 10.3595C116.09 11.7945 115.18 12.8095 113.605 12.8795C113.92 13.5095 114.095 14.2445 114.095 15.0495V18.2695C114.095 22.9245 110.56 25.6195 104.925 25.6195C99.2897 25.6195 95.7197 22.9245 95.7197 18.2695ZM125.12 13.5445H126.205C128.34 13.5445 128.97 15.1895 128.97 16.5895C128.97 18.0245 128.305 19.6345 126.205 19.6345H125.12V29.6095H118.12V8.25945C118.12 5.98445 119.765 4.79445 121.62 4.79445C123.475 4.79445 125.12 5.98445 125.12 8.25945V13.5445ZM107.725 17.7095V15.4345C107.725 13.7545 106.64 12.6695 104.925 12.6695C103.175 12.6695 102.09 13.7545 102.09 15.4345V17.7095C102.09 19.3545 103.175 20.5095 104.925 20.5095C106.64 20.5095 107.725 19.3545 107.725 17.7095ZM104.75 32.3045H123.37C125.435 32.3045 126.24 33.5645 126.24 34.9645C126.24 36.3995 125.4 37.6595 123.37 37.6595H101.915C97.9947 37.6595 96.9447 36.2945 96.9447 32.5495V29.8195C96.9447 27.6495 98.5897 26.5645 100.55 26.5645C102.51 26.5645 104.05 27.6845 104.05 29.8195V31.6045C104.05 32.1645 104.225 32.3045 104.75 32.3045Z" fill="#FB9504"/>
<path d="M169.754 17.0445H171.014C173.149 17.0445 173.779 18.6895 173.779 20.0895C173.779 21.5245 173.114 23.1345 171.014 23.1345H169.754V37.6595H162.754V8.25945C162.754 5.98445 164.399 4.79445 166.254 4.79445C168.109 4.79445 169.754 5.98445 169.754 8.25945V17.0445ZM148.124 29.9945H158.239C160.269 29.9945 160.864 31.5695 160.864 32.8995C160.864 34.2645 160.234 35.9095 158.239 35.9095H145.429C141.334 35.9095 140.144 34.4395 140.144 30.5195V9.58945C140.144 7.24445 141.789 6.19445 143.679 6.19445C145.604 6.19445 147.109 7.27945 147.109 9.58945V29.0145C147.109 29.8195 147.319 29.9945 148.124 29.9945Z" fill="#FB9504"/>
<path d="M202.689 15.8895H180.289C176.754 15.8895 175.564 14.4195 175.564 11.6895V8.57445C175.564 6.22945 177.279 5.17945 179.169 5.17945C181.094 5.17945 182.704 6.26445 182.704 8.57445V10.0095C182.704 10.4995 182.914 10.6745 183.719 10.6745H202.689C204.719 10.6745 205.489 11.8295 205.489 13.2295C205.489 14.6645 204.684 15.8895 202.689 15.8895ZM203.879 23.3095H193.974V25.2345H200.344C204.579 25.2345 205.349 26.4245 205.349 30.4845V37.6595H180.429C176.194 37.6595 175.424 36.4345 175.424 32.3745V30.4845C175.424 26.4245 176.194 25.2345 180.429 25.2345H186.834V23.3095H176.929C174.899 23.3095 174.024 22.0145 174.024 20.5445C174.024 19.1095 174.864 17.7445 176.929 17.7445H203.879C205.944 17.7445 206.784 19.1095 206.784 20.5445C206.784 22.0145 205.909 23.3095 203.879 23.3095ZM198.384 32.8295V31.0095C198.384 30.3795 198.209 30.0645 197.509 30.0645H183.264C182.564 30.0645 182.424 30.3795 182.424 31.0095V31.8495C182.424 32.5495 182.564 32.8295 183.264 32.8295H198.384Z" fill="#FB9504"/>
<path d="M240.804 37.6595H233.804V8.25945C233.804 5.98445 235.449 4.79445 237.304 4.79445C239.159 4.79445 240.804 5.98445 240.804 8.25945V37.6595ZM209.899 17.6045V14.2445C209.899 8.15445 214.379 5.38945 220.119 5.38945C225.859 5.38945 230.304 8.15445 230.304 14.2445V17.6045C230.304 23.6945 225.859 26.4595 220.119 26.4595C214.379 26.4595 209.899 23.6945 209.899 17.6045ZM216.759 13.9995V17.8495C216.759 20.1245 218.439 20.9645 220.119 20.9645C221.799 20.9645 223.479 20.1245 223.479 17.8495V13.9995C223.479 11.7595 221.799 10.8845 220.119 10.8845C218.439 10.8845 216.759 11.7595 216.759 13.9995ZM212.034 30.5195H229.569C231.739 30.5195 232.579 32.0595 232.579 33.4945C232.579 34.9645 231.704 36.4345 229.569 36.4345H212.034C209.899 36.4345 209.024 34.9645 209.024 33.4945C209.024 32.0595 209.864 30.5195 212.034 30.5195Z" fill="#FB9504"/>
<path d="M68.0045 75.3745C66.2895 75.3745 64.8545 74.3945 64.6795 72.6795C64.5045 70.9995 65.4145 69.6345 67.1995 69.2495C71.8195 68.2345 76.0545 64.3145 76.7895 58.4345C77.0695 56.2295 78.6095 55.2845 80.4995 55.2845C82.5995 55.2845 84.1045 56.6845 84.0345 58.9945C83.9995 60.0795 83.8245 61.1645 83.5795 62.2145C89.4595 62.3545 95.5145 66.4495 96.1795 75.3745H89.0745C88.4445 70.6495 85.0145 67.7795 80.8495 67.8845C77.6645 72.2945 72.6245 75.3745 68.0045 75.3745ZM67.1295 81.0445H93.8695C96.0395 81.0445 96.8795 82.5845 96.8795 84.0195C96.8795 85.4895 96.0045 86.9595 93.8695 86.9595H67.1295C64.9945 86.9595 64.1195 85.4895 64.1195 84.0195C64.1195 82.5845 64.9595 81.0445 67.1295 81.0445Z" fill="#FB9504"/>
<path d="M127.399 54.7945C129.254 54.7945 130.899 55.9845 130.899 58.2595V87.6595H123.899V58.2595C123.899 55.9845 125.544 54.7945 127.399 54.7945ZM114.659 69.6695H106.399C101.849 69.6695 99.5045 66.6245 99.5045 62.8445V62.7395C99.5045 58.9595 101.849 55.9145 106.399 55.9145H114.659C119.209 55.9145 121.554 58.9595 121.554 62.7395V62.8445C121.554 66.6245 119.209 69.6695 114.659 69.6695ZM106.329 62.7395V62.8795C106.329 63.9645 107.029 64.5595 108.289 64.5595H112.839C114.064 64.5595 114.729 63.9645 114.729 62.8795V62.7395C114.729 61.6545 114.064 61.0245 112.839 61.0245H108.289C107.029 61.0245 106.329 61.6545 106.329 62.7395ZM102.129 71.5945H119.839C122.009 71.5945 122.849 73.1345 122.849 74.5695C122.849 76.0395 121.974 77.5095 119.839 77.5095H114.974V78.8395C114.974 84.8595 110.039 87.9395 105.104 87.9395C102.794 87.9395 101.324 86.8545 101.289 85.1745C101.254 83.6345 102.129 82.6195 103.739 82.4445C105.909 82.1995 107.834 81.0795 107.834 78.8395V77.5095H102.129C99.9945 77.5095 99.1195 76.0395 99.1195 74.5695C99.1195 73.1345 99.9595 71.5945 102.129 71.5945Z" fill="#FB9504"/>
<path d="M141.259 55.8445H162.469C164.429 55.8445 165.164 57.2795 165.164 58.5745C165.164 59.9045 164.394 61.2695 162.469 61.2695H143.849C143.149 61.2695 142.799 61.5495 142.799 62.1795V63.5445H162.259C164.219 63.5445 164.954 64.9095 164.954 66.1695C164.954 67.4645 164.184 68.7945 162.259 68.7945H142.799V70.1245C142.799 70.8245 143.149 71.0695 143.849 71.0695H163.029C164.989 71.0695 165.724 72.4695 165.724 73.7645C165.724 75.0945 164.954 76.4595 163.029 76.4595H141.259C137.199 76.4595 135.694 74.7795 135.694 70.9995V61.3045C135.694 57.5245 137.199 55.8445 141.259 55.8445ZM137.129 81.0445H163.869C166.039 81.0445 166.879 82.5845 166.879 84.0195C166.879 85.4895 166.004 86.9595 163.869 86.9595H137.129C134.994 86.9595 134.119 85.4895 134.119 84.0195C134.119 82.5845 134.959 81.0445 137.129 81.0445Z" fill="#FB9504"/>
<path d="M189.069 70.3695H199.219C201.039 70.3695 201.879 71.3845 201.879 72.8195C201.879 74.2895 201.004 75.2345 199.219 75.2345H171.779C169.994 75.2345 169.119 74.2895 169.119 72.8195C169.119 71.3845 169.959 70.3695 171.779 70.3695H181.929V68.9345H178.569C173.214 68.9345 171.324 66.2745 171.324 63.2645C171.324 62.8095 171.394 62.3895 171.534 61.9695C170.309 61.8295 169.399 60.9195 169.399 59.5545C169.399 58.0845 170.379 57.1395 171.814 57.1395H181.649C181.719 55.4245 183.189 54.1645 185.499 54.1645C187.809 54.1645 189.279 55.4245 189.349 57.1395H199.149C200.619 57.1395 201.599 58.0845 201.599 59.5545C201.599 60.9195 200.724 61.8645 199.429 61.9695C199.569 62.3895 199.639 62.8095 199.639 63.2645C199.639 66.2745 197.784 68.9345 192.394 68.9345H189.069V70.3695ZM178.324 63.0195C178.324 63.8945 178.919 64.4895 179.934 64.4895H191.064C192.044 64.4895 192.639 63.8945 192.639 63.0195C192.639 62.1445 191.974 61.5845 190.994 61.5845H180.004C178.989 61.5845 178.324 62.1445 178.324 63.0195ZM175.034 76.4595H195.929C199.674 76.4595 200.444 77.6495 200.444 80.9745V87.6595H175.034C171.289 87.6595 170.519 86.4345 170.519 83.1095V80.9745C170.519 77.6495 171.289 76.4595 175.034 76.4595ZM178.359 83.0745H193.479V81.7445C193.479 81.3595 193.304 81.0445 192.604 81.0445H178.359C177.659 81.0445 177.519 81.3595 177.519 81.7445V82.3395C177.519 82.7945 177.659 83.0745 178.359 83.0745Z" fill="#FB9504"/>
</g>
<defs>
<filter id="filter0_i_1137_1841" x="25.0547" y="4.68945" width="215.75" height="83.25" filterUnits="userSpaceOnUse" color-interpolation-filters="sRGB">
<feFlood flood-opacity="0" result="BackgroundImageFix"/>
<feBlend mode="normal" in="SourceGraphic" in2="BackgroundImageFix" result="shape"/>
<feColorMatrix in="SourceAlpha" type="matrix" values="0 0 0 0 0 0 0 0 0 0 0 0 0 0 0 0 0 0 127 0" result="hardAlpha"/>
<feOffset dy="-2"/>
<feComposite in2="hardAlpha" operator="arithmetic" k2="-1" k3="1"/>
<feColorMatrix type="matrix" values="0 0 0 0 0 0 0 0 0 0 0 0 0 0 0 0 0 0 0.08 0"/>
<feBlend mode="normal" in2="shape" result="effect1_innerShadow_1137_1841"/>
</filter>
</defs>
</svg>
