<svg width="266" height="100" viewBox="0 0 266 100" fill="none" xmlns="http://www.w3.org/2000/svg">
<g filter="url(#filter0_i_1137_1833)">
<path d="M82.6988 4.79438C84.5538 4.79438 85.7438 5.98438 85.7438 7.80438V37.6594H79.6188V23.3094H77.8688V37.6594H71.7438V7.80438C71.7438 5.98438 72.9688 4.79438 74.8238 4.79438C76.6788 4.79438 77.8688 5.98438 77.8688 7.80438V17.4994H79.6188V7.80438C79.6188 5.98438 80.8438 4.79438 82.6988 4.79438ZM59.2138 5.94938H64.4638C68.7688 5.94938 69.6088 7.31438 69.6088 11.7244V36.3294H59.2138C54.9088 36.3294 54.0688 34.9644 54.0688 30.5544V11.7244C54.0688 7.31438 54.9088 5.94938 59.2138 5.94938ZM61.4538 31.0444H63.3788V12.3894C63.3788 11.6894 63.2038 11.2344 62.4338 11.2344H61.2088C60.4388 11.2344 60.2988 11.6894 60.2988 12.3894V29.8544C60.2988 30.6244 60.5438 31.0444 61.4538 31.0444Z" fill="#FB9504"/>
<path d="M120.219 21.7344H113.219V8.25938C113.219 5.98438 114.864 4.79438 116.719 4.79438C118.574 4.79438 120.219 5.98438 120.219 8.25938V21.7344ZM89.3488 13.8944V12.7044C89.3488 7.62937 93.5488 5.00438 99.2888 5.00438C105.029 5.00438 109.264 7.59438 109.264 12.7044V13.8944C109.264 19.0044 105.029 21.5944 99.3238 21.5944C93.5838 21.5944 89.3488 19.0044 89.3488 13.8944ZM96.1738 12.7744V13.8244C96.1738 15.4694 97.5388 16.4494 99.2888 16.4494C101.039 16.4494 102.474 15.4694 102.474 13.8244V12.7744C102.474 11.1294 101.039 10.1144 99.2888 10.1494C97.5388 10.1844 96.1738 11.1644 96.1738 12.7744ZM119.169 37.6594H95.4738C92.2888 37.6594 90.5738 35.5944 90.5738 33.1444V32.3044C90.5738 29.9244 92.2888 28.3144 95.4738 28.3144H113.149V27.4744C113.149 27.0544 113.044 26.8794 112.589 26.8794H92.8838C91.5188 26.8794 90.9588 25.8994 90.9588 24.8494C90.9588 23.8694 91.5538 22.7844 92.8838 22.7844H116.089C119.169 22.7844 120.254 23.6944 120.254 26.3894V32.0594H98.7288C98.2388 32.0594 97.9938 32.3394 97.9938 32.6894V32.8644C97.9938 33.1794 98.2388 33.4594 98.7288 33.4594H119.169C120.569 33.4594 121.164 34.5794 121.164 35.6294C121.164 36.6094 120.604 37.6594 119.169 37.6594Z" fill="#FB9504"/>
<path d="M136.713 14.2444C141.823 14.6644 145.043 13.6844 146.128 11.7244H137.518C135.418 11.7244 134.578 10.7444 134.578 9.30938C134.578 7.90938 135.383 6.89438 137.518 6.89438H145.953C146.128 5.31938 147.528 4.23438 149.663 4.23438C151.798 4.23438 153.163 5.31938 153.373 6.89438H161.738C163.873 6.89438 164.678 7.90938 164.678 9.30938C164.678 10.7444 163.838 11.7244 161.738 11.7244H152.918C152.848 12.1444 152.743 12.5644 152.603 12.9494C158.938 12.1094 164.468 13.7544 165.728 19.5294H158.588C157.083 17.1494 153.478 16.3794 148.718 17.1844C145.953 18.7944 142.068 19.6694 137.518 19.5294C135.593 19.4944 134.018 18.6894 133.948 16.7994C133.878 15.3994 134.928 14.1044 136.713 14.2444ZM163.278 25.5844H153.198V27.2644H159.533C163.768 27.2644 164.538 28.4894 164.538 32.5494V37.6594H157.538V33.1444C157.538 32.5844 157.328 32.3744 156.768 32.3744H137.553C135.663 32.3744 134.613 31.3594 134.613 29.7844C134.613 28.2094 135.663 27.2644 137.553 27.2644H146.058V25.5844H135.978C134.123 25.5844 133.248 24.5344 133.248 23.0644C133.248 21.6294 134.088 20.5444 135.978 20.5444H163.278C165.168 20.5444 166.008 21.6294 166.008 23.0644C166.008 24.5344 165.133 25.5844 163.278 25.5844Z" fill="#FB9504"/>
<path d="M189.703 4.79438C191.558 4.79438 192.678 5.98438 192.678 7.73438V37.6594H186.728V22.0144H184.453C182.528 22.0144 181.338 20.8244 181.338 19.0394C181.338 17.2894 182.493 16.0294 184.453 16.0294H186.728V7.73438C186.728 5.98438 187.848 4.79438 189.703 4.79438ZM197.508 4.79438C199.363 4.79438 200.553 5.98438 200.553 7.80438V37.6594H194.428V7.80438C194.428 5.98438 195.653 4.79438 197.508 4.79438ZM179.623 21.8394C182.808 23.4844 185.923 26.7744 185.398 35.5594H179.168C179.798 31.9894 179.273 29.7844 178.118 28.4544C176.438 33.2144 173.708 36.0494 170.768 36.0494C169.123 36.0494 167.793 34.9644 167.793 33.3544C167.793 32.4094 168.248 31.4994 169.333 30.5894C172.343 28.0344 173.638 23.6944 173.638 16.8694V12.1094H170.908C168.808 12.1094 167.933 10.6394 167.933 9.20438C167.933 7.80438 168.773 6.26438 170.908 6.26438H182.563C184.698 6.26438 185.468 7.80438 185.468 9.20438C185.468 10.6394 184.663 12.1094 182.563 12.1094H179.938V16.7644C179.938 18.5494 179.833 20.2644 179.623 21.8394Z" fill="#FB9504"/>
<path d="M211.473 28.4194H204.333V9.09938C204.333 6.82438 206.048 5.63438 207.903 5.63438C209.723 5.63438 211.473 6.85938 211.473 9.09938V28.4194ZM204.158 33.5994C204.158 31.4294 205.558 30.0644 207.903 30.0644C210.248 30.0644 211.648 31.4644 211.648 33.5994C211.648 35.7344 210.248 37.1344 207.903 37.1344C205.558 37.1344 204.158 35.7694 204.158 33.5994Z" fill="#FB9504"/>
<path d="M46.0202 54.7944C47.8752 54.7944 48.9952 55.9844 48.9952 57.7344V87.6594H43.0452V73.8344C41.1202 73.7994 39.9302 72.5744 39.9302 70.7894C39.9302 69.0394 41.0852 67.7094 43.0452 67.6744V57.7344C43.0452 55.9844 44.1652 54.7944 46.0202 54.7944ZM53.4752 54.7944C55.3302 54.7944 56.5202 55.9844 56.5202 57.8044V87.6594H50.3952V57.8044C50.3952 55.9844 51.6202 54.7944 53.4752 54.7944ZM38.4602 61.7594H27.3652C25.6502 61.7594 24.6702 60.2894 24.6702 58.9244C24.6702 57.5594 25.5102 56.0194 27.3652 56.0194H38.4602C40.3152 56.0194 41.1552 57.5594 41.1552 58.9244C41.1552 60.2894 40.1752 61.7594 38.4602 61.7594ZM39.3702 65.7844V80.7644C40.9802 80.9394 41.6802 82.1994 41.6802 83.4594C41.6802 84.8244 40.7352 86.2594 39.0202 86.2594H26.9452C25.2302 86.2594 24.2852 84.8244 24.2852 83.4594C24.2852 82.1994 24.9852 80.9394 26.5952 80.7644V65.7844C26.5952 63.7194 27.4002 62.7044 29.4302 62.7044C31.4252 62.7044 32.1952 63.7544 32.1952 65.7844V80.7644H33.8052V65.7844C33.8052 63.7194 34.5402 62.7044 36.5702 62.7044C38.5652 62.7044 39.3702 63.7544 39.3702 65.7844Z" fill="#FB9504"/>
<path d="M63.1002 75.3744C61.3852 75.3744 59.9502 74.3944 59.7752 72.6794C59.6002 70.9994 60.5102 69.6344 62.2952 69.2494C66.9152 68.2344 71.1502 64.3144 71.8852 58.4344C72.1652 56.2294 73.7052 55.2844 75.5952 55.2844C77.6952 55.2844 79.2002 56.6844 79.1302 58.9944C79.0952 60.0794 78.9202 61.1644 78.6752 62.2144C84.5552 62.3544 90.6102 66.4494 91.2752 75.3744H84.1702C83.5402 70.6494 80.1102 67.7794 75.9452 67.8844C72.7602 72.2944 67.7202 75.3744 63.1002 75.3744ZM62.2252 81.0444H88.9652C91.1352 81.0444 91.9752 82.5844 91.9752 84.0194C91.9752 85.4894 91.1002 86.9594 88.9652 86.9594H62.2252C60.0902 86.9594 59.2152 85.4894 59.2152 84.0194C59.2152 82.5844 60.0552 81.0444 62.2252 81.0444Z" fill="#FB9504"/>
<path d="M124.945 67.0444H126.205C128.34 67.0444 128.97 68.6894 128.97 70.0894C128.97 71.5244 128.305 73.1344 126.205 73.1344H124.945V87.6594H117.945V58.2594C117.945 55.9844 119.59 54.7944 121.445 54.7944C123.3 54.7944 124.945 55.9844 124.945 58.2594V67.0444ZM103.14 80.4144H113.605C115.635 80.4144 116.23 82.0244 116.23 83.3544C116.23 84.7194 115.6 86.2594 113.605 86.2594H100.55C96.1402 86.2594 95.3002 85.1744 95.3002 80.9394V61.3044C95.3002 57.0694 96.1402 56.0194 100.55 56.0194H112.17C114.2 56.0194 114.795 57.6294 114.795 58.9594C114.795 60.3244 114.165 61.9344 112.17 61.9344H103.14C102.51 61.9344 102.23 62.1444 102.23 62.9494V68.0594H111.33C113.36 68.0594 114.13 69.4944 114.13 70.9644C114.13 72.3994 113.325 73.8344 111.33 73.8344H102.23V79.3994C102.23 80.2044 102.51 80.4144 103.14 80.4144Z" fill="#FB9504"/>
<path d="M170.805 58.2594V71.7344H163.805V58.2594C163.805 55.9844 165.45 54.7944 167.305 54.7944C169.16 54.7944 170.805 55.9844 170.805 58.2594ZM159.815 58.6794V71.4544H144.555C141.195 71.4544 140.04 70.0544 140.04 67.1144V58.6794C140.04 56.6494 141.3 55.5994 143.33 55.5994C145.255 55.5994 146.445 56.6144 146.515 58.5044H153.41C153.48 56.5794 154.705 55.5994 156.63 55.5994C158.66 55.5994 159.815 56.6844 159.815 58.6794ZM147.495 66.6594H153.375V63.1244H146.515V65.7494C146.515 66.5544 146.69 66.6594 147.495 66.6594ZM149.315 83.5294H169.755C171.155 83.5294 171.75 84.6144 171.75 85.6644C171.75 86.6444 171.19 87.6594 169.755 87.6594H146.06C142.875 87.6594 141.16 85.6294 141.16 83.1794V82.3744C141.16 80.0294 142.875 78.4194 146.06 78.4194H163.735V77.6144C163.735 77.1944 163.63 77.0194 163.175 77.0194H143.47C142.105 77.0194 141.545 76.0394 141.545 74.9894C141.545 74.0094 142.14 72.9594 143.47 72.9594H166.71C169.755 72.9594 170.84 73.8694 170.84 76.5644V82.1294H149.315C148.825 82.1294 148.58 82.4094 148.58 82.7244V82.8994C148.58 83.2144 148.825 83.5294 149.315 83.5294Z" fill="#FB9504"/>
<path d="M205.805 87.6594H198.805V58.2594C198.805 55.9844 200.45 54.7944 202.305 54.7944C204.16 54.7944 205.805 55.9844 205.805 58.2594V87.6594ZM193.94 86.1894H180.85C176.615 86.1894 174.97 84.6494 174.97 80.4144V73.6944C174.97 69.4594 176.615 67.9894 180.85 67.9894H187.325V62.8794C187.325 62.4244 187.185 61.9344 186.45 61.9344H178.26C176.16 61.9344 175.285 60.4644 175.285 59.0294C175.285 57.6294 176.125 56.0894 178.26 56.0894H188.375C193.065 56.0894 194.325 57.4194 194.325 61.2694V73.6944H183.545C182.355 73.6944 181.97 73.9744 181.97 75.1644V78.9794C181.97 80.1694 182.355 80.4494 183.545 80.4494H193.94C196.075 80.4494 196.915 81.9194 196.915 83.3194C196.915 84.7544 196.04 86.1894 193.94 86.1894Z" fill="#FB9504"/>
<path d="M237.305 54.7944C239.16 54.7944 240.805 55.9844 240.805 58.2594V87.6594H233.805V58.2594C233.805 55.9844 235.45 54.7944 237.305 54.7944ZM227.715 62.1094H222.99V66.9044C222.99 68.1294 222.92 69.2844 222.78 70.4044C227.75 72.0844 230.97 75.9344 230.55 85.6994H223.83C224.355 80.8694 223.41 78.0344 221.275 76.5994C218.825 82.7944 214.345 85.9444 211.58 85.9444C209.515 85.9444 208.36 84.6844 208.36 83.1094C208.36 81.9544 208.85 81.1844 209.9 80.4844C213.995 77.8594 216.235 73.5544 216.235 65.8544V62.1094H211.51C209.41 62.1094 208.535 60.5694 208.535 59.1344C208.535 57.7344 209.375 56.1244 211.51 56.1244H227.715C229.85 56.1244 230.62 57.7344 230.62 59.1344C230.62 60.5694 229.815 62.1094 227.715 62.1094Z" fill="#FB9504"/>
</g>
<defs>
<filter id="filter0_i_1137_1833" x="24.2852" y="4.23438" width="216.52" height="83.4258" filterUnits="userSpaceOnUse" color-interpolation-filters="sRGB">
<feFlood flood-opacity="0" result="BackgroundImageFix"/>
<feBlend mode="normal" in="SourceGraphic" in2="BackgroundImageFix" result="shape"/>
<feColorMatrix in="SourceAlpha" type="matrix" values="0 0 0 0 0 0 0 0 0 0 0 0 0 0 0 0 0 0 127 0" result="hardAlpha"/>
<feOffset dy="-2"/>
<feComposite in2="hardAlpha" operator="arithmetic" k2="-1" k3="1"/>
<feColorMatrix type="matrix" values="0 0 0 0 0 0 0 0 0 0 0 0 0 0 0 0 0 0 0.08 0"/>
<feBlend mode="normal" in2="shape" result="effect1_innerShadow_1137_1833"/>
</filter>
</defs>
</svg>
