<svg width="266" height="100" viewBox="0 0 266 100" fill="none" xmlns="http://www.w3.org/2000/svg">
<g filter="url(#filter0_i_1137_1839)">
<path d="M95.8999 8.25992V29.6099H88.8999V8.25992C88.8999 5.98492 90.5449 4.79492 92.3999 4.79492C94.2549 4.79492 95.8999 5.98492 95.8999 8.25992ZM84.9099 8.74992V23.9049H69.7549C66.2549 23.9049 65.1349 22.5049 65.1349 19.4249V8.74992C65.1349 6.64992 66.4299 5.59992 68.4599 5.59992C70.4549 5.59992 71.6449 6.68492 71.6449 8.74992V9.76492H78.4699V8.74992C78.4699 6.64992 79.6949 5.59992 81.6899 5.59992C83.7199 5.59992 84.9099 6.68492 84.9099 8.74992ZM78.4699 18.8649V14.6299H71.6449V17.9549C71.6449 18.7599 71.8199 18.8649 72.6249 18.8649H78.4699ZM74.7949 32.2699H93.9399C96.0399 32.2699 96.8449 33.5299 96.8449 34.9299C96.8449 36.3649 96.0049 37.6599 93.9399 37.6599H71.8199C67.8999 37.6599 66.8499 36.2949 66.8499 32.5499V29.0499C66.8499 26.7749 68.4949 25.6899 70.4549 25.6899C72.4149 25.6899 73.9549 26.8099 73.9549 29.0499V31.4999C73.9549 32.1649 74.1299 32.2699 74.7949 32.2699Z" fill="#FB9504"/>
<path d="M104.545 5.14492H128.275C129.57 5.14492 130.305 5.98492 130.305 7.13992C130.305 8.32992 129.535 9.13492 128.275 9.13492H108.185C107.8 9.13492 107.555 9.34492 107.555 9.72992V10.3599H128.31C129.5 10.3599 130.095 11.0949 130.095 12.1099C130.095 13.1249 129.465 13.8249 128.31 13.8249H107.555V14.4549C107.555 14.8749 107.8 15.0849 108.185 15.0849H128.695C129.99 15.0849 130.725 15.8549 130.725 17.0099C130.725 18.2349 129.955 18.9349 128.695 18.9349H104.545C101.815 18.9349 100.555 17.7799 100.555 15.2949V8.74992C100.555 6.29992 101.815 5.14492 104.545 5.14492ZM101.78 20.1949H129.22C131.04 20.1949 131.88 21.2099 131.88 22.6449C131.88 24.1149 131.005 25.0599 129.22 25.0599H101.78C99.9949 25.0599 99.1199 24.1149 99.1199 22.6449C99.1199 21.2099 99.9599 20.1949 101.78 20.1949ZM130.445 37.6599H105.035C101.29 37.6599 100.52 36.4349 100.52 33.1099V30.9749C100.52 27.6499 101.29 26.4599 105.035 26.4599H125.93C129.675 26.4599 130.445 27.6499 130.445 30.9749V37.6599ZM107.52 31.7449V32.3399C107.52 32.7949 107.66 33.0749 108.36 33.0749H123.48V31.7449C123.48 31.3599 123.305 31.0449 122.605 31.0449H108.36C107.66 31.0449 107.52 31.3599 107.52 31.7449Z" fill="#FB9504"/>
<path d="M144.76 22.2949C139.09 22.2949 135.03 19.6699 135.03 14.5949V12.8799C135.03 7.83992 139.055 5.17992 144.725 5.17992C149.73 5.17992 153.44 7.20992 154.245 11.1999H158.9V8.25992C158.9 5.98492 160.545 4.79492 162.4 4.79492C164.255 4.79492 165.9 5.98492 165.9 8.25992V22.6099H158.9V16.6599H154.175C153.195 20.3699 149.59 22.2949 144.76 22.2949ZM141.75 12.8799V14.5949C141.75 16.2049 143.045 17.1849 144.725 17.1849C146.37 17.1849 147.7 16.2049 147.7 14.5949V12.8799C147.7 11.2699 146.37 10.2549 144.725 10.2899C143.045 10.3249 141.75 11.3049 141.75 12.8799ZM162.68 28.9099C166.215 29.6449 168.28 32.1649 168.07 37.6599H161.91C162.295 35.8049 162.05 34.4749 161.07 33.7749C159.53 36.3649 157.115 37.9399 154.525 38.0799C152.81 38.2199 151.69 37.4149 151.445 36.2249C151.2 34.8599 151.585 33.5999 153.125 33.0749C155.47 32.2699 156.485 30.2399 156.59 26.5999C156.66 24.3249 157.99 23.4499 159.775 23.4499C161.595 23.4499 162.82 24.4999 162.82 26.7749C162.82 27.5099 162.785 28.2449 162.68 28.9099ZM148.12 23.5199C149.905 23.5199 150.885 24.2899 150.885 26.5999V37.6599H140.035C136.64 37.6599 135.87 36.5049 135.87 33.2849V26.5999C135.87 24.2549 136.99 23.5199 138.74 23.5199C140.42 23.5199 141.47 24.2199 141.54 26.3549H145.32C145.39 24.2199 146.44 23.5199 148.12 23.5199ZM142.275 33.3899H145.32V30.5549H141.54V32.6199C141.54 33.2849 141.645 33.3899 142.275 33.3899Z" fill="#FB9504"/>
<path d="M178.885 11.8999H197.715C199.745 11.8999 200.515 13.2299 200.515 14.6299C200.515 16.0649 199.71 17.4649 197.715 17.4649H175.56C171.92 17.4649 170.73 15.9949 170.73 13.0199V8.57492C170.73 6.22992 172.445 5.17992 174.335 5.17992C176.26 5.17992 177.87 6.26492 177.87 8.57492V11.1649C177.87 11.7249 178.08 11.8999 178.885 11.8999ZM172.06 19.4949H198.94C201.04 19.4949 201.88 20.9299 201.88 22.3649C201.88 23.8349 201.005 25.2349 198.94 25.2349H172.06C169.995 25.2349 169.12 23.8349 169.12 22.3649C169.12 20.9299 169.96 19.4949 172.06 19.4949ZM197.855 37.6599H175.875C171.92 37.6599 170.87 36.3649 170.87 32.5849V29.8899C170.87 27.5099 172.55 26.6349 174.51 26.6349C176.47 26.6349 178.045 27.5449 178.045 29.8899V31.3599C178.045 32.1299 178.22 32.2349 178.99 32.2349H197.855C199.99 32.2349 200.795 33.5299 200.795 34.9299C200.795 36.3649 199.955 37.6599 197.855 37.6599Z" fill="#FB9504"/>
<path d="M35.7725 66.7649V76.3199C35.7725 79.6099 38.1175 81.2549 40.6375 81.2549C42.2475 81.2549 43.4025 81.0099 44.3475 80.5899C44.8725 80.3449 45.5025 79.9599 46.1675 79.8549C47.4275 79.6449 48.4775 80.0299 49.1775 81.1849C50.0525 82.6199 49.4925 84.1949 48.2675 85.1749C46.3425 86.7499 43.3325 87.4499 40.6375 87.4499C34.5825 87.4499 28.5625 84.3699 28.5625 76.6349V66.4499C28.5625 58.7149 34.5825 55.6349 40.6375 55.6349C43.7525 55.6349 46.1675 56.3699 47.5325 57.3499C48.9675 58.3649 49.6675 60.0449 48.8275 61.5149C48.1275 62.7399 46.8325 63.2299 45.6425 63.0199C44.8375 62.8799 44.2425 62.4949 43.7175 62.2849C42.8775 61.9699 42.0725 61.8299 40.6375 61.8299C38.1175 61.8299 35.7725 63.4749 35.7725 66.7649Z" fill="#FB9504"/>
<path d="M59.083 66.7649V76.3199C59.083 79.6099 61.428 81.2549 63.948 81.2549C65.558 81.2549 66.713 81.0099 67.658 80.5899C68.183 80.3449 68.813 79.9599 69.478 79.8549C70.738 79.6449 71.788 80.0299 72.488 81.1849C73.363 82.6199 72.803 84.1949 71.578 85.1749C69.653 86.7499 66.643 87.4499 63.948 87.4499C57.893 87.4499 51.873 84.3699 51.873 76.6349V66.4499C51.873 58.7149 57.893 55.6349 63.948 55.6349C67.063 55.6349 69.478 56.3699 70.843 57.3499C72.278 58.3649 72.978 60.0449 72.138 61.5149C71.438 62.7399 70.143 63.2299 68.953 63.0199C68.148 62.8799 67.553 62.4949 67.028 62.2849C66.188 61.9699 65.383 61.8299 63.948 61.8299C61.428 61.8299 59.083 63.4749 59.083 66.7649Z" fill="#FB9504"/>
<path d="M89.4286 86.8899H82.1486V62.3199H76.7936C74.7636 62.3199 73.9586 60.6399 73.9586 59.2049C73.9586 57.7699 74.7286 56.1949 76.7936 56.1949H94.7836C96.8486 56.1949 97.6186 57.7699 97.6186 59.2049C97.6186 60.6399 96.8136 62.3199 94.7836 62.3199H89.4286V86.8899Z" fill="#FB9504"/>
<path d="M120.983 55.8099C122.908 56.2649 124.028 58.1549 123.258 60.4649L114.508 86.8899H107.438L98.5127 60.3949C97.7427 58.1549 99.0727 56.2649 100.998 55.8099C102.958 55.3549 105.093 56.0199 105.723 58.2949L111.113 77.4749L116.433 58.2599C117.063 56.0199 119.023 55.3549 120.983 55.8099Z" fill="#FB9504"/>
<path d="M161.137 66.5899H159.562V72.9599H153.437V57.8049C153.437 55.9849 154.662 54.7949 156.517 54.7949C158.372 54.7949 159.562 55.9849 159.562 57.8049V61.3049H161.137V57.8049C161.137 55.9849 162.362 54.7949 164.217 54.7949C166.072 54.7949 167.262 55.9849 167.262 57.8049V72.9599H161.137V66.5899ZM151.722 59.9049V63.0549C151.722 70.2999 145.597 73.6599 137.722 73.0999C136.252 72.9949 135.097 72.1199 135.132 70.5799C135.167 69.0049 136.392 68.2699 137.827 68.3049C141.327 68.5149 143.847 67.8149 145.107 66.2399C144.337 66.5549 143.427 66.6949 142.762 66.6949L137.897 66.7299C136.147 66.7299 135.377 65.6799 135.377 64.4199C135.377 63.1949 136.112 62.1799 137.897 62.1799H146.052V61.3049C146.052 60.8499 145.842 60.6749 145.387 60.6749H138.247C136.497 60.6749 135.727 59.5199 135.727 58.2599C135.727 57.0349 136.462 55.9149 138.247 55.9149H147.452C150.742 55.9149 151.722 57.1399 151.722 59.9049ZM163.832 73.7999C165.862 73.7999 167.297 74.8149 167.297 77.0899V87.6599H142.062C138.212 87.6599 137.162 86.2949 137.162 82.7599V77.0899C137.162 74.7799 138.667 73.7999 140.697 73.7999C142.587 73.7999 143.952 74.6749 144.127 76.5999H160.332C160.507 74.6399 161.942 73.7999 163.832 73.7999ZM145.037 83.1099H160.297V80.9399H144.162V82.3049C144.162 83.0049 144.337 83.1099 145.037 83.1099Z" fill="#FB9504"/>
<path d="M173.842 75.3749C172.127 75.3749 170.692 74.3949 170.517 72.6799C170.342 70.9999 171.252 69.6349 173.037 69.2499C177.657 68.2349 181.892 64.3149 182.627 58.4349C182.907 56.2299 184.447 55.2849 186.337 55.2849C188.437 55.2849 189.942 56.6849 189.872 58.9949C189.837 60.0799 189.662 61.1649 189.417 62.2149C195.297 62.3549 201.352 66.4499 202.017 75.3749H194.912C194.282 70.6499 190.852 67.7799 186.687 67.8849C183.502 72.2949 178.462 75.3749 173.842 75.3749ZM172.967 81.0449H199.707C201.877 81.0449 202.717 82.5849 202.717 84.0199C202.717 85.4899 201.842 86.9599 199.707 86.9599H172.967C170.832 86.9599 169.957 85.4899 169.957 84.0199C169.957 82.5849 170.797 81.0449 172.967 81.0449Z" fill="#FB9504"/>
<path d="M236.737 58.2599V71.7349H229.737V58.2599C229.737 55.9849 231.382 54.7949 233.237 54.7949C235.092 54.7949 236.737 55.9849 236.737 58.2599ZM225.747 58.6799V71.4549H210.487C207.127 71.4549 205.972 70.0549 205.972 67.1149V58.6799C205.972 56.6499 207.232 55.5999 209.262 55.5999C211.187 55.5999 212.377 56.6149 212.447 58.5049H219.342C219.412 56.5799 220.637 55.5999 222.562 55.5999C224.592 55.5999 225.747 56.6849 225.747 58.6799ZM213.427 66.6599H219.307V63.1249H212.447V65.7499C212.447 66.5549 212.622 66.6599 213.427 66.6599ZM215.247 83.5299H235.687C237.087 83.5299 237.682 84.6149 237.682 85.6649C237.682 86.6449 237.122 87.6599 235.687 87.6599H211.992C208.807 87.6599 207.092 85.6299 207.092 83.1799V82.3749C207.092 80.0299 208.807 78.4199 211.992 78.4199H229.667V77.6149C229.667 77.1949 229.562 77.0199 229.107 77.0199H209.402C208.037 77.0199 207.477 76.0399 207.477 74.9899C207.477 74.0099 208.072 72.9599 209.402 72.9599H232.642C235.687 72.9599 236.772 73.8699 236.772 76.5649V82.1299H215.247C214.757 82.1299 214.512 82.4099 214.512 82.7249V82.8999C214.512 83.2149 214.757 83.5299 215.247 83.5299Z" fill="#FB9504"/>
</g>
<defs>
<filter id="filter0_i_1137_1839" x="28.5625" y="4.79492" width="209.121" height="82.8652" filterUnits="userSpaceOnUse" color-interpolation-filters="sRGB">
<feFlood flood-opacity="0" result="BackgroundImageFix"/>
<feBlend mode="normal" in="SourceGraphic" in2="BackgroundImageFix" result="shape"/>
<feColorMatrix in="SourceAlpha" type="matrix" values="0 0 0 0 0 0 0 0 0 0 0 0 0 0 0 0 0 0 127 0" result="hardAlpha"/>
<feOffset dy="-2"/>
<feComposite in2="hardAlpha" operator="arithmetic" k2="-1" k3="1"/>
<feColorMatrix type="matrix" values="0 0 0 0 0 0 0 0 0 0 0 0 0 0 0 0 0 0 0.08 0"/>
<feBlend mode="normal" in2="shape" result="effect1_innerShadow_1137_1839"/>
</filter>
</defs>
</svg>
