<svg width="266" height="100" viewBox="0 0 266 100" fill="none" xmlns="http://www.w3.org/2000/svg">
<g filter="url(#filter0_i_1137_1831)">
<path d="M47.2103 10.8506H28.9053C26.6303 10.8506 25.6853 9.66063 25.6853 8.05063C25.6853 6.54563 26.5953 5.28563 28.9053 5.28563H50.9203C53.7903 5.28563 54.9803 6.58063 54.9803 9.03063V10.4656C54.9803 13.5106 54.7353 15.5056 54.3503 16.7306H47.4553C47.8053 15.5056 48.0853 14.2806 48.0853 12.2156V11.6206C48.0853 10.9906 47.8403 10.8506 47.2103 10.8506ZM41.8903 18.0956H54.0703C56.1353 18.0956 56.9753 19.4606 56.9753 20.8956C56.9753 22.3656 56.1003 23.6606 54.0703 23.6606H27.1203C25.0903 23.6606 24.2153 22.3656 24.2153 20.8956C24.2153 19.4606 25.0553 18.0956 27.1203 18.0956H34.7503V16.0656C34.7503 13.7906 36.4653 13.0906 38.3203 13.0906C40.1403 13.0906 41.8903 13.8256 41.8903 16.0656V18.0956ZM32.0553 25.1656H49.1353C53.8953 25.1656 55.9953 27.7906 55.9953 31.4656C55.9953 35.1406 53.8953 37.7656 49.1353 37.7656H32.0553C27.2953 37.7656 25.1953 35.1406 25.1953 31.4656C25.1953 27.7906 27.2953 25.1656 32.0553 25.1656ZM33.9803 32.8306H47.2103C48.3653 32.8306 48.8903 32.2706 48.8903 31.4656C48.8903 30.6606 48.3653 30.1006 47.2103 30.1006H33.9803C32.8253 30.1006 32.3003 30.6606 32.3003 31.4656C32.3003 32.2706 32.8253 32.8306 33.9803 32.8306Z" fill="#FB9504"/>
<path d="M87.8103 11.7956H63.3803C61.2803 11.7956 60.4403 10.3256 60.4403 8.89062C60.4403 7.49063 61.2453 5.95063 63.3803 5.95063H87.8103C89.9453 5.95063 90.7503 7.49063 90.7503 8.89062C90.7503 10.3256 89.9103 11.7956 87.8103 11.7956ZM79.1653 31.2206H89.0353C91.1353 31.2206 91.9753 32.6556 91.9753 34.0906C91.9753 35.5956 91.1003 36.9606 89.0353 36.9606H62.1553C60.0903 36.9606 59.2153 35.5956 59.2153 34.0906C59.2153 32.6556 60.0553 31.2206 62.1553 31.2206H72.0253V25.2356H62.9603C60.8603 25.2356 60.0203 23.8706 60.0203 22.4356C60.0203 21.0356 60.8253 19.6706 62.9603 19.6706H65.3403V16.6256C65.3403 14.1406 66.8103 13.0906 68.9453 13.0906C71.0453 13.0906 72.4803 14.1756 72.4803 16.6256V19.6706H78.7103V16.6256C78.7103 14.1406 80.1803 13.0906 82.3153 13.0906C84.4153 13.0906 85.8503 14.1756 85.8503 16.6256V19.6706H88.2303C90.3653 19.6706 91.1703 21.0356 91.1703 22.4356C91.1703 23.8706 90.3303 25.2356 88.2303 25.2356H79.1653V31.2206Z" fill="#FB9504"/>
<path d="M105.485 22.3306C109.545 24.1156 111.785 27.6506 111.26 35.5956H105.1C105.66 32.2706 105.275 29.9956 104.085 28.5956C102.895 32.0256 101.11 34.4056 98.6953 35.6306C97.1203 36.4006 95.0553 36.2606 94.2153 35.0006C93.4103 33.7406 93.6203 32.0606 94.9503 30.9756C98.3103 28.3156 99.7453 25.2006 99.7453 14.3506H96.3853C94.7053 14.3506 93.7953 12.7756 93.7953 11.4456C93.7953 10.1156 94.5653 8.54063 96.3853 8.54063H99.4303V8.05063C99.4303 5.98562 100.69 4.76063 102.825 4.76063C104.96 4.76063 106.08 6.02062 106.08 8.05063V8.54063H108.95C110.77 8.54063 111.54 10.1156 111.54 11.4456C111.54 12.7756 110.63 14.3506 108.95 14.3506H105.94C105.94 17.2906 105.8 19.9506 105.485 22.3306ZM115.67 4.79563C117.525 4.79563 118.645 5.98562 118.645 7.73563V37.6606H112.695V22.5406H110.595C108.67 22.5406 107.48 21.3506 107.48 19.5656C107.48 17.8156 108.635 16.5556 110.595 16.5556H112.695V7.73563C112.695 5.98562 113.815 4.79563 115.67 4.79563ZM123.475 4.79563C125.33 4.79563 126.52 5.98562 126.52 7.80563V37.6606H120.395V7.80563C120.395 5.98562 121.62 4.79563 123.475 4.79563Z" fill="#FB9504"/>
<path d="M130.615 16.8006V14.4906C130.615 13.6156 130.86 12.8456 131.245 12.1806C129.67 12.1456 128.76 11.1306 128.76 9.69563C128.76 8.22563 129.635 7.24563 131.35 7.24563H136.075C136.355 5.53062 137.615 4.51562 139.575 4.51562C141.535 4.51562 142.76 5.53062 143.04 7.24563H147.765C149.48 7.24563 150.39 8.22563 150.39 9.69563C150.39 11.1306 149.48 12.1456 147.87 12.1806C148.255 12.8456 148.5 13.6156 148.5 14.4906V16.8006C148.5 21.1756 145.14 23.8706 139.575 23.8706C134.01 23.8706 130.615 21.1756 130.615 16.8006ZM149.48 15.3656C149.48 13.6506 150.635 12.4256 152.525 12.4256H153.995V8.26062C153.995 5.98563 155.64 4.79563 157.495 4.79563C159.35 4.79563 160.995 5.98563 160.995 8.26062V24.0106H153.995V18.2356H152.525C150.67 18.2356 149.48 17.1156 149.48 15.3656ZM142.2 16.6956V14.4906C142.2 12.9856 141.15 12.0756 139.575 12.0756C137.965 12.0756 136.915 12.9856 136.915 14.4906V16.6956C136.915 18.1656 137.965 19.1106 139.575 19.1106C141.15 19.1106 142.2 18.1656 142.2 16.6956ZM136.565 25.2356H156.305C160.26 25.2356 161.03 26.4956 161.03 30.1006V37.6606H136.565C132.33 37.6606 131.56 36.4006 131.56 32.4806V30.4156C131.56 26.4956 132.33 25.2356 136.565 25.2356ZM139.19 32.9356H154.135V30.6956C154.135 30.1006 153.96 29.9256 153.4 29.9256H139.19C138.63 29.9256 138.455 30.1006 138.455 30.6956V32.1306C138.455 32.7956 138.63 32.9356 139.19 32.9356Z" fill="#FB9504"/>
<path d="M175.53 17.1856V14.6656C175.53 13.8956 175.705 13.1956 176.02 12.6006C174.445 12.5306 173.57 11.5156 173.57 10.1156C173.57 8.64563 174.445 7.63062 176.16 7.63062H181.165C181.305 5.67062 182.635 4.51562 184.735 4.51562C186.835 4.51562 188.13 5.67062 188.27 7.63062H193.275C194.99 7.63062 195.9 8.64563 195.9 10.1156C195.9 11.5506 195.025 12.5306 193.415 12.6006C193.73 13.1956 193.905 13.8956 193.905 14.6656V17.1856C193.905 21.7006 190.37 24.3956 184.735 24.3956C179.1 24.3956 175.53 21.7006 175.53 17.1856ZM204.93 12.4956H206.015C208.15 12.4956 208.78 14.1406 208.78 15.5406C208.78 16.9756 208.115 18.5856 206.015 18.5856H204.93V26.4606H197.93V8.26062C197.93 5.98563 199.575 4.79563 201.43 4.79563C203.285 4.79563 204.93 5.98563 204.93 8.26062V12.4956ZM187.535 16.6256V15.0856C187.535 13.4406 186.45 12.3556 184.735 12.3556C182.985 12.3556 181.9 13.4406 181.9 15.0856V16.6256C181.9 18.2706 182.985 19.3556 184.735 19.3556C186.45 19.3556 187.535 18.2706 187.535 16.6256ZM194.29 28.2456C199.435 27.9656 205.49 30.8706 206.435 37.6606H199.26C198.595 34.8956 195.48 32.8656 191.77 33.2856C188.76 36.3306 183.16 38.1856 178.82 37.9756C176.615 37.8356 175.6 36.6806 175.6 34.8606C175.6 33.2856 176.72 32.1306 178.89 32.1656C183.335 32.2006 186.24 30.1006 187.36 27.5456C188.165 25.5856 189.32 25.0256 191 25.0256C193.065 25.0256 194.325 26.2156 194.325 27.7206C194.325 27.9306 194.325 28.0006 194.29 28.2456Z" fill="#FB9504"/>
<path d="M238.145 9.80063H212.665C211.09 9.80063 210.25 8.96063 210.25 7.52563C210.25 6.12563 211.055 5.25063 212.665 5.25063H238.145C239.755 5.25063 240.56 6.12563 240.56 7.52563C240.56 8.96063 239.72 9.80063 238.145 9.80063ZM238.565 17.8856H212.245C210.67 17.8856 209.83 17.1856 209.83 15.7506C209.83 14.3506 210.635 13.5806 212.245 13.5806H215.15V13.3706C215.15 11.4106 216.62 10.4656 218.755 10.4656C220.855 10.4656 222.29 11.4456 222.29 13.3706V13.5806H228.52V13.3706C228.52 11.4106 229.99 10.4656 232.125 10.4656C234.225 10.4656 235.66 11.4456 235.66 13.3706V13.5806H238.565C240.175 13.5806 240.98 14.3506 240.98 15.7506C240.98 17.1856 240.14 17.8856 238.565 17.8856ZM239.23 23.6606H211.58C209.9 23.6606 209.025 22.8906 209.025 21.4206C209.025 19.9856 209.865 19.1456 211.58 19.1456H239.23C240.945 19.1456 241.785 19.9856 241.785 21.4206C241.785 22.8906 240.91 23.6606 239.23 23.6606ZM218.055 33.8456H239.37C240.805 33.8456 241.33 34.7556 241.33 35.7706C241.33 36.7856 240.84 37.6606 239.37 37.6606H214.415C211.405 37.6606 210.005 35.8406 210.005 33.5656V33.4606C210.005 31.1856 211.37 29.5406 214.415 29.5406H233.14V28.9106C233.14 28.5956 233 28.4556 232.615 28.4556H212.35C211.055 28.4556 210.355 27.5806 210.355 26.5656C210.355 25.5506 210.95 24.6756 212.35 24.6756H236.43C239.405 24.6756 240.35 25.7956 240.35 27.9306V32.7606H218.055C217.705 32.7606 217.53 33.0406 217.53 33.3206C217.53 33.5656 217.705 33.8456 218.055 33.8456Z" fill="#FB9504"/>
<path d="M38.4953 87.6606H31.4953V58.2606C31.4953 55.9856 33.1403 54.7956 34.9953 54.7956C36.8503 54.7956 38.4953 55.9856 38.4953 58.2606V87.6606ZM27.2603 86.3306H13.0853C8.53531 86.3306 7.69531 84.9656 7.69531 80.5556V61.7256C7.69531 57.3156 8.53531 55.9506 13.0853 55.9506H21.8703C26.4203 55.9506 27.2603 57.3156 27.2603 61.7256V86.3306ZM14.5203 62.6356V79.6106C14.5203 80.3806 14.7653 80.8006 15.6753 80.8006H20.4353V62.6356C20.4353 61.9356 20.2603 61.4806 19.4903 61.4806H15.4303C14.6603 61.4806 14.5203 61.9356 14.5203 62.6356Z" fill="#FB9504"/>
<path d="M45.6003 75.3756C43.8853 75.3756 42.4503 74.3956 42.2753 72.6806C42.1003 71.0006 43.0103 69.6356 44.7953 69.2506C49.4153 68.2356 53.6503 64.3156 54.3853 58.4356C54.6653 56.2306 56.2053 55.2856 58.0953 55.2856C60.1953 55.2856 61.7003 56.6856 61.6303 58.9956C61.5953 60.0806 61.4203 61.1656 61.1753 62.2156C67.0553 62.3556 73.1103 66.4506 73.7753 75.3756H66.6703C66.0403 70.6506 62.6103 67.7806 58.4453 67.8856C55.2603 72.2956 50.2203 75.3756 45.6003 75.3756ZM44.7253 81.0456H71.4653C73.6353 81.0456 74.4753 82.5856 74.4753 84.0206C74.4753 85.4906 73.6003 86.9606 71.4653 86.9606H44.7253C42.5903 86.9606 41.7153 85.4906 41.7153 84.0206C41.7153 82.5856 42.5553 81.0456 44.7253 81.0456Z" fill="#FB9504"/>
<path d="M98.1703 54.7956C100.025 54.7956 101.145 55.9856 101.145 57.7356V87.6606H95.1953V73.8356H94.9153C92.9553 73.8356 91.7303 72.6106 91.7303 70.7906C91.7303 69.0056 92.9203 67.6756 94.9153 67.6756H95.1953V57.7356C95.1953 55.9856 96.3153 54.7956 98.1703 54.7956ZM105.975 54.7956C107.83 54.7956 109.02 55.9856 109.02 57.8056V87.6606H102.895V57.8056C102.895 55.9856 104.12 54.7956 105.975 54.7956ZM85.0453 80.4156H91.5553C93.5853 80.4156 94.1803 82.0256 94.1803 83.3556C94.1803 84.7206 93.5503 86.2606 91.5553 86.2606H82.2103C78.2903 86.2606 77.4503 85.1756 77.4503 81.4306V60.8156C77.4503 57.0706 78.2903 56.0206 82.2103 56.0206H90.2953C92.3253 56.0206 92.9203 57.6306 92.9203 58.9606C92.9203 60.3256 92.2903 61.9356 90.2953 61.9356H85.0453C84.4153 61.9356 84.1353 62.1456 84.1353 62.9506V68.0606H88.2303C90.2603 68.0606 91.0303 69.4956 91.0303 70.9656C91.0303 72.4006 90.2253 73.8356 88.2303 73.8356H84.1353V79.4006C84.1353 80.2056 84.4153 80.4156 85.0453 80.4156Z" fill="#FB9504"/>
<path d="M143.495 87.6606H136.495V58.2606C136.495 55.9856 138.14 54.7956 139.995 54.7956C141.85 54.7956 143.495 55.9856 143.495 58.2606V87.6606ZM131.63 86.1906H118.54C114.305 86.1906 112.66 84.6506 112.66 80.4156V73.6956C112.66 69.4606 114.305 67.9906 118.54 67.9906H125.015V62.8806C125.015 62.4256 124.875 61.9356 124.14 61.9356H115.95C113.85 61.9356 112.975 60.4656 112.975 59.0306C112.975 57.6306 113.815 56.0906 115.95 56.0906H126.065C130.755 56.0906 132.015 57.4206 132.015 61.2706V73.6956H121.235C120.045 73.6956 119.66 73.9756 119.66 75.1656V78.9806C119.66 80.1706 120.045 80.4506 121.235 80.4506H131.63C133.765 80.4506 134.605 81.9206 134.605 83.3206C134.605 84.7556 133.73 86.1906 131.63 86.1906Z" fill="#FB9504"/>
<path d="M188.305 58.2606V71.7356H181.305V58.2606C181.305 55.9856 182.95 54.7956 184.805 54.7956C186.66 54.7956 188.305 55.9856 188.305 58.2606ZM177.315 58.6806V71.4556H162.055C158.695 71.4556 157.54 70.0556 157.54 67.1156V58.6806C157.54 56.6506 158.8 55.6006 160.83 55.6006C162.755 55.6006 163.945 56.6156 164.015 58.5056H170.91C170.98 56.5806 172.205 55.6006 174.13 55.6006C176.16 55.6006 177.315 56.6856 177.315 58.6806ZM164.995 66.6606H170.875V63.1256H164.015V65.7506C164.015 66.5556 164.19 66.6606 164.995 66.6606ZM166.815 83.5306H187.255C188.655 83.5306 189.25 84.6156 189.25 85.6656C189.25 86.6456 188.69 87.6606 187.255 87.6606H163.56C160.375 87.6606 158.66 85.6306 158.66 83.1806V82.3756C158.66 80.0306 160.375 78.4206 163.56 78.4206H181.235V77.6156C181.235 77.1956 181.13 77.0206 180.675 77.0206H160.97C159.605 77.0206 159.045 76.0406 159.045 74.9906C159.045 74.0106 159.64 72.9606 160.97 72.9606H184.21C187.255 72.9606 188.34 73.8706 188.34 76.5656V82.1306H166.815C166.325 82.1306 166.08 82.4106 166.08 82.7256V82.9006C166.08 83.2156 166.325 83.5306 166.815 83.5306Z" fill="#FB9504"/>
<path d="M223.305 87.6606H216.305V58.2606C216.305 55.9856 217.95 54.7956 219.805 54.7956C221.66 54.7956 223.305 55.9856 223.305 58.2606V87.6606ZM211.44 86.1906H198.35C194.115 86.1906 192.47 84.6506 192.47 80.4156V73.6956C192.47 69.4606 194.115 67.9906 198.35 67.9906H204.825V62.8806C204.825 62.4256 204.685 61.9356 203.95 61.9356H195.76C193.66 61.9356 192.785 60.4656 192.785 59.0306C192.785 57.6306 193.625 56.0906 195.76 56.0906H205.875C210.565 56.0906 211.825 57.4206 211.825 61.2706V73.6956H201.045C199.855 73.6956 199.47 73.9756 199.47 75.1656V78.9806C199.47 80.1706 199.855 80.4506 201.045 80.4506H211.44C213.575 80.4506 214.415 81.9206 214.415 83.3206C214.415 84.7556 213.54 86.1906 211.44 86.1906Z" fill="#FB9504"/>
<path d="M254.805 54.7956C256.66 54.7956 258.305 55.9856 258.305 58.2606V87.6606H251.305V58.2606C251.305 55.9856 252.95 54.7956 254.805 54.7956ZM245.215 62.1106H240.49V66.9056C240.49 68.1306 240.42 69.2856 240.28 70.4056C245.25 72.0856 248.47 75.9356 248.05 85.7006H241.33C241.855 80.8706 240.91 78.0356 238.775 76.6006C236.325 82.7956 231.845 85.9456 229.08 85.9456C227.015 85.9456 225.86 84.6856 225.86 83.1106C225.86 81.9556 226.35 81.1856 227.4 80.4856C231.495 77.8606 233.735 73.5556 233.735 65.8556V62.1106H229.01C226.91 62.1106 226.035 60.5706 226.035 59.1356C226.035 57.7356 226.875 56.1256 229.01 56.1256H245.215C247.35 56.1256 248.12 57.7356 248.12 59.1356C248.12 60.5706 247.315 62.1106 245.215 62.1106Z" fill="#FB9504"/>
</g>
<defs>
<filter id="filter0_i_1137_1831" x="7.69531" y="4.51562" width="250.609" height="83.1445" filterUnits="userSpaceOnUse" color-interpolation-filters="sRGB">
<feFlood flood-opacity="0" result="BackgroundImageFix"/>
<feBlend mode="normal" in="SourceGraphic" in2="BackgroundImageFix" result="shape"/>
<feColorMatrix in="SourceAlpha" type="matrix" values="0 0 0 0 0 0 0 0 0 0 0 0 0 0 0 0 0 0 127 0" result="hardAlpha"/>
<feOffset dy="-2"/>
<feComposite in2="hardAlpha" operator="arithmetic" k2="-1" k3="1"/>
<feColorMatrix type="matrix" values="0 0 0 0 0 0 0 0 0 0 0 0 0 0 0 0 0 0 0.08 0"/>
<feBlend mode="normal" in2="shape" result="effect1_innerShadow_1137_1831"/>
</filter>
</defs>
</svg>
