<svg width="266" height="100" viewBox="0 0 266 100" fill="none" xmlns="http://www.w3.org/2000/svg">
<g filter="url(#filter0_i_1137_1819)">
<path d="M84.0696 20.5445H93.9746C96.0396 20.5445 96.8796 21.9095 96.8796 23.3445C96.8796 24.8145 96.0046 26.1095 93.9746 26.1095H67.0246C64.9946 26.1095 64.1196 24.8145 64.1196 23.3445C64.1196 21.9095 64.9596 20.5445 67.0246 20.5445H76.9296V18.6195H72.6596C67.8996 18.6195 65.2396 15.9245 65.2396 12.0395V11.7245C65.2396 7.83945 67.8996 5.14445 72.6596 5.14445H88.3046C93.0646 5.14445 95.7596 7.83945 95.7596 11.7245V12.0395C95.7596 15.9245 93.0646 18.6195 88.3046 18.6195H84.0696V20.5445ZM72.4146 11.7245V12.0745C72.4146 13.0545 73.1496 13.7545 74.4796 13.7545H86.4846C87.8146 13.7545 88.5846 13.0545 88.5846 12.0745V11.7245C88.5846 10.7445 87.8146 10.0095 86.4846 10.0095H74.4796C73.1496 10.0095 72.4146 10.7445 72.4146 11.7245ZM73.9896 32.3045H92.8546C94.9896 32.3045 95.7946 33.5645 95.7946 34.9645C95.7946 36.3995 94.9546 37.6595 92.8546 37.6595H70.8746C66.9196 37.6595 65.8696 36.3645 65.8696 32.7245V30.5195C65.8696 28.2095 67.5496 27.3345 69.5096 27.3345C71.4696 27.3345 73.0446 28.2445 73.0446 30.5195V31.4995C73.0446 32.1995 73.2196 32.3045 73.9896 32.3045Z" fill="#FB9504"/>
<path d="M127.4 4.79445C129.255 4.79445 130.9 5.98445 130.9 8.25945V37.6595H123.9V23.4145H117.425C115.5 23.4145 114.31 22.2245 114.31 20.4395C114.31 18.6895 115.465 17.4295 117.425 17.4295H123.9V8.25945C123.9 5.98445 125.545 4.79445 127.4 4.79445ZM108.15 30.4145H119.035C121.065 30.4145 121.66 32.0245 121.66 33.3545C121.66 34.7195 121.03 36.2595 119.035 36.2595H105.595C101.045 36.2595 100.205 35.1745 100.205 30.7995V11.4445C100.205 7.06945 101.045 6.01945 105.595 6.01945H116.83C118.86 6.01945 119.525 7.62945 119.525 8.95945C119.525 10.3245 118.825 11.9345 116.83 11.9345H108.15C107.52 11.9345 107.24 12.1445 107.24 12.9495V29.3995C107.24 30.2045 107.52 30.4145 108.15 30.4145Z" fill="#FB9504"/>
<path d="M162.925 10.9895H138.075C136.185 10.9895 135.345 9.72945 135.345 8.29445C135.345 6.89445 136.15 5.59945 138.075 5.59945H162.925C164.85 5.59945 165.655 6.89445 165.655 8.29445C165.655 9.72945 164.815 10.9895 162.925 10.9895ZM163.345 22.4345H137.655C135.765 22.4345 134.925 21.3145 134.925 19.8795C134.925 18.4795 135.73 17.3245 137.655 17.3245H140.245V15.3295C140.245 13.0545 141.715 12.0045 143.85 12.0045C145.95 12.0045 147.385 13.0895 147.385 15.3295V17.3245H153.615V15.3295C153.615 13.0545 155.085 12.0045 157.22 12.0045C159.32 12.0045 160.755 13.0895 160.755 15.3295V17.3245H163.345C165.27 17.3245 166.075 18.4795 166.075 19.8795C166.075 21.3145 165.235 22.4345 163.345 22.4345ZM137.06 24.3595H163.94C166.04 24.3595 166.88 25.7945 166.88 27.2295C166.88 28.6995 166.005 30.0995 163.94 30.0995H161.07V37.8345H153.965V30.0995H148.505V30.8345C148.505 35.3145 145.11 38.4295 140.56 38.4645C138.215 38.4645 136.955 37.2745 136.99 35.7345C137.025 34.1245 138.005 33.4945 139.265 33.2495C140.77 33.0395 141.54 32.3045 141.54 30.6945V30.0995H137.06C134.995 30.0995 134.12 28.6995 134.12 27.2295C134.12 25.7945 134.96 24.3595 137.06 24.3595Z" fill="#FB9504"/>
<path d="M182.665 21.4545C187.635 23.0995 190.82 26.8795 190.295 35.6645H183.75C184.31 31.1845 183.26 28.5945 181.02 27.3345C179.27 31.4645 176.505 34.2645 173.145 35.6645C171.64 36.2945 169.61 35.9095 168.84 34.5095C168.14 33.2495 168.455 31.5695 169.82 30.7295C174.02 28.1745 176.295 24.4295 176.295 15.9595V14.4195H171.57C169.54 14.4195 168.7 12.9145 168.7 11.5145C168.7 10.1145 169.505 8.53945 171.57 8.53945H176.12V8.11945C176.12 5.91445 177.345 4.68945 179.655 4.68945C181.965 4.68945 183.155 5.94945 183.155 8.11945V8.53945H187.635C189.7 8.53945 190.435 10.1145 190.435 11.5145C190.435 12.9145 189.665 14.4195 187.635 14.4195H183.05V16.0645C183.05 17.9895 182.91 19.8095 182.665 21.4545ZM197.4 4.79445C199.255 4.79445 200.9 5.98445 200.9 8.25945V37.6595H193.9V22.7145H189.875C187.95 22.7145 186.76 21.5245 186.76 19.7395C186.76 17.9895 187.915 16.7295 189.875 16.7295H193.9V8.25945C193.9 5.98445 195.545 4.79445 197.4 4.79445Z" fill="#FB9504"/>
<path d="M43.6748 74.9545H48.9948V58.2595C48.9948 55.9845 50.6398 54.7945 52.4948 54.7945C54.3498 54.7945 55.9948 55.9845 55.9948 58.2595V81.0095H48.9948V79.8895H43.6748C42.0648 79.8895 40.9798 78.9795 40.9798 77.4395C40.9798 75.9345 42.0298 74.9545 43.6748 74.9545ZM39.7548 67.0445H31.5998C27.6448 67.0445 25.2998 64.7345 25.2998 61.3395V61.2345C25.2998 57.8745 27.6448 55.5645 31.5998 55.5645H39.7548C43.7098 55.5645 45.9498 57.8745 45.9498 61.2345V61.3395C45.9498 64.7345 43.7098 67.0445 39.7548 67.0445ZM31.9498 61.2695V61.3745C31.9498 62.0045 32.4048 62.4595 33.3848 62.4595H37.8998C38.8798 62.4595 39.2998 62.0045 39.2998 61.3745V61.2695C39.2998 60.6045 38.8798 60.1145 37.8998 60.1145H33.3848C32.4048 60.1145 31.9498 60.6045 31.9498 61.2695ZM34.5048 82.3045H54.1048C56.1348 82.3045 56.9398 83.5645 56.9398 84.9645C56.9398 86.3995 56.0998 87.6595 54.1048 87.6595H31.7398C27.8198 87.6595 26.7698 86.2945 26.7698 82.5495V80.4145C26.7698 78.3495 28.4148 77.2645 30.3748 77.2645C30.9348 77.2645 31.4948 77.3695 31.9498 77.5445V73.8345H26.9798C25.0898 73.8345 24.2148 72.7145 24.2148 71.2445C24.2148 69.8095 25.0548 68.6195 26.9798 68.6195H45.0048C46.9298 68.6195 47.7698 69.8095 47.7698 71.2445C47.7698 72.7145 46.8948 73.8345 45.0048 73.8345H38.7398V79.4345H33.7348C33.8398 79.7495 33.8748 80.0645 33.8748 80.4145V81.7095C33.8748 82.1995 34.0148 82.3045 34.5048 82.3045Z" fill="#FB9504"/>
<path d="M87.4948 54.7945C89.3498 54.7945 90.9948 55.9845 90.9948 58.2595V87.6595H83.9948V73.4145H77.5198C75.5948 73.4145 74.4048 72.2245 74.4048 70.4395C74.4048 68.6895 75.5598 67.4295 77.5198 67.4295H83.9948V58.2595C83.9948 55.9845 85.6398 54.7945 87.4948 54.7945ZM68.2448 80.4145H79.1298C81.1598 80.4145 81.7548 82.0245 81.7548 83.3545C81.7548 84.7195 81.1248 86.2595 79.1298 86.2595H65.6898C61.1398 86.2595 60.2998 85.1745 60.2998 80.7995V61.4445C60.2998 57.0695 61.1398 56.0195 65.6898 56.0195H76.9248C78.9548 56.0195 79.6198 57.6295 79.6198 58.9595C79.6198 60.3245 78.9198 61.9345 76.9248 61.9345H68.2448C67.6148 61.9345 67.3348 62.1445 67.3348 62.9495V79.3995C67.3348 80.2045 67.6148 80.4145 68.2448 80.4145Z" fill="#FB9504"/>
<path d="M107.909 75.3745C106.194 75.3745 104.759 74.3945 104.584 72.6795C104.409 70.9995 105.319 69.6345 107.104 69.2495C111.724 68.2345 115.959 64.3145 116.694 58.4345C116.974 56.2295 118.514 55.2845 120.404 55.2845C122.504 55.2845 124.009 56.6845 123.939 58.9945C123.904 60.0795 123.729 61.1645 123.484 62.2145C129.364 62.3545 135.419 66.4495 136.084 75.3745H128.979C128.349 70.6495 124.919 67.7795 120.754 67.8845C117.569 72.2945 112.529 75.3745 107.909 75.3745ZM107.034 81.0445H133.774C135.944 81.0445 136.784 82.5845 136.784 84.0195C136.784 85.4895 135.909 86.9595 133.774 86.9595H107.034C104.899 86.9595 104.024 85.4895 104.024 84.0195C104.024 82.5845 104.864 81.0445 107.034 81.0445Z" fill="#FB9504"/>
<path d="M168.214 73.1345H145.429C141.929 73.1345 140.529 71.6995 140.529 68.4795V60.1495C140.529 56.9295 141.929 55.4945 145.429 55.4945H167.724C169.404 55.4945 170.139 56.6495 170.139 57.9095C170.139 59.1695 169.369 60.2895 167.724 60.2895H148.474C147.914 60.2895 147.599 60.5345 147.599 61.0595V62.1095H167.619C169.229 62.1095 169.929 63.1945 169.929 64.3495C169.929 65.5395 169.194 66.5895 167.619 66.5895H147.599V67.6045C147.599 68.1995 147.914 68.4095 148.474 68.4095H168.214C169.894 68.4095 170.629 69.5295 170.629 70.7895C170.629 72.0495 169.859 73.1345 168.214 73.1345ZM141.964 74.7445H168.844C170.944 74.7445 171.784 76.1795 171.784 77.6145C171.784 79.0845 170.909 80.4845 168.844 80.4845H165.974V87.8345H158.869V80.4845H153.234V81.2895C153.234 85.3845 150.259 88.4295 145.499 88.4645C142.979 88.4645 141.859 87.2045 141.894 85.7695C141.929 84.1595 142.979 83.5995 144.239 83.4595C145.814 83.3545 146.269 82.6195 146.269 81.2195V80.4845H141.964C139.899 80.4845 139.024 79.0845 139.024 77.6145C139.024 76.1795 139.864 74.7445 141.964 74.7445Z" fill="#FB9504"/>
<path d="M205.804 87.6595H198.804V58.2595C198.804 55.9845 200.449 54.7945 202.304 54.7945C204.159 54.7945 205.804 55.9845 205.804 58.2595V87.6595ZM193.939 86.2595H180.499C175.949 86.2595 175.109 85.1745 175.109 80.7995V61.4445C175.109 57.0695 175.949 56.0195 180.499 56.0195H191.734C193.764 56.0195 194.429 57.6295 194.429 58.9595C194.429 60.3245 193.729 61.9345 191.734 61.9345H183.054C182.424 61.9345 182.144 62.1445 182.144 62.9495V79.3995C182.144 80.2045 182.424 80.4145 183.054 80.4145H193.939C195.969 80.4145 196.564 82.0245 196.564 83.3545C196.564 84.7195 195.934 86.2595 193.939 86.2595Z" fill="#FB9504"/>
<path d="M228.974 81.2195H238.844C240.944 81.2195 241.784 82.6545 241.784 84.0895C241.784 85.5945 240.909 86.9595 238.844 86.9595H211.964C209.899 86.9595 209.024 85.5945 209.024 84.0895C209.024 82.6545 209.864 81.2195 211.964 81.2195H221.834V74.7445H219.419C213.574 74.7445 210.039 70.4395 210.039 65.6445V64.7695C210.039 59.9745 213.574 55.6695 219.419 55.6695H231.354C237.199 55.6695 240.769 59.9745 240.769 64.7695V65.6445C240.769 70.4395 237.199 74.7445 231.354 74.7445H228.974V81.2195ZM217.319 64.7345V65.6795C217.319 67.6395 218.894 69.0745 221.239 69.0745H229.534C231.879 69.0745 233.489 67.6395 233.489 65.6795V64.7345C233.489 62.7745 231.879 61.3395 229.534 61.3395H221.239C218.894 61.3395 217.319 62.7745 217.319 64.7345Z" fill="#FB9504"/>
</g>
<defs>
<filter id="filter0_i_1137_1819" x="24.2148" y="4.68945" width="217.57" height="83.7754" filterUnits="userSpaceOnUse" color-interpolation-filters="sRGB">
<feFlood flood-opacity="0" result="BackgroundImageFix"/>
<feBlend mode="normal" in="SourceGraphic" in2="BackgroundImageFix" result="shape"/>
<feColorMatrix in="SourceAlpha" type="matrix" values="0 0 0 0 0 0 0 0 0 0 0 0 0 0 0 0 0 0 127 0" result="hardAlpha"/>
<feOffset dy="-2"/>
<feComposite in2="hardAlpha" operator="arithmetic" k2="-1" k3="1"/>
<feColorMatrix type="matrix" values="0 0 0 0 0 0 0 0 0 0 0 0 0 0 0 0 0 0 0.08 0"/>
<feBlend mode="normal" in2="shape" result="effect1_innerShadow_1137_1819"/>
</filter>
</defs>
</svg>
