<svg width="266" height="100" viewBox="0 0 266 100" fill="none" xmlns="http://www.w3.org/2000/svg">
<g filter="url(#filter0_i_1137_1827)">
<path d="M36.5698 23.1349H26.6648V25.2349H33.0348C37.2698 25.2349 38.0398 26.4249 38.0398 30.4849V37.6599H13.1198C8.88484 37.6599 8.11484 36.4349 8.11484 32.3749V30.4849C8.11484 26.4249 8.88484 25.2349 13.1198 25.2349H19.5248V23.1349H9.61984C7.58984 23.1349 6.71484 21.8399 6.71484 20.3699C6.71484 18.9349 7.55484 17.5699 9.61984 17.5699H15.5698C16.5848 16.1349 16.9698 14.5599 16.9698 12.9149V11.2349C16.9698 10.8149 16.7598 10.5349 16.2698 10.5349H10.8448C8.63984 10.5349 7.69484 9.55492 7.69484 7.87492C7.69484 6.33492 8.60484 5.28492 10.8448 5.28492H33.3498C36.4648 5.28492 37.6898 6.08992 37.6898 8.88992V12.4249C37.6898 14.4549 37.4448 16.2049 36.9898 17.6049C38.7398 17.7449 39.4748 19.0399 39.4748 20.3699C39.4748 21.8399 38.5998 23.1349 36.5698 23.1349ZM23.8298 10.4649V12.0399C23.8298 14.2799 23.4798 16.1349 22.5348 17.5699H30.1298C30.6198 16.1699 30.8298 14.6649 30.8298 13.3349V11.1649C30.8298 10.7099 30.5848 10.4649 29.9898 10.4649H23.8298ZM31.0748 32.8299V31.0099C31.0748 30.3799 30.8998 30.0649 30.1998 30.0649H15.9548C15.2548 30.0649 15.1148 30.3799 15.1148 31.0099V31.8499C15.1148 32.5499 15.2548 32.8299 15.9548 32.8299H31.0748Z" fill="#FB9504"/>
<path d="M71.3948 23.8699H71.5348C73.6348 23.8699 74.4748 25.3049 74.4748 26.7399C74.4748 28.2099 73.5998 29.6099 71.5348 29.6099H61.6648V37.8349H54.5248V29.6099H44.6548C42.5898 29.6099 41.7148 28.2099 41.7148 26.7399C41.7148 25.3049 42.5548 23.8699 44.6548 23.8699H49.8348C51.0248 21.9449 52.1098 19.4599 52.1098 15.1549V11.6549H45.7748C43.6748 11.6549 42.6948 10.1149 42.6948 8.67992C42.6948 7.27992 43.6398 5.66992 45.7748 5.66992H67.5098C71.6398 5.66992 72.8998 7.24492 72.8998 10.6749V14.5249C72.8998 18.5149 72.3048 21.5599 71.3948 23.8699ZM58.8998 11.6549V15.1899C58.8998 18.7599 58.2348 21.6649 57.1848 23.8699H64.5348C65.4448 21.6299 66.0398 18.7249 66.0398 15.2249V12.5299C66.0398 12.0399 65.7248 11.6549 65.1648 11.6549H58.8998Z" fill="#FB9504"/>
<path d="M86.4798 11.8999H105.31C107.34 11.8999 108.11 13.2299 108.11 14.6299C108.11 16.0649 107.305 17.4649 105.31 17.4649H83.1548C79.5148 17.4649 78.3248 15.9949 78.3248 13.0199V8.57492C78.3248 6.22992 80.0398 5.17992 81.9298 5.17992C83.8548 5.17992 85.4648 6.26492 85.4648 8.57492V11.1649C85.4648 11.7249 85.6748 11.8999 86.4798 11.8999ZM79.6548 19.4949H106.535C108.635 19.4949 109.475 20.9299 109.475 22.3649C109.475 23.8349 108.6 25.2349 106.535 25.2349H79.6548C77.5898 25.2349 76.7148 23.8349 76.7148 22.3649C76.7148 20.9299 77.5548 19.4949 79.6548 19.4949ZM105.45 37.6599H83.4698C79.5148 37.6599 78.4648 36.3649 78.4648 32.5849V29.8899C78.4648 27.5099 80.1448 26.6349 82.1048 26.6349C84.0648 26.6349 85.6398 27.5449 85.6398 29.8899V31.3599C85.6398 32.1299 85.8148 32.2349 86.5848 32.2349H105.45C107.585 32.2349 108.39 33.5299 108.39 34.9299C108.39 36.3649 107.55 37.6599 105.45 37.6599Z" fill="#FB9504"/>
<path d="M152.429 13.5449H153.514C155.649 13.5449 156.279 15.1899 156.279 16.5899C156.279 18.0249 155.614 19.6349 153.514 19.6349H152.429V29.6099H145.429V8.25992C145.429 5.98492 147.074 4.79492 148.929 4.79492C150.784 4.79492 152.429 5.98492 152.429 8.25992V13.5449ZM140.529 11.4099H124.849C123.134 11.4099 122.154 10.0099 122.154 8.64492C122.154 7.27992 122.994 5.84492 124.849 5.84492H140.529C142.384 5.84492 143.224 7.27992 143.224 8.64492C143.224 10.0099 142.244 11.4099 140.529 11.4099ZM141.754 24.1849H124.429C122.714 24.1849 121.769 22.9599 121.769 21.5949C121.769 20.2299 122.574 19.0399 124.429 19.0399H124.919V15.2249C124.919 13.6149 126.144 12.5999 128.174 12.5999C130.169 12.5999 131.324 13.6499 131.324 15.2249V19.0399H134.229V15.2249C134.229 13.6149 135.384 12.5999 137.414 12.5999C139.409 12.5999 140.669 13.6499 140.669 15.2249V19.0399H141.754C143.609 19.0399 144.414 20.2299 144.414 21.5949C144.414 22.9599 143.469 24.1849 141.754 24.1849ZM132.199 32.2699H150.644C152.744 32.2699 153.549 33.5299 153.549 34.9299C153.549 36.3649 152.709 37.6599 150.644 37.6599H129.224C125.304 37.6599 124.254 36.2949 124.254 32.5499V29.0499C124.254 26.7749 125.899 25.6899 127.859 25.6899C129.819 25.6899 131.359 26.8099 131.359 29.0499V31.4999C131.359 32.1649 131.534 32.2699 132.199 32.2699Z" fill="#FB9504"/>
<path d="M187.254 17.0449H188.514C190.649 17.0449 191.279 18.6899 191.279 20.0899C191.279 21.5249 190.614 23.1349 188.514 23.1349H187.254V37.6599H180.254V8.25992C180.254 5.98492 181.899 4.79492 183.754 4.79492C185.609 4.79492 187.254 5.98492 187.254 8.25992V17.0449ZM165.449 30.4149H175.914C177.944 30.4149 178.539 32.0249 178.539 33.3549C178.539 34.7199 177.909 36.2599 175.914 36.2599H162.859C158.449 36.2599 157.609 35.1749 157.609 30.9399V11.3049C157.609 7.06992 158.449 6.01992 162.859 6.01992H174.479C176.509 6.01992 177.104 7.62992 177.104 8.95992C177.104 10.3249 176.474 11.9349 174.479 11.9349H165.449C164.819 11.9349 164.539 12.1449 164.539 12.9499V18.0599H173.639C175.669 18.0599 176.439 19.4949 176.439 20.9649C176.439 22.3999 175.634 23.8349 173.639 23.8349H164.539V29.3999C164.539 30.2049 164.819 30.4149 165.449 30.4149Z" fill="#FB9504"/>
<path d="M219.804 4.79492C221.659 4.79492 223.304 5.98492 223.304 8.25992V37.6599H216.304V8.25992C216.304 5.98492 217.949 4.79492 219.804 4.79492ZM210.214 12.1099H205.489V16.9049C205.489 18.1299 205.419 19.2849 205.279 20.4049C210.249 22.0849 213.469 25.9349 213.049 35.6999H206.329C206.854 30.8699 205.909 28.0349 203.774 26.5999C201.324 32.7949 196.844 35.9449 194.079 35.9449C192.014 35.9449 190.859 34.6849 190.859 33.1099C190.859 31.9549 191.349 31.1849 192.399 30.4849C196.494 27.8599 198.734 23.5549 198.734 15.8549V12.1099H194.009C191.909 12.1099 191.034 10.5699 191.034 9.13492C191.034 7.73492 191.874 6.12492 194.009 6.12492H210.214C212.349 6.12492 213.119 7.73492 213.119 9.13492C213.119 10.5699 212.314 12.1099 210.214 12.1099Z" fill="#FB9504"/>
<path d="M257.254 17.0449H258.514C260.649 17.0449 261.279 18.6899 261.279 20.0899C261.279 21.5249 260.614 23.1349 258.514 23.1349H257.254V37.6599H250.254V8.25992C250.254 5.98492 251.899 4.79492 253.754 4.79492C255.609 4.79492 257.254 5.98492 257.254 8.25992V17.0449ZM237.129 5.35492C242.799 5.35492 246.824 8.64492 246.824 14.6999V27.6499C246.824 33.7049 242.799 36.9949 237.164 36.9949C231.494 36.9949 227.434 33.7049 227.434 27.6499V14.6999C227.434 8.67992 231.459 5.35492 237.129 5.35492ZM240.104 27.9649V14.3499C240.104 12.1799 238.669 11.0249 237.129 11.0599C235.554 11.0949 234.154 12.2149 234.154 14.3499V27.9649C234.154 30.2049 235.554 31.2899 237.129 31.2899C238.669 31.2899 240.104 30.2049 240.104 27.9649Z" fill="#FB9504"/>
<path d="M71.6096 55.9149H91.8046C93.7996 55.9149 94.4996 57.5249 94.4996 58.8549C94.4996 60.1849 93.7646 61.7599 91.8046 61.7599H74.0946C73.3596 61.7599 73.1146 61.9699 73.1146 62.7049V68.0949C73.1146 68.8299 73.3596 69.0749 74.0946 69.0749H92.3646C94.3246 69.0749 95.0946 70.6849 95.0946 71.9799C95.0946 73.3099 94.2896 74.9199 92.3646 74.9199H71.6096C67.4096 74.9199 65.9746 73.4149 65.9746 69.3549V61.4449C65.9746 57.4199 67.4096 55.9149 71.6096 55.9149ZM67.1296 81.0449H93.8696C96.0396 81.0449 96.8796 82.5849 96.8796 84.0199C96.8796 85.4899 96.0046 86.9599 93.8696 86.9599H67.1296C64.9946 86.9599 64.1196 85.4899 64.1196 84.0199C64.1196 82.5849 64.9596 81.0449 67.1296 81.0449Z" fill="#FB9504"/>
<path d="M130.9 74.0099H123.9V58.2599C123.9 55.9849 125.545 54.7949 127.4 54.7949C129.255 54.7949 130.9 55.9849 130.9 58.2599V74.0099ZM120.085 73.6249H105.595C101.92 73.6249 99.8896 71.3849 99.8896 68.1999V67.6399C99.8896 64.4199 101.885 62.4599 105.245 62.4599H112.21V61.1649C112.21 60.6399 112 60.4999 111.405 60.4999H102.305C100.765 60.4999 100.03 59.2749 100.03 58.0849C100.03 56.8599 100.8 55.6349 102.305 55.6349H114.765C118.02 55.6349 119.385 57.2449 119.385 59.8349V66.8699H108.115C107.555 66.8699 107.065 67.1499 107.065 67.8149V67.9199C107.065 68.5499 107.555 68.7949 108.115 68.7949H120.085C121.625 68.7949 122.36 70.0199 122.36 71.2449C122.36 72.4349 121.695 73.6249 120.085 73.6249ZM130.935 87.6599H106.47C102.235 87.6599 101.465 86.3999 101.465 82.4799V80.4149C101.465 76.4949 102.235 75.2349 106.47 75.2349H126.21C130.165 75.2349 130.935 76.4949 130.935 80.0999V87.6599ZM108.36 80.6949V82.1299C108.36 82.7949 108.535 82.9349 109.095 82.9349H124.04V80.6949C124.04 80.0999 123.865 79.9249 123.305 79.9249H109.095C108.535 79.9249 108.36 80.0999 108.36 80.6949Z" fill="#FB9504"/>
<path d="M163.38 54.7949C165.235 54.7949 166.425 55.9849 166.425 57.8049V87.6599H160.3V73.3099H158.55V87.6599H152.425V57.8049C152.425 55.9849 153.65 54.7949 155.505 54.7949C157.36 54.7949 158.55 55.9849 158.55 57.8049V67.4999H160.3V57.8049C160.3 55.9849 161.525 54.7949 163.38 54.7949ZM137.55 56.1249H145.705C149.205 56.1249 150.5 57.6299 150.5 60.6749V71.4199C150.5 81.5349 145.145 85.9099 138.005 86.4699C135.485 86.6799 134.085 85.5249 134.085 83.6699C134.085 82.0599 135.065 81.0099 137.06 80.6949C140.7 80.1699 143.57 78.4199 144.13 73.3449H137.13C135.03 73.3449 134.19 71.8049 134.19 70.3699C134.19 68.9699 134.995 67.4299 137.13 67.4299H144.235V62.9499C144.235 62.4599 143.92 62.0749 143.36 62.0749H137.55C135.45 62.0749 134.505 60.6049 134.505 59.1699C134.505 57.7349 135.415 56.1249 137.55 56.1249Z" fill="#FB9504"/>
<path d="M173.18 66.7999C170.975 66.6949 170.03 65.4349 169.995 63.9299C169.995 62.3549 171.185 61.1299 173.145 61.2349C177.625 61.4099 181.055 59.6249 181.86 56.9999C182.315 55.4949 183.575 54.5499 185.465 54.5499C187.425 54.5499 188.93 55.6349 188.895 57.9799V58.1199C194.845 57.6999 199.745 60.5349 200.97 66.6249H193.865C192.745 64.1049 190.085 62.5999 186.165 63.0549C183.225 65.5399 178.29 67.0099 173.18 66.7999ZM199.22 72.4349H171.78C169.995 72.4349 169.12 71.4899 169.12 70.0199C169.12 68.5849 169.96 67.5699 171.78 67.5699H199.22C201.04 67.5699 201.88 68.5849 201.88 70.0199C201.88 71.4899 201.005 72.4349 199.22 72.4349ZM178.36 83.7049H199.465C200.9 83.7049 201.425 84.6849 201.425 85.6999C201.425 86.7149 200.935 87.6599 199.465 87.6599H174.51C171.5 87.6599 170.1 85.6649 170.1 83.3199V83.0399C170.1 80.6599 171.465 78.9449 174.51 78.9449H193.235V78.2449C193.235 77.9299 193.06 77.7199 192.605 77.7199H172.445C171.15 77.7199 170.45 76.7749 170.45 75.7599C170.45 74.7449 171.045 73.7999 172.445 73.7999H196.525C199.5 73.7999 200.445 74.9199 200.445 77.0549V82.4799H178.36C177.87 82.4799 177.625 82.7249 177.625 83.1099C177.625 83.4599 177.87 83.7049 178.36 83.7049Z" fill="#FB9504"/>
</g>
<defs>
<filter id="filter0_i_1137_1827" x="6.71484" y="4.79492" width="254.566" height="82.8652" filterUnits="userSpaceOnUse" color-interpolation-filters="sRGB">
<feFlood flood-opacity="0" result="BackgroundImageFix"/>
<feBlend mode="normal" in="SourceGraphic" in2="BackgroundImageFix" result="shape"/>
<feColorMatrix in="SourceAlpha" type="matrix" values="0 0 0 0 0 0 0 0 0 0 0 0 0 0 0 0 0 0 127 0" result="hardAlpha"/>
<feOffset dy="-2"/>
<feComposite in2="hardAlpha" operator="arithmetic" k2="-1" k3="1"/>
<feColorMatrix type="matrix" values="0 0 0 0 0 0 0 0 0 0 0 0 0 0 0 0 0 0 0.08 0"/>
<feBlend mode="normal" in2="shape" result="effect1_innerShadow_1137_1827"/>
</filter>
</defs>
</svg>
