<svg width="266" height="100" viewBox="0 0 266 100" fill="none" xmlns="http://www.w3.org/2000/svg">
<g filter="url(#filter0_i_1137_1821)">
<path d="M44.3048 19.7756C47.6998 19.3556 49.7298 17.2556 49.7648 13.9306V13.7206H44.8998C43.2548 13.7206 42.3448 12.2506 42.3448 10.9906C42.3448 9.73062 43.1148 8.19063 44.8998 8.19063H49.6248V7.80563C49.6248 5.74063 50.8498 4.76063 53.0198 4.76063C55.1898 4.76063 56.4498 5.77563 56.4498 7.80563V8.19063H61.4548C63.2398 8.19063 64.0098 9.73062 64.0098 10.9906C64.0098 12.2506 63.0998 13.7206 61.4548 13.7206H56.3448V13.9306C56.3448 14.6306 56.3098 15.2956 56.2048 15.9256C61.5598 15.9956 64.2548 18.8656 64.1498 24.9906H57.6748C57.7798 21.9806 56.3448 20.5806 54.1748 20.7906C51.9698 23.6956 48.4698 25.2706 45.0748 25.2356C43.3948 25.2356 41.9948 24.0456 41.9948 22.3306C41.9948 20.9306 42.8698 19.9506 44.3048 19.7756ZM69.9948 4.79563C71.8498 4.79563 73.4948 5.98563 73.4948 8.26062V37.6606H66.4948V8.26062C66.4948 5.98563 68.1398 4.79563 69.9948 4.79563ZM56.5898 30.7656H62.3298C64.4298 30.7656 65.2698 32.2356 65.2698 33.6706C65.2698 35.1406 64.3948 36.5056 62.3298 36.5056H44.6548C42.5898 36.5056 41.7148 35.1406 41.7148 33.6706C41.7148 32.2356 42.5548 30.7656 44.6548 30.7656H49.7998V27.3706C49.7998 25.1656 51.3398 24.4656 53.1948 24.4656C55.0148 24.4656 56.5898 25.2006 56.5898 27.3706V30.7656Z" fill="#FB9504"/>
<path d="M99.9548 11.8656H80.9498C78.8498 11.8656 77.8698 10.2906 77.8698 8.85563C77.8698 7.45562 78.8148 5.84562 80.9498 5.84562H102.335C106.465 5.84562 107.725 7.42063 107.725 10.8506V14.7006C107.725 20.1606 106.99 24.2906 106.08 26.4956C105.135 28.5956 102.615 29.3656 100.795 28.4906C99.4648 27.7906 98.9048 26.4956 99.4298 24.9206C100.375 22.3656 100.83 19.2156 100.83 14.8406V12.7406C100.83 12.2506 100.515 11.8656 99.9548 11.8656ZM94.0398 31.2206H106.535C108.635 31.2206 109.475 32.6556 109.475 34.0906C109.475 35.5956 108.6 36.9606 106.535 36.9606H79.6548C77.5898 36.9606 76.7148 35.5956 76.7148 34.0906C76.7148 32.6556 77.5548 31.2206 79.6548 31.2206H86.8998V20.6156C86.8998 18.3406 88.6148 17.6406 90.4698 17.6406C92.2898 17.6406 94.0398 18.3756 94.0398 20.6156V31.2206Z" fill="#FB9504"/>
<path d="M143.495 37.6606H136.495V8.26062C136.495 5.98563 138.14 4.79563 139.995 4.79563C141.85 4.79563 143.495 5.98563 143.495 8.26062V37.6606ZM112.59 17.6056V14.2456C112.59 8.15563 117.07 5.39063 122.81 5.39063C128.55 5.39063 132.995 8.15563 132.995 14.2456V17.6056C132.995 23.6956 128.55 26.4606 122.81 26.4606C117.07 26.4606 112.59 23.6956 112.59 17.6056ZM119.45 14.0006V17.8506C119.45 20.1256 121.13 20.9656 122.81 20.9656C124.49 20.9656 126.17 20.1256 126.17 17.8506V14.0006C126.17 11.7606 124.49 10.8856 122.81 10.8856C121.13 10.8856 119.45 11.7606 119.45 14.0006ZM114.725 30.5206H132.26C134.43 30.5206 135.27 32.0606 135.27 33.4956C135.27 34.9656 134.395 36.4356 132.26 36.4356H114.725C112.59 36.4356 111.715 34.9656 111.715 33.4956C111.715 32.0606 112.555 30.5206 114.725 30.5206Z" fill="#FB9504"/>
<path d="M159.569 13.8956H159.254C157.609 13.8956 156.559 12.6356 156.559 11.1656C156.559 9.69563 157.539 8.50563 159.219 8.50563H169.054V8.05063C169.054 5.81063 170.559 4.51562 172.904 4.51562C175.249 4.51562 176.754 5.84562 176.754 8.05063V8.50563H186.554C188.234 8.50563 189.214 9.69563 189.214 11.1656C189.214 12.6356 188.199 13.8956 186.554 13.8956H186.204C186.729 14.8756 187.044 15.9606 187.044 17.0456C187.044 21.3856 184.069 25.3056 178.469 25.3056H167.304C161.704 25.3056 158.729 21.3856 158.729 17.0456C158.729 15.9606 159.044 14.8756 159.569 13.8956ZM168.949 20.1256H176.824C178.959 20.1256 180.044 18.6906 180.044 16.9056C180.044 15.0856 178.889 13.6856 176.754 13.6856H169.019C166.884 13.6856 165.729 15.0856 165.729 16.9056C165.729 18.6906 166.814 20.1256 168.949 20.1256ZM182.949 31.3956H186.379C188.444 31.3956 189.284 32.7606 189.284 34.1956C189.284 35.6656 188.409 36.9606 186.379 36.9606H159.429C157.399 36.9606 156.524 35.6656 156.524 34.1956C156.524 32.7606 157.364 31.3956 159.429 31.3956H162.859V29.1206C162.859 26.9156 164.399 26.2156 166.254 26.2156C168.074 26.2156 169.649 26.9506 169.649 29.1206V31.3956H176.159V29.1206C176.159 26.9156 177.699 26.2156 179.554 26.2156C181.374 26.2156 182.949 26.9506 182.949 29.1206V31.3956Z" fill="#FB9504"/>
<path d="M216.444 16.3456H199.329C194.989 16.3456 192.714 14.3156 192.714 10.8156V10.6756C192.714 7.17563 194.989 5.14563 199.329 5.14563H216.444C220.784 5.14563 223.094 7.17563 223.094 10.6756V10.8156C223.094 14.3156 220.784 16.3456 216.444 16.3456ZM199.819 10.7106V10.8156C199.819 11.4106 200.204 11.7956 201.149 11.7956H214.659C215.569 11.7956 215.989 11.4106 215.989 10.8156V10.7106C215.989 10.1156 215.569 9.69563 214.659 9.69563H201.149C200.204 9.69563 199.819 10.1156 199.819 10.7106ZM200.764 33.7056H221.869C223.304 33.7056 223.829 34.6856 223.829 35.7006C223.829 36.7156 223.339 37.6606 221.869 37.6606H196.914C193.904 37.6606 192.504 35.6656 192.504 33.3206V33.0406C192.504 30.6606 193.869 28.9456 196.914 28.9456H215.639V28.2456C215.639 27.9306 215.464 27.7206 215.009 27.7206H194.849C193.554 27.7206 192.854 26.7756 192.854 25.7606C192.854 24.7456 193.449 23.8006 194.849 23.8006H198.034V22.0856H194.079C192.399 22.0856 191.524 21.3156 191.524 19.8456C191.524 18.4106 192.364 17.5706 194.079 17.5706H221.729C223.444 17.5706 224.284 18.4106 224.284 19.8456C224.284 21.3156 223.409 22.0856 221.729 22.0856H217.774V23.8006H218.929C221.904 23.8006 222.849 24.9206 222.849 27.0556V32.4806H200.764C200.274 32.4806 200.029 32.7256 200.029 33.1106C200.029 33.4606 200.274 33.7056 200.764 33.7056ZM211.019 22.0856H204.824V23.8006H211.019V22.0856Z" fill="#FB9504"/>
<path d="M28.0998 75.3756C26.3848 75.3756 24.9498 74.3956 24.7748 72.6806C24.5998 71.0006 25.5098 69.6356 27.2948 69.2506C31.9148 68.2356 36.1498 64.3156 36.8848 58.4356C37.1648 56.2306 38.7048 55.2856 40.5948 55.2856C42.6948 55.2856 44.1998 56.6856 44.1298 58.9956C44.0948 60.0806 43.9198 61.1656 43.6748 62.2156C49.5548 62.3556 55.6098 66.4506 56.2748 75.3756H49.1698C48.5398 70.6506 45.1098 67.7806 40.9448 67.8856C37.7598 72.2956 32.7198 75.3756 28.0998 75.3756ZM27.2248 81.0456H53.9648C56.1348 81.0456 56.9748 82.5856 56.9748 84.0206C56.9748 85.4906 56.0998 86.9606 53.9648 86.9606H27.2248C25.0898 86.9606 24.2148 85.4906 24.2148 84.0206C24.2148 82.5856 25.0548 81.0456 27.2248 81.0456Z" fill="#FB9504"/>
<path d="M89.9448 67.0456H91.2048C93.3398 67.0456 93.9698 68.6906 93.9698 70.0906C93.9698 71.5256 93.3048 73.1356 91.2048 73.1356H89.9448V87.6606H82.9448V58.2606C82.9448 55.9856 84.5898 54.7956 86.4448 54.7956C88.2998 54.7956 89.9448 55.9856 89.9448 58.2606V67.0456ZM65.5498 55.9506H73.8798C78.3948 55.9506 79.2348 57.3156 79.2348 61.7256V86.3306H65.5498C61.0348 86.3306 60.1948 84.9656 60.1948 80.5556V61.7256C60.1948 57.3156 61.0348 55.9506 65.5498 55.9506ZM68.1048 80.8356H72.4798V62.6006C72.4798 61.9006 72.3048 61.4456 71.5348 61.4456H67.8598C67.0898 61.4456 66.9498 61.9006 66.9498 62.6006V79.6456C66.9498 80.4156 67.1948 80.8356 68.1048 80.8356Z" fill="#FB9504"/>
<path d="M101.355 55.8456H122.565C124.525 55.8456 125.26 57.2806 125.26 58.5756C125.26 59.9056 124.49 61.2706 122.565 61.2706H103.945C103.245 61.2706 102.895 61.5506 102.895 62.1806V63.5456H122.355C124.315 63.5456 125.05 64.9106 125.05 66.1706C125.05 67.4656 124.28 68.7956 122.355 68.7956H102.895V70.1256C102.895 70.8256 103.245 71.0706 103.945 71.0706H123.125C125.085 71.0706 125.82 72.4706 125.82 73.7656C125.82 75.0956 125.05 76.4606 123.125 76.4606H101.355C97.2948 76.4606 95.7898 74.7806 95.7898 71.0006V61.3056C95.7898 57.5256 97.2948 55.8456 101.355 55.8456ZM97.2248 81.0456H123.965C126.135 81.0456 126.975 82.5856 126.975 84.0206C126.975 85.4906 126.1 86.9606 123.965 86.9606H97.2248C95.0898 86.9606 94.2148 85.4906 94.2148 84.0206C94.2148 82.5856 95.0548 81.0456 97.2248 81.0456Z" fill="#FB9504"/>
<path d="M158.974 81.2206H168.844C170.944 81.2206 171.784 82.6556 171.784 84.0906C171.784 85.5956 170.909 86.9606 168.844 86.9606H141.964C139.899 86.9606 139.024 85.5956 139.024 84.0906C139.024 82.6556 139.864 81.2206 141.964 81.2206H151.834V74.7456H149.419C143.574 74.7456 140.039 70.4406 140.039 65.6456V64.7706C140.039 59.9756 143.574 55.6706 149.419 55.6706H161.354C167.199 55.6706 170.769 59.9756 170.769 64.7706V65.6456C170.769 70.4406 167.199 74.7456 161.354 74.7456H158.974V81.2206ZM147.319 64.7356V65.6806C147.319 67.6406 148.894 69.0756 151.239 69.0756H159.534C161.879 69.0756 163.489 67.6406 163.489 65.6806V64.7356C163.489 62.7756 161.879 61.3406 159.534 61.3406H151.239C148.894 61.3406 147.319 62.7756 147.319 64.7356Z" fill="#FB9504"/>
<path d="M202.304 54.7956C204.159 54.7956 205.804 55.9856 205.804 58.2606V87.6606H198.804V58.2606C198.804 55.9856 200.449 54.7956 202.304 54.7956ZM193.519 61.7606H176.824C175.109 61.7606 174.129 60.2906 174.129 58.9256C174.129 57.5606 174.969 56.0206 176.824 56.0206H193.519C195.374 56.0206 196.214 57.5606 196.214 58.9256C196.214 60.2906 195.234 61.7606 193.519 61.7606ZM193.309 80.7656H194.429C196.284 80.7656 197.089 82.0956 197.089 83.4606C197.089 84.8256 196.144 86.2606 194.429 86.2606H176.404C174.689 86.2606 173.744 84.8256 173.744 83.4606C173.744 82.0956 174.549 80.7656 176.404 80.7656H177.209V66.1356C177.209 64.0706 178.574 63.0556 180.604 63.0556C182.599 63.0556 183.929 64.1056 183.929 66.1356V80.7656H186.589V66.1356C186.589 64.0706 187.884 63.0556 189.914 63.0556C191.909 63.0556 193.309 64.1056 193.309 66.1356V80.7656Z" fill="#FB9504"/>
<path d="M212.909 75.3756C211.194 75.3756 209.759 74.3956 209.584 72.6806C209.409 71.0006 210.319 69.6356 212.104 69.2506C216.724 68.2356 220.959 64.3156 221.694 58.4356C221.974 56.2306 223.514 55.2856 225.404 55.2856C227.504 55.2856 229.009 56.6856 228.939 58.9956C228.904 60.0806 228.729 61.1656 228.484 62.2156C234.364 62.3556 240.419 66.4506 241.084 75.3756H233.979C233.349 70.6506 229.919 67.7806 225.754 67.8856C222.569 72.2956 217.529 75.3756 212.909 75.3756ZM212.034 81.0456H238.774C240.944 81.0456 241.784 82.5856 241.784 84.0206C241.784 85.4906 240.909 86.9606 238.774 86.9606H212.034C209.899 86.9606 209.024 85.4906 209.024 84.0206C209.024 82.5856 209.864 81.0456 212.034 81.0456Z" fill="#FB9504"/>
</g>
<defs>
<filter id="filter0_i_1137_1821" x="24.2148" y="4.51562" width="217.57" height="83.1445" filterUnits="userSpaceOnUse" color-interpolation-filters="sRGB">
<feFlood flood-opacity="0" result="BackgroundImageFix"/>
<feBlend mode="normal" in="SourceGraphic" in2="BackgroundImageFix" result="shape"/>
<feColorMatrix in="SourceAlpha" type="matrix" values="0 0 0 0 0 0 0 0 0 0 0 0 0 0 0 0 0 0 127 0" result="hardAlpha"/>
<feOffset dy="-2"/>
<feComposite in2="hardAlpha" operator="arithmetic" k2="-1" k3="1"/>
<feColorMatrix type="matrix" values="0 0 0 0 0 0 0 0 0 0 0 0 0 0 0 0 0 0 0.08 0"/>
<feBlend mode="normal" in2="shape" result="effect1_innerShadow_1137_1821"/>
</filter>
</defs>
</svg>
