<svg width="266" height="100" viewBox="0 0 266 100" fill="none" xmlns="http://www.w3.org/2000/svg">
<g filter="url(#filter0_i_1137_1829)">
<path d="M39.2242 19.9849V21.4549H24.8392C21.4792 21.4549 20.3242 20.0549 20.3242 17.1149V8.50492C20.3242 6.50992 21.5492 5.42492 23.5792 5.42492C25.5742 5.42492 26.6942 6.54492 26.6942 8.50492V8.57492H32.9242V8.50492C32.9242 6.50992 34.0792 5.42492 36.0742 5.42492C37.9992 5.42492 39.1192 6.43992 39.2242 8.22492H44.0892C44.0892 5.98492 45.7342 4.79492 47.5892 4.79492C49.4442 4.79492 51.0892 5.98492 51.0892 8.25992V21.9099H44.0892V19.9849H39.2242ZM39.2242 12.9849V15.2249H44.0892V12.9849H39.2242ZM32.8892 16.7999V13.0199H26.6942V15.8899C26.6942 16.6949 26.8692 16.7999 27.6742 16.7999H32.8892ZM29.5992 33.5299H50.0392C51.4392 33.5299 52.0342 34.6149 52.0342 35.6649C52.0342 36.6449 51.4742 37.6599 50.0392 37.6599H26.3442C23.1592 37.6599 21.4442 35.6299 21.4442 33.1799V32.3749C21.4442 30.0299 23.1592 28.4199 26.3442 28.4199H44.0192V27.6149C44.0192 27.1949 43.9142 27.0199 43.4592 27.0199H23.7542C22.3892 27.0199 21.8292 26.0399 21.8292 24.9899C21.8292 24.0099 22.4242 22.9599 23.7542 22.9599H46.9942C50.0392 22.9599 51.1242 23.8699 51.1242 26.5649V32.1299H29.5992C29.1092 32.1299 28.8642 32.4099 28.8642 32.7249V32.8999C28.8642 33.2149 29.1092 33.5299 29.5992 33.5299Z" fill="#FB9504"/>
<path d="M95.8988 8.25992V23.3099H88.8988V8.25992C88.8988 5.98492 90.5438 4.79492 92.3988 4.79492C94.2538 4.79492 95.8988 5.98492 95.8988 8.25992ZM84.9088 21.4549H69.6488C66.2888 21.4549 65.1338 20.0549 65.1338 17.1149V8.67992C65.1338 6.64992 66.3938 5.59992 68.4238 5.59992C70.4188 5.59992 71.6088 6.68492 71.6088 8.67992H78.5038C78.5038 6.64992 79.7288 5.59992 81.7238 5.59992C83.7538 5.59992 84.9088 6.68492 84.9088 8.67992V21.4549ZM78.4688 16.6599V13.2999H71.6088V15.7499C71.6088 16.5549 71.7838 16.6599 72.5888 16.6599H78.4688ZM84.4888 31.2199C90.8238 30.6949 96.4588 32.4449 97.6488 37.6599H90.3338C88.6538 35.4549 84.8738 34.5799 80.4288 35.2449C77.1388 37.0649 72.6238 37.7649 68.6688 37.6599C66.8138 37.5899 65.6938 36.5749 65.7638 34.8599C65.8338 33.5649 66.9188 32.5849 68.4938 32.5849C72.6238 32.5849 76.5788 32.0599 78.1888 29.9949H68.7038C66.8838 29.9949 66.1838 28.7699 66.1838 27.5099C66.1838 26.3199 66.8488 25.0599 68.7038 25.0599H77.7688C77.9088 23.2399 79.1338 22.2599 81.4088 22.2599C83.6838 22.2599 84.8738 23.2749 85.0488 25.0599H93.9038C95.7588 25.0599 96.4238 26.3199 96.4238 27.5099C96.4238 28.7699 95.7238 29.9949 93.9038 29.9949H84.9438C84.8388 30.4149 84.6988 30.8349 84.4888 31.2199Z" fill="#FB9504"/>
<path d="M130.899 37.6599H123.899V8.25992C123.899 5.98492 125.544 4.79492 127.399 4.79492C129.254 4.79492 130.899 5.98492 130.899 8.25992V37.6599ZM100.029 27.5799V14.7349C100.029 8.67992 104.229 5.35492 109.969 5.35492C115.709 5.35492 119.944 8.64492 119.944 14.7349V27.5799C119.944 33.7049 115.709 36.9949 110.004 36.9949C104.264 36.9949 100.029 33.7049 100.029 27.5799ZM106.854 14.4899V27.8249C106.854 30.1349 108.359 31.2549 109.969 31.2549C111.579 31.2549 113.154 30.1349 113.154 27.8249V14.4899C113.154 12.2499 111.579 11.0599 109.969 11.0949C108.359 11.1299 106.854 12.2849 106.854 14.4899Z" fill="#FB9504"/>
<path d="M173.188 4.79492C175.043 4.79492 176.233 5.98492 176.233 7.80492V37.6599H170.108V23.3099H168.183V37.6599H161.883V7.90992C161.883 5.98492 163.178 4.79492 165.033 4.79492C166.888 4.79492 168.183 5.98492 168.183 7.90992V17.4999H170.108V7.80492C170.108 5.98492 171.333 4.79492 173.188 4.79492ZM152.433 29.9949H158.068C160.098 29.9949 160.693 31.5699 160.693 32.8999C160.693 34.2649 160.063 35.9099 158.068 35.9099H149.738C145.888 35.9099 144.698 34.4399 144.698 30.7649V9.58992C144.698 7.24492 146.238 6.19492 148.128 6.19492C150.053 6.19492 151.418 7.27992 151.418 9.58992V29.0149C151.418 29.8199 151.628 29.9949 152.433 29.9949Z" fill="#FB9504"/>
<path d="M210.708 37.6599H203.708V8.25992C203.708 5.98492 205.353 4.79492 207.208 4.79492C209.063 4.79492 210.708 5.98492 210.708 8.25992V37.6599ZM198.843 36.1899H185.753C181.518 36.1899 179.873 34.6499 179.873 30.4149V23.6949C179.873 19.4599 181.518 17.9899 185.753 17.9899H192.228V12.8799C192.228 12.4249 192.088 11.9349 191.353 11.9349H183.163C181.063 11.9349 180.188 10.4649 180.188 9.02992C180.188 7.62992 181.028 6.08992 183.163 6.08992H193.278C197.968 6.08992 199.228 7.41992 199.228 11.2699V23.6949H188.448C187.258 23.6949 186.873 23.9749 186.873 25.1649V28.9799C186.873 30.1699 187.258 30.4499 188.448 30.4499H198.843C200.978 30.4499 201.818 31.9199 201.818 33.3199C201.818 34.7549 200.943 36.1899 198.843 36.1899Z" fill="#FB9504"/>
<path d="M223.693 11.8999H242.523C244.553 11.8999 245.323 13.2299 245.323 14.6299C245.323 16.0649 244.518 17.4649 242.523 17.4649H220.368C216.728 17.4649 215.538 15.9949 215.538 13.0199V8.57492C215.538 6.22992 217.253 5.17992 219.143 5.17992C221.068 5.17992 222.678 6.26492 222.678 8.57492V11.1649C222.678 11.7249 222.888 11.8999 223.693 11.8999ZM216.868 19.4949H243.748C245.848 19.4949 246.688 20.9299 246.688 22.3649C246.688 23.8349 245.813 25.2349 243.748 25.2349H216.868C214.803 25.2349 213.928 23.8349 213.928 22.3649C213.928 20.9299 214.768 19.4949 216.868 19.4949ZM242.663 37.6599H220.683C216.728 37.6599 215.678 36.3649 215.678 32.5849V29.8899C215.678 27.5099 217.358 26.6349 219.318 26.6349C221.278 26.6349 222.853 27.5449 222.853 29.8899V31.3599C222.853 32.1299 223.028 32.2349 223.798 32.2349H242.663C244.798 32.2349 245.603 33.5299 245.603 34.9299C245.603 36.3649 244.763 37.6599 242.663 37.6599Z" fill="#FB9504"/>
<path d="M27.504 75.2349C25.789 75.2699 24.459 74.2199 24.459 72.6449C24.459 71.0349 25.299 70.1599 26.664 69.9499C29.744 69.3899 31.634 67.3249 31.634 64.1049V63.6849H27.189C25.544 63.6849 24.634 62.2149 24.634 60.9549C24.634 59.6949 25.404 58.1199 27.189 58.1199H31.529V57.8399C31.529 55.7399 32.684 54.7599 34.854 54.7599C37.024 54.7599 38.249 55.7749 38.249 57.8399V58.1199H42.694C44.479 58.1199 45.249 59.6949 45.249 60.9549C45.249 62.2149 44.339 63.6849 42.694 63.6849H38.144V64.1049C38.144 64.7349 38.109 65.3649 38.004 65.9249C43.149 66.1349 45.634 68.8649 45.564 74.9899H39.089C39.299 72.2599 37.969 70.7899 36.114 70.7899C34.049 73.6599 30.724 75.1649 27.504 75.2349ZM44.304 66.0649C44.304 64.4549 45.424 63.2999 47.209 63.2999H48.994V58.2599C48.994 55.9849 50.639 54.7949 52.494 54.7949C54.349 54.7949 55.994 55.9849 55.994 58.2599V79.6099H48.994V68.7599H47.209C45.459 68.7599 44.304 67.7099 44.304 66.0649ZM34.749 82.3049H54.069C56.134 82.3049 56.939 83.5649 56.939 84.9649C56.939 86.3999 56.099 87.6599 54.069 87.6599H31.914C27.994 87.6599 26.944 86.2949 26.944 82.5499V79.9599C26.944 77.8249 28.589 76.7399 30.549 76.7399C32.509 76.7399 34.049 77.8599 34.049 79.9599V81.6399C34.049 82.1649 34.224 82.3049 34.749 82.3049Z" fill="#FB9504"/>
<path d="M90.434 68.5499H65.479C61.489 68.5499 60.754 67.3949 60.754 63.5449V60.3249C60.754 56.4749 61.489 55.3199 65.479 55.3199H85.709C89.699 55.3199 90.434 56.4749 90.434 60.3249V68.5499ZM67.754 60.9899V62.8449C67.754 63.2649 67.859 63.5449 68.559 63.5449H83.434V60.9899C83.434 60.6399 83.364 60.3249 82.699 60.3249H68.489C67.824 60.3249 67.754 60.6399 67.754 60.9899ZM62.119 70.1949H89.069C91.134 70.1949 91.974 71.5599 91.974 72.9949C91.974 74.4649 91.099 75.7599 89.069 75.7599H79.514V80.3099H72.374V75.7599H62.119C60.089 75.7599 59.214 74.4649 59.214 72.9949C59.214 71.5599 60.054 70.1949 62.119 70.1949ZM69.084 82.2699H87.949C90.084 82.2699 90.889 83.5649 90.889 84.9649C90.889 86.3999 90.049 87.6599 87.949 87.6599H65.969C62.014 87.6599 60.964 86.3649 60.964 82.6549V80.2049C60.964 77.8599 62.644 76.9849 64.604 76.9849C66.564 76.9849 68.139 77.8949 68.139 80.2049V81.4299C68.139 82.1649 68.314 82.2699 69.084 82.2699Z" fill="#FB9504"/>
<path d="M95.719 67.0449V64.6299C95.719 63.8599 95.894 63.1599 96.209 62.5649C94.634 62.4949 93.759 61.5149 93.759 60.0799C93.759 58.6099 94.634 57.6299 96.349 57.6299H101.354C101.494 55.6699 102.824 54.5149 104.924 54.5149C107.024 54.5149 108.319 55.6699 108.459 57.6299H113.464C115.179 57.6299 116.089 58.6099 116.089 60.0799C116.089 61.5149 115.214 62.4949 113.604 62.5649C113.919 63.1599 114.094 63.8599 114.094 64.6299V67.0449C114.094 71.5249 110.559 74.2199 104.924 74.2199C99.289 74.2199 95.719 71.5249 95.719 67.0449ZM125.119 61.0949H126.204C128.339 61.0949 128.969 62.7399 128.969 64.1399C128.969 65.5749 128.304 67.1849 126.204 67.1849H125.119V74.3599H118.119V58.2599C118.119 55.9849 119.764 54.7949 121.619 54.7949C123.474 54.7949 125.119 55.9849 125.119 58.2599V61.0949ZM107.724 66.4849V65.0499C107.724 63.4049 106.639 62.3199 104.924 62.3199C103.174 62.3199 102.089 63.4049 102.089 65.0499V66.4849C102.089 68.0949 103.174 69.2149 104.924 69.2149C106.639 69.2149 107.724 68.0949 107.724 66.4849ZM99.324 75.6199H120.324C124.699 75.6199 125.504 76.8099 125.504 81.0099V87.6599H118.434V81.8849C118.434 81.3599 118.154 81.0449 117.594 81.0449H99.324C97.399 81.0449 96.314 79.9949 96.314 78.3499C96.314 76.7049 97.399 75.6199 99.324 75.6199Z" fill="#FB9504"/>
<path d="M149.384 74.0449C143.749 74.0449 139.759 71.3499 139.759 66.2049V63.1949C139.759 58.0849 143.714 55.3549 149.349 55.3549C152.814 55.3549 155.649 56.3699 157.329 58.3299H163.804V58.2599C163.804 55.9849 165.449 54.7949 167.304 54.7949C169.159 54.7949 170.804 55.9849 170.804 58.2599V79.6099H163.804V71.3149H157.119C155.404 73.1349 152.674 74.0449 149.384 74.0449ZM146.444 63.1249V66.2399C146.444 67.8849 147.704 68.8649 149.349 68.8649C150.994 68.8649 152.289 67.8849 152.289 66.2399V63.1249C152.289 61.4799 150.994 60.4999 149.349 60.5349C147.704 60.5699 146.444 61.5149 146.444 63.1249ZM158.974 66.3799H163.804V63.2649H158.974V66.3799ZM149.699 82.2699H168.844C170.944 82.2699 171.749 83.5299 171.749 84.9299C171.749 86.3649 170.909 87.6599 168.844 87.6599H146.724C142.804 87.6599 141.754 86.2949 141.754 82.5499V78.8749C141.754 76.5999 143.399 75.5149 145.359 75.5149C147.319 75.5149 148.859 76.6349 148.859 78.8749V81.4649C148.859 82.1299 149.034 82.2699 149.699 82.2699Z" fill="#FB9504"/>
<path d="M203.669 72.4699H203.844C205.944 72.4699 206.784 73.9049 206.784 75.3399C206.784 76.8099 205.909 78.2099 203.844 78.2099H193.974V87.8349H186.834V78.2099H176.964C174.899 78.2099 174.024 76.8099 174.024 75.3399C174.024 73.9049 174.864 72.4699 176.964 72.4699H196.459C197.579 70.5449 198.139 68.0599 198.139 64.4899V62.5649C198.139 62.0749 197.824 61.6899 197.264 61.6899H178.259C176.159 61.6899 175.179 60.1149 175.179 58.6799C175.179 57.2799 176.124 55.6699 178.259 55.6699H199.644C203.774 55.6699 205.034 57.2449 205.034 60.6749V63.9999C205.034 67.3599 204.509 70.2299 203.669 72.4699Z" fill="#FB9504"/>
<path d="M212.909 75.3749C211.194 75.3749 209.759 74.3949 209.584 72.6799C209.409 70.9999 210.319 69.6349 212.104 69.2499C216.724 68.2349 220.959 64.3149 221.694 58.4349C221.974 56.2299 223.514 55.2849 225.404 55.2849C227.504 55.2849 229.009 56.6849 228.939 58.9949C228.904 60.0799 228.729 61.1649 228.484 62.2149C234.364 62.3549 240.419 66.4499 241.084 75.3749H233.979C233.349 70.6499 229.919 67.7799 225.754 67.8849C222.569 72.2949 217.529 75.3749 212.909 75.3749ZM228.974 81.2199H238.844C240.944 81.2199 241.784 82.6549 241.784 84.0899C241.784 85.5949 240.909 86.9599 238.844 86.9599H211.964C209.899 86.9599 209.024 85.5949 209.024 84.0899C209.024 82.6549 209.864 81.2199 211.964 81.2199H221.834V76.3899C221.834 74.1149 223.549 73.4149 225.404 73.4149C227.224 73.4149 228.974 74.1499 228.974 76.3899V81.2199Z" fill="#FB9504"/>
</g>
<defs>
<filter id="filter0_i_1137_1829" x="20.3242" y="4.79492" width="226.363" height="83.0391" filterUnits="userSpaceOnUse" color-interpolation-filters="sRGB">
<feFlood flood-opacity="0" result="BackgroundImageFix"/>
<feBlend mode="normal" in="SourceGraphic" in2="BackgroundImageFix" result="shape"/>
<feColorMatrix in="SourceAlpha" type="matrix" values="0 0 0 0 0 0 0 0 0 0 0 0 0 0 0 0 0 0 127 0" result="hardAlpha"/>
<feOffset dy="-2"/>
<feComposite in2="hardAlpha" operator="arithmetic" k2="-1" k3="1"/>
<feColorMatrix type="matrix" values="0 0 0 0 0 0 0 0 0 0 0 0 0 0 0 0 0 0 0.08 0"/>
<feBlend mode="normal" in2="shape" result="effect1_innerShadow_1137_1829"/>
</filter>
</defs>
</svg>
