<svg width="266" height="100" viewBox="0 0 266 100" fill="none" xmlns="http://www.w3.org/2000/svg">
<g filter="url(#filter0_i_1137_1817)">
<path d="M44.1667 31.2198H54.0367C56.1367 31.2198 56.9767 32.6548 56.9767 34.0898C56.9767 35.5948 56.1017 36.9598 54.0367 36.9598H27.1567C25.0917 36.9598 24.2167 35.5948 24.2167 34.0898C24.2167 32.6548 25.0567 31.2198 27.1567 31.2198H37.0267V24.6748H30.9717C26.7717 24.6748 26.0017 23.4148 26.0017 19.3898V11.1298C26.0017 7.10484 26.7717 5.84484 30.9717 5.84484H50.2217C54.4217 5.84484 55.1917 7.10484 55.1917 11.1298V24.6748H44.1667V31.2198ZM33.0017 12.3548V18.1298C33.0017 18.7948 33.2117 19.1798 34.0517 19.1798H48.1917V12.3548C48.1917 11.7598 48.0517 11.3398 47.3517 11.3398H33.8067C33.1067 11.3398 33.0017 11.7598 33.0017 12.3548Z" fill="#FB9504"/>
<path d="M87.8817 21.5948H66.0767C62.3317 21.5948 60.8967 20.3348 60.8967 16.7298V10.3948C60.8967 6.82484 62.3317 5.56484 66.0767 5.56484H87.4617C89.2467 5.56484 89.9467 7.17484 89.9467 8.46984C89.9467 9.72984 89.2117 11.3398 87.4617 11.3398H68.8417C68.2117 11.3398 67.9667 11.5148 67.9667 12.1098V15.0498C67.9667 15.6448 68.2117 15.8898 68.8417 15.8898H87.8817C89.5967 15.8898 90.3667 17.4998 90.3667 18.7248C90.3667 19.9848 89.5617 21.5948 87.8817 21.5948ZM62.1567 24.0448H89.0367C91.1367 24.0448 91.9767 25.4798 91.9767 26.9148C91.9767 28.3848 91.1017 29.7848 89.0367 29.7848H79.1667V37.8348H72.0267V29.7848H62.1567C60.0917 29.7848 59.2167 28.3848 59.2167 26.9148C59.2167 25.4798 60.0567 24.0448 62.1567 24.0448Z" fill="#FB9504"/>
<path d="M125.997 37.6598H118.997V8.25984C118.997 5.98484 120.642 4.79484 122.497 4.79484C124.352 4.79484 125.997 5.98484 125.997 8.25984V37.6598ZM95.0917 17.6048V14.2448C95.0917 8.15484 99.5717 5.38984 105.312 5.38984C111.052 5.38984 115.497 8.15484 115.497 14.2448V17.6048C115.497 23.6948 111.052 26.4598 105.312 26.4598C99.5717 26.4598 95.0917 23.6948 95.0917 17.6048ZM101.952 13.9998V17.8498C101.952 20.1248 103.632 20.9648 105.312 20.9648C106.992 20.9648 108.672 20.1248 108.672 17.8498V13.9998C108.672 11.7598 106.992 10.8848 105.312 10.8848C103.632 10.8848 101.952 11.7598 101.952 13.9998ZM97.2267 30.5198H114.762C116.932 30.5198 117.772 32.0598 117.772 33.4948C117.772 34.9648 116.897 36.4348 114.762 36.4348H97.2267C95.0917 36.4348 94.2167 34.9648 94.2167 33.4948C94.2167 32.0598 95.0567 30.5198 97.2267 30.5198Z" fill="#FB9504"/>
<path d="M140.566 15.1898V14.1748C140.566 13.4398 140.741 12.7748 141.056 12.2148C139.446 12.1448 138.571 11.1998 138.571 9.76484C138.571 8.29485 139.446 7.34984 141.161 7.34984H146.341C146.516 5.45984 147.881 4.33984 149.911 4.33984C151.941 4.33984 153.271 5.45984 153.446 7.34984H158.626C160.341 7.34984 161.251 8.29485 161.251 9.76484C161.251 11.1998 160.341 12.1798 158.731 12.2148C159.046 12.7748 159.221 13.4398 159.221 14.1748V15.1898C159.221 19.4598 155.651 22.1198 149.911 22.1198C144.171 22.1198 140.566 19.4598 140.566 15.1898ZM170.806 8.25984V22.0848H163.806V8.25984C163.806 5.98484 165.451 4.79484 167.306 4.79484C169.161 4.79484 170.806 5.98484 170.806 8.25984ZM152.851 15.1898V13.9998C152.851 12.4948 151.661 11.5848 149.911 11.5848C148.126 11.5848 146.936 12.4948 146.936 13.9998V15.1898C146.936 16.6598 148.126 17.5698 149.911 17.5698C151.661 17.5698 152.851 16.6598 152.851 15.1898ZM149.316 33.5648H169.756C171.156 33.5648 171.751 34.6148 171.751 35.6648C171.751 36.6448 171.191 37.6598 169.756 37.6598H146.061C142.876 37.6598 141.161 35.6998 141.161 33.2498V32.4448C141.161 30.0998 142.876 28.5248 146.061 28.5248H163.736V27.7548C163.736 27.3348 163.631 27.1598 163.176 27.1598H143.471C142.106 27.1598 141.546 26.1798 141.546 25.1298C141.546 24.1498 142.141 23.1348 143.471 23.1348H166.746C169.791 23.1348 170.841 24.0448 170.841 26.7048V32.1648H149.316C148.826 32.1648 148.581 32.4798 148.581 32.7948V32.9348C148.581 33.2848 148.826 33.5648 149.316 33.5648Z" fill="#FB9504"/>
<path d="M205.806 24.0098H198.806V8.25984C198.806 5.98484 200.451 4.79484 202.306 4.79484C204.161 4.79484 205.806 5.98484 205.806 8.25984V24.0098ZM194.991 23.6248H180.501C176.826 23.6248 174.796 21.3848 174.796 18.1998V17.6398C174.796 14.4198 176.791 12.4598 180.151 12.4598H187.116V11.1648C187.116 10.6398 186.906 10.4998 186.311 10.4998H177.211C175.671 10.4998 174.936 9.27485 174.936 8.08484C174.936 6.85984 175.706 5.63484 177.211 5.63484H189.671C192.926 5.63484 194.291 7.24484 194.291 9.83484V16.8698H183.021C182.461 16.8698 181.971 17.1498 181.971 17.8148V17.9198C181.971 18.5498 182.461 18.7948 183.021 18.7948H194.991C196.531 18.7948 197.266 20.0198 197.266 21.2448C197.266 22.4348 196.601 23.6248 194.991 23.6248ZM176.161 31.4298C176.161 27.7198 178.471 25.0948 183.511 25.0948H198.841C203.846 25.0948 206.191 27.6498 206.191 31.4298C206.191 35.2098 203.846 37.7648 198.841 37.7648H183.511C178.471 37.7648 176.161 35.1398 176.161 31.4298ZM183.266 31.4298C183.266 32.3748 183.861 33.0748 185.191 33.0748H197.196C198.491 33.0748 199.086 32.3748 199.086 31.4298C199.086 30.4848 198.491 29.7848 197.196 29.7848H185.191C183.861 29.7848 183.266 30.4848 183.266 31.4298Z" fill="#FB9504"/>
<path d="M237.306 4.79484C239.161 4.79484 240.806 5.98484 240.806 8.25984V37.6598H233.806V8.25984C233.806 5.98484 235.451 4.79484 237.306 4.79484ZM227.716 12.1098H222.991V16.9048C222.991 18.1298 222.921 19.2848 222.781 20.4048C227.751 22.0848 230.971 25.9348 230.551 35.6998H223.831C224.356 30.8698 223.411 28.0348 221.276 26.5998C218.826 32.7948 214.346 35.9448 211.581 35.9448C209.516 35.9448 208.361 34.6848 208.361 33.1098C208.361 31.9548 208.851 31.1848 209.901 30.4848C213.996 27.8598 216.236 23.5548 216.236 15.8548V12.1098H211.511C209.411 12.1098 208.536 10.5698 208.536 9.13484C208.536 7.73484 209.376 6.12484 211.511 6.12484H227.716C229.851 6.12484 230.621 7.73484 230.621 9.13484C230.621 10.5698 229.816 12.1098 227.716 12.1098Z" fill="#FB9504"/>
<path d="M38.3567 58.5048H43.2917C45.0067 58.5048 45.9167 59.7648 45.9167 61.2348C45.9167 62.6698 45.0067 63.9648 43.3967 63.9998C43.7467 64.8748 43.9567 65.8548 43.9567 66.9748V78.0698C43.9567 84.1598 40.1767 86.9948 34.8217 86.9948C29.5017 86.9948 25.6867 84.1598 25.6867 78.0698V66.9748C25.6867 65.8548 25.8967 64.8748 26.2467 63.9998C24.6717 63.9298 23.7617 62.6698 23.7617 61.2348C23.7617 59.7648 24.6367 58.5048 26.3517 58.5048H31.2867V58.1548C31.2867 55.9848 32.6167 54.6898 34.8217 54.6898C37.0267 54.6898 38.3567 55.9848 38.3567 58.1548V58.5048ZM54.9467 67.0448H56.2067C58.3417 67.0448 58.9717 68.6898 58.9717 70.0898C58.9717 71.5248 58.3067 73.1348 56.2067 73.1348H54.9467V87.6598H47.9467V58.2598C47.9467 55.9848 49.5917 54.7948 51.4467 54.7948C53.3017 54.7948 54.9467 55.9848 54.9467 58.2598V67.0448ZM37.4817 78.3148V66.5898C37.4817 64.7698 36.5017 63.6848 34.8217 63.6848C33.1417 63.6848 32.1617 64.7698 32.1617 66.5898V78.3148C32.1617 80.0998 33.1417 81.3598 34.8217 81.3598C36.5017 81.3598 37.4817 80.0998 37.4817 78.3148Z" fill="#FB9504"/>
<path d="M79.1667 81.2198H89.0367C91.1367 81.2198 91.9767 82.6548 91.9767 84.0898C91.9767 85.5948 91.1017 86.9598 89.0367 86.9598H62.1567C60.0917 86.9598 59.2167 85.5948 59.2167 84.0898C59.2167 82.6548 60.0567 81.2198 62.1567 81.2198H72.0267V74.6748H65.9717C61.7717 74.6748 61.0017 73.4148 61.0017 69.3898V61.1298C61.0017 57.1048 61.7717 55.8448 65.9717 55.8448H85.2217C89.4217 55.8448 90.1917 57.1048 90.1917 61.1298V74.6748H79.1667V81.2198ZM68.0017 62.3548V68.1298C68.0017 68.7948 68.2117 69.1798 69.0517 69.1798H83.1917V62.3548C83.1917 61.7598 83.0517 61.3398 82.3517 61.3398H68.8067C68.1067 61.3398 68.0017 61.7598 68.0017 62.3548Z" fill="#FB9504"/>
<path d="M125.997 87.6598H118.997V58.2598C118.997 55.9848 120.642 54.7948 122.497 54.7948C124.352 54.7948 125.997 55.9848 125.997 58.2598V87.6598ZM103.352 79.9948H114.132C116.162 79.9948 116.757 81.5698 116.757 82.8998C116.757 84.2648 116.127 85.9098 114.132 85.9098H100.657C96.5267 85.9098 95.3367 84.4398 95.3367 80.4848V59.5898C95.3367 57.2448 97.0167 56.1948 98.9067 56.1948C100.832 56.1948 102.337 57.2798 102.337 59.5898V79.0148C102.337 79.8198 102.547 79.9948 103.352 79.9948Z" fill="#FB9504"/>
<path d="M153.166 58.5048H158.101C159.816 58.5048 160.726 59.7648 160.726 61.2348C160.726 62.6698 159.816 63.9648 158.206 63.9998C158.556 64.8748 158.766 65.8548 158.766 66.9748V78.0698C158.766 84.1598 154.986 86.9948 149.631 86.9948C144.311 86.9948 140.496 84.1598 140.496 78.0698V66.9748C140.496 65.8548 140.706 64.8748 141.056 63.9998C139.481 63.9298 138.571 62.6698 138.571 61.2348C138.571 59.7648 139.446 58.5048 141.161 58.5048H146.096V58.1548C146.096 55.9848 147.426 54.6898 149.631 54.6898C151.836 54.6898 153.166 55.9848 153.166 58.1548V58.5048ZM169.756 67.0448H171.016C173.151 67.0448 173.781 68.6898 173.781 70.0898C173.781 71.5248 173.116 73.1348 171.016 73.1348H169.756V87.6598H162.756V58.2598C162.756 55.9848 164.401 54.7948 166.256 54.7948C168.111 54.7948 169.756 55.9848 169.756 58.2598V67.0448ZM152.291 78.3148V66.5898C152.291 64.7698 151.311 63.6848 149.631 63.6848C147.951 63.6848 146.971 64.7698 146.971 66.5898V78.3148C146.971 80.0998 147.951 81.3598 149.631 81.3598C151.311 81.3598 152.291 80.0998 152.291 78.3148Z" fill="#FB9504"/>
<path d="M205.806 87.6598H198.806V58.2598C198.806 55.9848 200.451 54.7948 202.306 54.7948C204.161 54.7948 205.806 55.9848 205.806 58.2598V87.6598ZM174.936 77.5798V64.7348C174.936 58.6798 179.136 55.3548 184.876 55.3548C190.616 55.3548 194.851 58.6448 194.851 64.7348V77.5798C194.851 83.7048 190.616 86.9948 184.911 86.9948C179.171 86.9948 174.936 83.7048 174.936 77.5798ZM181.761 64.4898V77.8248C181.761 80.1348 183.266 81.2548 184.876 81.2548C186.486 81.2548 188.061 80.1348 188.061 77.8248V64.4898C188.061 62.2498 186.486 61.0598 184.876 61.0948C183.266 61.1298 181.761 62.2848 181.761 64.4898Z" fill="#FB9504"/>
<path d="M212.106 70.4398C217.181 69.8798 221.311 67.7098 221.801 63.5448H213.296C211.196 63.5448 210.356 62.1098 210.356 60.6748C210.356 59.2748 211.161 57.8048 213.296 57.8048H221.661C221.731 55.6698 223.201 54.5148 225.406 54.5148C227.611 54.5148 229.046 55.7048 229.151 57.8048H237.516C239.651 57.8048 240.456 59.2748 240.456 60.6748C240.456 62.1098 239.616 63.5448 237.516 63.5448H228.906C228.871 64.2798 228.731 65.0148 228.556 65.6798C234.541 65.5398 240.351 68.3748 241.016 76.1798H234.121C233.456 72.3298 229.921 70.4398 225.651 70.8598C222.536 74.1148 217.776 75.8998 213.436 76.1798C211.511 76.3198 209.936 75.2698 209.726 73.6248C209.516 72.0848 210.391 70.6148 212.106 70.4398ZM212.036 81.0448H238.776C240.946 81.0448 241.786 82.5848 241.786 84.0198C241.786 85.4898 240.911 86.9598 238.776 86.9598H212.036C209.901 86.9598 209.026 85.4898 209.026 84.0198C209.026 82.5848 209.866 81.0448 212.036 81.0448Z" fill="#FB9504"/>
</g>
<defs>
<filter id="filter0_i_1137_1817" x="23.7617" y="4.33984" width="218.023" height="83.3203" filterUnits="userSpaceOnUse" color-interpolation-filters="sRGB">
<feFlood flood-opacity="0" result="BackgroundImageFix"/>
<feBlend mode="normal" in="SourceGraphic" in2="BackgroundImageFix" result="shape"/>
<feColorMatrix in="SourceAlpha" type="matrix" values="0 0 0 0 0 0 0 0 0 0 0 0 0 0 0 0 0 0 127 0" result="hardAlpha"/>
<feOffset dy="-2"/>
<feComposite in2="hardAlpha" operator="arithmetic" k2="-1" k3="1"/>
<feColorMatrix type="matrix" values="0 0 0 0 0 0 0 0 0 0 0 0 0 0 0 0 0 0 0.08 0"/>
<feBlend mode="normal" in2="shape" result="effect1_innerShadow_1137_1817"/>
</filter>
</defs>
</svg>
