<svg width="266" height="100" viewBox="0 0 266 100" fill="none" xmlns="http://www.w3.org/2000/svg">
<g filter="url(#filter0_i_1137_1825)">
<path d="M45.6719 4.79563C47.5269 4.79563 48.6469 5.98562 48.6469 7.73563V37.6606H42.6969V29.9606H40.0719C39.6169 34.5106 37.0969 37.1706 32.5819 37.1706C27.5069 37.1706 24.9519 33.8806 24.9519 28.3506V14.3506C24.9519 8.85563 27.4719 5.53062 32.5469 5.53062C36.9569 5.53062 39.4069 7.98063 40.0019 12.2506H42.6969V7.73563C42.6969 5.98562 43.8169 4.79563 45.6719 4.79563ZM53.4769 4.79563C55.3319 4.79563 56.5219 5.98562 56.5219 7.80563V37.6606H50.3969V7.80563C50.3969 5.98562 51.6219 4.79563 53.4769 4.79563ZM34.1569 29.2956V13.3706C34.1569 11.7606 33.4919 10.9206 32.5469 10.9556C31.5669 10.9906 30.9369 11.7606 30.9369 13.3706V29.2956C30.9369 30.9056 31.5669 31.7456 32.5469 31.7456C33.4919 31.7456 34.1569 30.9056 34.1569 29.2956ZM40.1419 18.0606V24.1506H42.6969V18.0606H40.1419Z" fill="#FB9504"/>
<path d="M63.2769 16.7306C61.0719 16.6606 60.1269 15.4706 60.0919 13.9656C60.0919 12.3906 61.2819 11.2356 63.2419 11.3756C67.9669 11.5856 71.1169 9.73062 71.9569 7.00063C72.4119 5.49562 73.6719 4.51562 75.5969 4.55062C77.5219 4.55062 78.9919 5.63563 78.9569 7.98063V8.12063C85.0819 7.66563 89.9119 10.7456 91.0669 16.6256H84.0319C82.9819 14.1056 80.2169 12.5306 76.3319 12.9156C73.3569 15.4356 68.3169 16.9406 63.2769 16.7306ZM68.4569 33.7056H89.5619C90.9969 33.7056 91.5219 34.6856 91.5219 35.7006C91.5219 36.7156 91.0319 37.6606 89.5619 37.6606H64.6069C61.5969 37.6606 60.1969 35.6656 60.1969 33.3206V33.0406C60.1969 30.6606 61.5619 28.9456 64.6069 28.9456H83.3319V28.2456C83.3319 27.9306 83.1569 27.7206 82.7019 27.7206H62.5419C61.2469 27.7206 60.5469 26.7756 60.5469 25.7606C60.5469 24.7456 61.1419 23.8006 62.5419 23.8006H72.0269V22.2606H61.7719C60.0919 22.2606 59.2169 21.4906 59.2169 20.0206C59.2169 18.5856 60.0569 17.7456 61.7719 17.7456H89.4219C91.1369 17.7456 91.9769 18.5856 91.9769 20.0206C91.9769 21.4906 91.1019 22.2606 89.4219 22.2606H79.1669V23.8006H86.6219C89.5969 23.8006 90.5419 24.9206 90.5419 27.0556V32.4806H68.4569C67.9669 32.4806 67.7219 32.7256 67.7219 33.1106C67.7219 33.4606 67.9669 33.7056 68.4569 33.7056Z" fill="#FB9504"/>
<path d="M125.997 37.6606H118.997V8.26062C118.997 5.98563 120.642 4.79563 122.497 4.79563C124.352 4.79563 125.997 5.98563 125.997 8.26062V37.6606ZM95.1269 27.5806V14.7356C95.1269 8.68063 99.3269 5.35562 105.067 5.35562C110.807 5.35562 115.042 8.64563 115.042 14.7356V27.5806C115.042 33.7056 110.807 36.9956 105.102 36.9956C99.3619 36.9956 95.1269 33.7056 95.1269 27.5806ZM101.952 14.4906V27.8256C101.952 30.1356 103.457 31.2556 105.067 31.2556C106.677 31.2556 108.252 30.1356 108.252 27.8256V14.4906C108.252 12.2506 106.677 11.0606 105.067 11.0956C103.457 11.1306 101.952 12.2856 101.952 14.4906Z" fill="#FB9504"/>
<path d="M142.211 14.1756H141.756C140.076 14.1756 139.026 12.8456 139.026 11.3756C139.026 9.90563 140.006 8.68063 141.721 8.68063H151.556V8.12063C151.556 5.81062 153.061 4.51562 155.406 4.51562C157.751 4.51562 159.256 5.84562 159.256 8.12063V8.68063H169.056C170.771 8.68063 171.751 9.90563 171.751 11.3756C171.751 12.8456 170.736 14.1756 169.056 14.1756H168.566C169.196 15.2606 169.546 16.4506 169.546 17.6756C169.546 22.2606 166.361 26.3906 160.726 26.3906H150.051C144.416 26.3906 141.231 22.2606 141.231 17.6756C141.231 16.4506 141.581 15.2606 142.211 14.1756ZM151.766 21.0706H159.011C161.356 21.0706 162.546 19.4956 162.546 17.5356C162.546 15.5406 161.286 14.0006 158.941 14.0006H151.836C149.491 14.0006 148.231 15.5406 148.231 17.5356C148.231 19.4956 149.421 21.0706 151.766 21.0706ZM142.036 31.0456H168.776C170.946 31.0456 171.786 32.5856 171.786 34.0206C171.786 35.4906 170.911 36.9606 168.776 36.9606H142.036C139.901 36.9606 139.026 35.4906 139.026 34.0206C139.026 32.5856 139.866 31.0456 142.036 31.0456Z" fill="#FB9504"/>
<path d="M203.006 26.5306H182.251C177.701 26.5306 175.286 24.1156 175.286 20.3356V19.6706C175.286 15.8906 177.701 13.5806 182.251 13.5806H197.511V12.4256C197.511 11.9706 197.371 11.4456 196.566 11.4456H178.366C176.686 11.4456 175.671 10.0806 175.671 8.64563C175.671 7.24563 176.686 5.84562 178.366 5.84562H198.596C203.426 5.84562 204.791 8.05063 204.791 11.3756V18.9006H184.036C183.231 18.9006 182.846 19.2856 182.846 19.9856C182.846 20.7206 183.231 21.0356 184.036 21.0356H203.006C204.966 21.0356 205.701 22.5056 205.701 23.8006C205.701 25.1306 204.931 26.5306 203.006 26.5306ZM177.036 31.0456H203.776C205.946 31.0456 206.786 32.5856 206.786 34.0206C206.786 35.4906 205.911 36.9606 203.776 36.9606H177.036C174.901 36.9606 174.026 35.4906 174.026 34.0206C174.026 32.5856 174.866 31.0456 177.036 31.0456Z" fill="#FB9504"/>
<path d="M218.791 11.9006H237.621C239.651 11.9006 240.421 13.2306 240.421 14.6306C240.421 16.0656 239.616 17.4656 237.621 17.4656H215.466C211.826 17.4656 210.636 15.9956 210.636 13.0206V8.57562C210.636 6.23063 212.351 5.18062 214.241 5.18062C216.166 5.18062 217.776 6.26563 217.776 8.57562V11.1656C217.776 11.7256 217.986 11.9006 218.791 11.9006ZM211.966 19.4956H238.846C240.946 19.4956 241.786 20.9306 241.786 22.3656C241.786 23.8356 240.911 25.2356 238.846 25.2356H211.966C209.901 25.2356 209.026 23.8356 209.026 22.3656C209.026 20.9306 209.866 19.4956 211.966 19.4956ZM237.761 37.6606H215.781C211.826 37.6606 210.776 36.3656 210.776 32.5856V29.8906C210.776 27.5106 212.456 26.6356 214.416 26.6356C216.376 26.6356 217.951 27.5456 217.951 29.8906V31.3606C217.951 32.1306 218.126 32.2356 218.896 32.2356H237.761C239.896 32.2356 240.701 33.5306 240.701 34.9306C240.701 36.3656 239.861 37.6606 237.761 37.6606Z" fill="#FB9504"/>
<path d="M37.6219 60.7456H38.7069C40.8419 60.7456 41.4719 62.3906 41.4719 63.7906C41.4719 65.2256 40.8069 66.8356 38.7069 66.8356H37.6219V72.9606H30.6219V58.2606C30.6219 55.9856 32.2669 54.7956 34.1219 54.7956C35.9769 54.7956 37.6219 55.9856 37.6219 58.2606V60.7456ZM26.8419 60.2556V62.3206C26.8419 69.8106 19.7719 73.7306 10.3919 73.0656C8.7819 72.9606 7.4869 71.8406 7.5919 69.9856C7.6969 68.3406 8.9219 67.4656 10.6019 67.5356C16.7969 67.7806 19.9469 65.7156 19.9469 62.4606V61.9356C19.9469 61.4456 19.7019 61.2356 19.2469 61.2356H11.0569C9.0269 61.2356 8.1869 59.8706 8.1869 58.5056C8.1869 57.1406 8.9919 55.7406 11.0569 55.7406H21.9419C25.5469 55.7406 26.8419 57.2456 26.8419 60.2556ZM14.0669 74.1856H32.9319C37.0619 74.1856 37.8319 75.4456 37.8319 79.3306V87.6606H14.0669C9.8319 87.6606 9.0619 86.4006 9.0619 82.4106V79.4356C9.0619 75.4456 9.8319 74.1856 14.0669 74.1856ZM16.7619 82.7956H30.9369V79.8556C30.9369 79.1556 30.7619 78.9806 30.1319 78.9806H16.7619C16.1319 78.9806 15.9569 79.1556 15.9569 79.8556V81.9206C15.9569 82.6906 16.1319 82.7956 16.7619 82.7956Z" fill="#FB9504"/>
<path d="M66.4969 64.5606H63.9769C62.1219 64.5606 60.9319 63.4406 60.9319 61.6906C60.9319 59.9756 62.0869 58.7506 63.9769 58.7506H66.4969V58.2606C66.4969 55.9856 68.1419 54.7956 69.9969 54.7956C71.8519 54.7956 73.4969 55.9856 73.4969 58.2606V72.9606H66.4969V64.5606ZM53.6519 67.1856C51.3769 70.9306 47.7019 72.9606 44.7969 72.9606C42.9069 72.9606 41.6469 71.9456 41.6469 69.9856C41.6469 68.6556 42.4169 67.6756 43.8169 67.2206C46.8969 65.9956 48.5769 63.8956 48.7169 59.3806L48.7519 58.1206C48.8569 56.1956 50.3969 55.1106 52.3219 55.1456C54.2119 55.1806 55.6819 56.3706 55.6819 58.2956V59.4856C55.6819 60.3606 55.6119 61.1656 55.5069 61.9356C60.5469 62.4956 63.5569 65.8556 63.2769 72.5056H56.5569C56.7669 69.3906 55.7169 67.6406 53.6519 67.1856ZM51.5519 74.0456H66.1819C71.2569 74.0456 73.8819 76.8806 73.8819 80.9056C73.8819 84.9306 71.2569 87.7656 66.1819 87.7656H51.5519C46.4069 87.7656 43.8519 84.8606 43.8519 80.9056C43.8519 76.9506 46.4069 74.0456 51.5519 74.0456ZM53.0569 82.7606H64.6769C66.1819 82.7606 66.7769 81.8856 66.7769 80.9056C66.7769 79.9256 66.1819 79.0156 64.6769 79.0156H53.0569C51.5519 79.0156 50.9569 79.9256 50.9569 80.9056C50.9569 81.8856 51.5519 82.7606 53.0569 82.7606Z" fill="#FB9504"/>
<path d="M107.447 67.0456H108.707C110.842 67.0456 111.472 68.6906 111.472 70.0906C111.472 71.5256 110.807 73.1356 108.707 73.1356H107.447V87.6606H100.447V58.2606C100.447 55.9856 102.092 54.7956 103.947 54.7956C105.802 54.7956 107.447 55.9856 107.447 58.2606V67.0456ZM87.3219 55.3556C92.9919 55.3556 97.0169 58.6456 97.0169 64.7006V77.6506C97.0169 83.7056 92.9919 86.9956 87.3569 86.9956C81.6869 86.9956 77.6269 83.7056 77.6269 77.6506V64.7006C77.6269 58.6806 81.6519 55.3556 87.3219 55.3556ZM90.2969 77.9656V64.3506C90.2969 62.1806 88.8619 61.0256 87.3219 61.0606C85.7469 61.0956 84.3469 62.2156 84.3469 64.3506V77.9656C84.3469 80.2056 85.7469 81.2906 87.3219 81.2906C88.8619 81.2906 90.2969 80.2056 90.2969 77.9656Z" fill="#FB9504"/>
<path d="M118.857 55.8456H140.067C142.027 55.8456 142.762 57.2806 142.762 58.5756C142.762 59.9056 141.992 61.2706 140.067 61.2706H121.447C120.747 61.2706 120.397 61.5506 120.397 62.1806V63.5456H139.857C141.817 63.5456 142.552 64.9106 142.552 66.1706C142.552 67.4656 141.782 68.7956 139.857 68.7956H120.397V70.1256C120.397 70.8256 120.747 71.0706 121.447 71.0706H140.627C142.587 71.0706 143.322 72.4706 143.322 73.7656C143.322 75.0956 142.552 76.4606 140.627 76.4606H118.857C114.797 76.4606 113.292 74.7806 113.292 71.0006V61.3056C113.292 57.5256 114.797 55.8456 118.857 55.8456ZM114.727 81.0456H141.467C143.637 81.0456 144.477 82.5856 144.477 84.0206C144.477 85.4906 143.602 86.9606 141.467 86.9606H114.727C112.592 86.9606 111.717 85.4906 111.717 84.0206C111.717 82.5856 112.557 81.0456 114.727 81.0456Z" fill="#FB9504"/>
<path d="M160.411 75.3756C158.696 75.3756 157.261 74.3956 157.086 72.6806C156.911 71.0006 157.821 69.6356 159.606 69.2506C164.226 68.2356 168.461 64.3156 169.196 58.4356C169.476 56.2306 171.016 55.2856 172.906 55.2856C175.006 55.2856 176.511 56.6856 176.441 58.9956C176.406 60.0806 176.231 61.1656 175.986 62.2156C181.866 62.3556 187.921 66.4506 188.586 75.3756H181.481C180.851 70.6506 177.421 67.7806 173.256 67.8856C170.071 72.2956 165.031 75.3756 160.411 75.3756ZM159.536 81.0456H186.276C188.446 81.0456 189.286 82.5856 189.286 84.0206C189.286 85.4906 188.411 86.9606 186.276 86.9606H159.536C157.401 86.9606 156.526 85.4906 156.526 84.0206C156.526 82.5856 157.366 81.0456 159.536 81.0456Z" fill="#FB9504"/>
<path d="M212.981 54.7956C214.836 54.7956 215.956 55.9856 215.956 57.7356V87.6606H210.006V73.8356H209.726C207.766 73.8356 206.541 72.6106 206.541 70.7906C206.541 69.0056 207.731 67.6756 209.726 67.6756H210.006V57.7356C210.006 55.9856 211.126 54.7956 212.981 54.7956ZM220.786 54.7956C222.641 54.7956 223.831 55.9856 223.831 57.8056V87.6606H217.706V57.8056C217.706 55.9856 218.931 54.7956 220.786 54.7956ZM199.856 80.4156H206.366C208.396 80.4156 208.991 82.0256 208.991 83.3556C208.991 84.7206 208.361 86.2606 206.366 86.2606H197.021C193.101 86.2606 192.261 85.1756 192.261 81.4306V60.8156C192.261 57.0706 193.101 56.0206 197.021 56.0206H205.106C207.136 56.0206 207.731 57.6306 207.731 58.9606C207.731 60.3256 207.101 61.9356 205.106 61.9356H199.856C199.226 61.9356 198.946 62.1456 198.946 62.9506V68.0606H203.041C205.071 68.0606 205.841 69.4956 205.841 70.9656C205.841 72.4006 205.036 73.8356 203.041 73.8356H198.946V79.4006C198.946 80.2056 199.226 80.4156 199.856 80.4156Z" fill="#FB9504"/>
<path d="M258.306 87.6606H251.306V58.2606C251.306 55.9856 252.951 54.7956 254.806 54.7956C256.661 54.7956 258.306 55.9856 258.306 58.2606V87.6606ZM227.436 77.5806V64.7356C227.436 58.6806 231.636 55.3556 237.376 55.3556C243.116 55.3556 247.351 58.6456 247.351 64.7356V77.5806C247.351 83.7056 243.116 86.9956 237.411 86.9956C231.671 86.9956 227.436 83.7056 227.436 77.5806ZM234.261 64.4906V77.8256C234.261 80.1356 235.766 81.2556 237.376 81.2556C238.986 81.2556 240.561 80.1356 240.561 77.8256V64.4906C240.561 62.2506 238.986 61.0606 237.376 61.0956C235.766 61.1306 234.261 62.2856 234.261 64.4906Z" fill="#FB9504"/>
</g>
<defs>
<filter id="filter0_i_1137_1825" x="7.58594" y="4.51562" width="250.719" height="83.25" filterUnits="userSpaceOnUse" color-interpolation-filters="sRGB">
<feFlood flood-opacity="0" result="BackgroundImageFix"/>
<feBlend mode="normal" in="SourceGraphic" in2="BackgroundImageFix" result="shape"/>
<feColorMatrix in="SourceAlpha" type="matrix" values="0 0 0 0 0 0 0 0 0 0 0 0 0 0 0 0 0 0 127 0" result="hardAlpha"/>
<feOffset dy="-2"/>
<feComposite in2="hardAlpha" operator="arithmetic" k2="-1" k3="1"/>
<feColorMatrix type="matrix" values="0 0 0 0 0 0 0 0 0 0 0 0 0 0 0 0 0 0 0.08 0"/>
<feBlend mode="normal" in2="shape" result="effect1_innerShadow_1137_1825"/>
</filter>
</defs>
</svg>
