<svg width="266" height="100" viewBox="0 0 266 100" fill="none" xmlns="http://www.w3.org/2000/svg">
<g filter="url(#filter0_i_1137_1815)">
<path d="M21.2673 36.8899H5.86734C3.24234 36.8899 1.52734 35.3849 1.52734 32.7599V32.3749C1.52734 27.6849 2.92734 25.8999 5.86734 23.2049L11.7123 17.8149C13.1123 16.5549 13.8473 15.6099 13.8473 14.2799C13.8473 12.7399 12.5173 12.0049 11.2573 12.0049C9.54234 12.0049 8.70234 12.7399 8.00234 13.5099C7.51234 14.0699 6.84734 14.7349 6.18234 14.9099C5.23734 15.1899 3.94234 15.0849 2.92734 14.2449C1.66734 13.2299 1.66734 11.3399 2.47234 10.0099C4.25734 7.10492 7.47734 5.63492 11.8173 5.63492C16.7523 5.63492 20.9873 8.36492 20.9873 13.5799C20.9873 17.4999 18.8173 19.7399 15.9123 22.5749L11.4323 26.9149C9.92734 28.3849 8.91234 28.7699 8.91234 30.0649V30.3099C8.91234 30.6599 9.05234 30.8349 9.43734 30.8349H21.2673V36.8899Z" fill="#FB9504"/>
<path d="M31.3832 26.3199H35.5482V15.2599C35.5482 13.0899 37.1932 12.1099 38.8032 12.1099C40.4132 12.1099 42.0232 13.0899 42.0232 15.2599V26.3199H45.1732V32.0599H42.0232V36.8899H35.5482V32.0599H28.0232C23.7882 32.0599 22.1432 29.6449 23.1232 26.0749L27.9182 8.50492C28.5132 6.36992 29.9482 5.42492 31.7332 5.63492C33.5882 5.84492 35.0932 7.38492 34.6032 9.51992L30.3682 25.3399C30.1582 26.1099 30.4382 26.3199 31.3832 26.3199Z" fill="#FB9504"/>
<path d="M75.4648 4.79492C77.3198 4.79492 78.9648 5.98492 78.9648 8.25992V37.6599H71.9648V8.25992C71.9648 5.98492 73.6098 4.79492 75.4648 4.79492ZM60.9398 17.6049C67.0648 20.0549 69.9348 25.4099 69.3048 35.6649H62.5148C63.2148 30.1349 62.3398 26.1799 59.7148 24.0799C58.1748 29.2949 55.4798 32.9349 51.7698 35.1749C49.9498 36.2949 47.7448 36.0849 46.7998 34.8599C45.8548 33.7399 45.7498 31.7099 47.3248 30.6249C52.6798 26.9849 54.2548 21.7349 54.2548 11.9699V9.23992C54.2548 6.99992 55.9348 5.84492 57.7548 5.84492C59.5398 5.84492 61.2198 7.10492 61.2198 9.23992V11.9349C61.2198 13.9649 61.1148 15.8549 60.9398 17.6049Z" fill="#FB9504"/>
<path d="M113.09 13.5449H114.175C116.31 13.5449 116.94 15.1899 116.94 16.5899C116.94 18.0249 116.275 19.6349 114.175 19.6349H113.09V29.6099H106.09V8.25992C106.09 5.98492 107.735 4.79492 109.59 4.79492C111.445 4.79492 113.09 5.98492 113.09 8.25992V13.5449ZM102.31 10.6049V12.7049C102.31 20.6849 95.2398 25.0599 85.8598 24.4649C84.2498 24.3599 82.9548 23.1349 83.0598 21.2799C83.1648 19.6349 84.3898 18.7599 86.0698 18.7949C91.9498 18.9349 95.3798 16.6949 95.3798 12.9149V12.2499C95.3798 11.7249 95.0998 11.5149 94.5748 11.5149H86.5248C84.4948 11.5149 83.6548 10.0799 83.6548 8.71492C83.6548 7.34992 84.4598 5.91492 86.5248 5.91492H97.2348C101.015 5.91492 102.31 7.48992 102.31 10.6049ZM92.8248 32.2699H111.305C113.405 32.2699 114.21 33.5299 114.21 34.9299C114.21 36.3649 113.37 37.6599 111.305 37.6599H89.8848C85.9648 37.6599 84.9148 36.2949 84.9148 32.5499V29.1899C84.9148 26.9499 86.5598 25.8649 88.5198 25.8649C90.4798 25.8649 92.0198 26.9849 92.0198 29.1899V31.4999C92.0198 32.1649 92.1948 32.2699 92.8248 32.2699Z" fill="#FB9504"/>
<path d="M157.199 22.4349H129.549C127.869 22.4349 126.994 21.6649 126.994 20.1949C126.994 18.7599 127.834 17.9199 129.549 17.9199H139.804V16.1699H132.734C129.794 16.1699 128.359 15.2949 128.359 12.4949V9.02992C128.359 6.26492 129.794 5.38992 132.734 5.38992H155.799C157.479 5.38992 158.319 6.22992 158.319 7.73492C158.319 9.20492 157.444 10.0449 155.799 10.0449H136.024C135.604 10.0449 135.359 10.2199 135.359 10.5699V11.0949C135.359 11.4449 135.604 11.6549 136.024 11.6549H155.869C157.514 11.6549 158.459 12.4249 158.459 13.8949C158.459 15.3649 157.479 16.1699 155.869 16.1699H146.944V17.9199H157.199C158.914 17.9199 159.754 18.7599 159.754 20.1949C159.754 21.6649 158.879 22.4349 157.199 22.4349ZM136.234 33.7049H157.339C158.774 33.7049 159.299 34.6849 159.299 35.6999C159.299 36.7149 158.809 37.6599 157.339 37.6599H132.384C129.374 37.6599 127.974 35.6649 127.974 33.3199V33.0399C127.974 30.6599 129.339 28.9449 132.384 28.9449H151.109V28.2449C151.109 27.9299 150.934 27.7199 150.479 27.7199H130.319C129.024 27.7199 128.324 26.7749 128.324 25.7599C128.324 24.7449 128.919 23.7999 130.319 23.7999H154.399C157.374 23.7999 158.319 24.9199 158.319 27.0549V32.4799H136.234C135.744 32.4799 135.499 32.7249 135.499 33.1099C135.499 33.4599 135.744 33.7049 136.234 33.7049Z" fill="#FB9504"/>
<path d="M192.724 17.0449H193.984C196.119 17.0449 196.749 18.6899 196.749 20.0899C196.749 21.5249 196.084 23.1349 193.984 23.1349H192.724V37.6599H185.724V8.25992C185.724 5.98492 187.369 4.79492 189.224 4.79492C191.079 4.79492 192.724 5.98492 192.724 8.25992V17.0449ZM172.599 5.35492C178.269 5.35492 182.294 8.64492 182.294 14.6999V27.6499C182.294 33.7049 178.269 36.9949 172.634 36.9949C166.964 36.9949 162.904 33.7049 162.904 27.6499V14.6999C162.904 8.67992 166.929 5.35492 172.599 5.35492ZM175.574 27.9649V14.3499C175.574 12.1799 174.139 11.0249 172.599 11.0599C171.024 11.0949 169.624 12.2149 169.624 14.3499V27.9649C169.624 30.2049 171.024 31.2899 172.599 31.2899C174.139 31.2899 175.574 30.2049 175.574 27.9649Z" fill="#FB9504"/>
<path d="M227.724 17.0449H228.984C231.119 17.0449 231.749 18.6899 231.749 20.0899C231.749 21.5249 231.084 23.1349 228.984 23.1349H227.724V37.6599H220.724V8.25992C220.724 5.98492 222.369 4.79492 224.224 4.79492C226.079 4.79492 227.724 5.98492 227.724 8.25992V17.0449ZM201.019 6.05492H211.379C215.229 6.05492 216.699 7.83992 216.699 11.0249V19.2499C216.699 31.1849 209.454 35.8399 200.984 36.1899C199.094 36.2949 197.379 35.2449 197.484 33.1799C197.554 31.7099 198.429 30.5899 200.179 30.3799C205.709 29.7499 209.804 27.4049 209.804 19.2149V12.9499C209.804 12.4599 209.489 12.0749 208.929 12.0749H201.019C198.919 12.0749 197.904 10.5699 197.904 9.09992C197.904 7.66492 198.884 6.05492 201.019 6.05492Z" fill="#FB9504"/>
<path d="M241.759 11.8999H260.589C262.619 11.8999 263.389 13.2299 263.389 14.6299C263.389 16.0649 262.584 17.4649 260.589 17.4649H238.434C234.794 17.4649 233.604 15.9949 233.604 13.0199V8.57492C233.604 6.22992 235.319 5.17992 237.209 5.17992C239.134 5.17992 240.744 6.26492 240.744 8.57492V11.1649C240.744 11.7249 240.954 11.8999 241.759 11.8999ZM234.934 19.4949H261.814C263.914 19.4949 264.754 20.9299 264.754 22.3649C264.754 23.8349 263.879 25.2349 261.814 25.2349H234.934C232.869 25.2349 231.994 23.8349 231.994 22.3649C231.994 20.9299 232.834 19.4949 234.934 19.4949ZM260.729 37.6599H238.749C234.794 37.6599 233.744 36.3649 233.744 32.5849V29.8899C233.744 27.5099 235.424 26.6349 237.384 26.6349C239.344 26.6349 240.919 27.5449 240.919 29.8899V31.3599C240.919 32.1299 241.094 32.2349 241.864 32.2349H260.729C262.864 32.2349 263.669 33.5299 263.669 34.9299C263.669 36.3649 262.829 37.6599 260.729 37.6599Z" fill="#FB9504"/>
<path d="M53.3361 59.7999H27.8561C26.2811 59.7999 25.4411 58.9599 25.4411 57.5249C25.4411 56.1249 26.2461 55.2499 27.8561 55.2499H53.3361C54.9461 55.2499 55.7511 56.1249 55.7511 57.5249C55.7511 58.9599 54.9111 59.7999 53.3361 59.7999ZM53.7561 67.8849H27.4361C25.8611 67.8849 25.0211 67.1849 25.0211 65.7499C25.0211 64.3499 25.8261 63.5799 27.4361 63.5799H30.3411V63.3699C30.3411 61.4099 31.8111 60.4649 33.9461 60.4649C36.0461 60.4649 37.4811 61.4449 37.4811 63.3699V63.5799H43.7111V63.3699C43.7111 61.4099 45.1811 60.4649 47.3161 60.4649C49.4161 60.4649 50.8511 61.4449 50.8511 63.3699V63.5799H53.7561C55.3661 63.5799 56.1711 64.3499 56.1711 65.7499C56.1711 67.1849 55.3311 67.8849 53.7561 67.8849ZM33.2461 83.8449H54.5611C55.9961 83.8449 56.5211 84.7549 56.5211 85.7699C56.5211 86.7849 56.0311 87.6599 54.5611 87.6599H29.6061C26.5961 87.6599 25.1961 85.8399 25.1961 83.5649V83.4599C25.1961 81.1849 26.5611 79.5399 29.6061 79.5399H48.3311V78.9099C48.3311 78.5949 48.1911 78.4549 47.8061 78.4549H27.5411C26.2461 78.4549 25.5461 77.5799 25.5461 76.5649C25.5461 75.5499 26.1411 74.6749 27.5411 74.6749H37.0261V73.4849H26.7011C25.0911 73.4849 24.2161 72.7849 24.2161 71.3149C24.2161 69.8799 25.0561 69.1449 26.7011 69.1449H54.4911C56.1361 69.1449 56.9761 69.8799 56.9761 71.3149C56.9761 72.7849 56.1011 73.4849 54.4911 73.4849H44.1661V74.6749H51.6211C54.5961 74.6749 55.5411 75.7949 55.5411 77.9299V82.7599H33.2461C32.8961 82.7599 32.7211 83.0399 32.7211 83.3199C32.7211 83.5649 32.8961 83.8449 33.2461 83.8449Z" fill="#FB9504"/>
<path d="M90.9961 58.2599V71.7349H83.9961V58.2599C83.9961 55.9849 85.6411 54.7949 87.4961 54.7949C89.3511 54.7949 90.9961 55.9849 90.9961 58.2599ZM78.7111 60.8849H62.5411C60.8261 60.8849 59.8461 59.6599 59.8461 58.2949C59.8461 56.9299 60.6861 55.6699 62.5411 55.6699H78.7111C80.5661 55.6699 81.4061 56.9299 81.4061 58.2949C81.4061 59.6599 80.4261 60.8849 78.7111 60.8849ZM79.9711 71.3849H62.1211C60.4061 71.3849 59.4611 70.3349 59.4611 68.9699C59.4611 67.6049 60.2661 66.6249 62.1211 66.6249H62.6811V64.5249C62.6811 62.9849 63.9411 61.9699 65.9711 61.9699C67.9661 61.9699 69.1911 63.0199 69.1911 64.5249V66.6249H72.2361V64.5249C72.2361 62.9849 73.4261 61.9699 75.4561 61.9699C77.4511 61.9699 78.7811 63.0199 78.7811 64.5249V66.6249H79.9711C81.8261 66.6249 82.6311 67.6049 82.6311 68.9699C82.6311 70.3349 81.6861 71.3849 79.9711 71.3849ZM69.5061 83.5299H89.9461C91.3461 83.5299 91.9411 84.6149 91.9411 85.6649C91.9411 86.6449 91.3811 87.6599 89.9461 87.6599H66.2511C63.0661 87.6599 61.3511 85.6299 61.3511 83.1799V82.3749C61.3511 80.0299 63.0661 78.4199 66.2511 78.4199H83.9261V77.6149C83.9261 77.1949 83.8211 77.0199 83.3661 77.0199H63.6611C62.2961 77.0199 61.7361 76.0399 61.7361 74.9899C61.7361 74.0099 62.3311 72.9599 63.6611 72.9599H86.9011C89.9461 72.9599 91.0311 73.8699 91.0311 76.5649V82.1299H69.5061C69.0161 82.1299 68.7711 82.4099 68.7711 82.7249V82.8999C68.7711 83.2149 69.0161 83.5299 69.5061 83.5299Z" fill="#FB9504"/>
<path d="M114.201 67.5349V73.5549H99.9211C96.4561 73.5549 95.2311 72.6799 95.2311 69.3549V60.2199C95.2311 56.9299 96.4561 55.9849 99.9211 55.9849H109.686C112.976 55.9849 114.201 56.9299 114.201 60.4299V62.0749H118.996V58.2599C118.996 55.9849 120.641 54.7949 122.496 54.7949C124.351 54.7949 125.996 55.9849 125.996 58.2599V79.6099H118.996V67.5349H114.201ZM101.741 61.7599V67.7099C101.741 68.1999 101.951 68.4799 102.546 68.4799H107.761V61.7599C107.761 61.3049 107.586 61.0249 107.061 61.0249H102.441C101.916 61.0249 101.741 61.3049 101.741 61.7599ZM104.891 82.2699H124.036C126.136 82.2699 126.941 83.5299 126.941 84.9299C126.941 86.3649 126.101 87.6599 124.036 87.6599H101.916C97.9961 87.6599 96.9461 86.2949 96.9461 82.5499V78.8749C96.9461 76.5999 98.5911 75.5149 100.551 75.5149C102.511 75.5149 104.051 76.6349 104.051 78.8749V81.4649C104.051 82.1299 104.226 82.2699 104.891 82.2699Z" fill="#FB9504"/>
<path d="M136.356 55.8449H157.566C159.526 55.8449 160.261 57.2799 160.261 58.5749C160.261 59.9049 159.491 61.2699 157.566 61.2699H138.946C138.246 61.2699 137.896 61.5499 137.896 62.1799V63.5449H157.356C159.316 63.5449 160.051 64.9099 160.051 66.1699C160.051 67.4649 159.281 68.7949 157.356 68.7949H137.896V70.1249C137.896 70.8249 138.246 71.0699 138.946 71.0699H158.126C160.086 71.0699 160.821 72.4699 160.821 73.7649C160.821 75.0949 160.051 76.4599 158.126 76.4599H136.356C132.296 76.4599 130.791 74.7799 130.791 70.9999V61.3049C130.791 57.5249 132.296 55.8449 136.356 55.8449ZM132.226 81.0449H158.966C161.136 81.0449 161.976 82.5849 161.976 84.0199C161.976 85.4899 161.101 86.9599 158.966 86.9599H132.226C130.091 86.9599 129.216 85.4899 129.216 84.0199C129.216 82.5849 130.056 81.0449 132.226 81.0449Z" fill="#FB9504"/>
<path d="M192.681 65.0849H191.561C189.706 65.0849 188.516 63.9649 188.516 62.2149C188.516 60.4999 189.671 59.2749 191.561 59.2749H192.681V57.7349C192.681 55.9849 193.801 54.7949 195.656 54.7949C197.511 54.7949 198.631 55.9849 198.631 57.7349V78.9099H192.681V65.0849ZM206.331 57.8049V78.9099H200.206V57.8049C200.206 55.9849 201.431 54.7949 203.286 54.7949C205.141 54.7949 206.331 55.9849 206.331 57.8049ZM184.246 68.8999C182.601 72.3999 179.906 74.3949 176.861 74.3949C175.076 74.3949 173.851 73.2749 173.851 71.5599C173.851 70.2999 174.446 69.4599 175.776 68.8649C178.121 67.7099 179.381 65.5399 179.451 60.3949L179.486 58.4349C179.521 56.3349 180.956 55.2849 182.846 55.3199C184.701 55.3549 185.996 56.5099 185.996 58.5049V60.1499C185.996 61.3049 185.926 62.3899 185.786 63.4399C190.266 64.7699 192.086 67.8499 191.561 73.9049H185.366C185.786 71.1749 185.331 69.5999 184.246 68.8999ZM184.596 82.2349H204.161C206.296 82.2349 207.101 83.5299 207.101 84.9299C207.101 86.3649 206.261 87.6599 204.161 87.6599H181.551C177.631 87.6599 176.581 86.2949 176.581 82.5499V78.5949C176.581 76.2499 178.226 75.1649 180.186 75.1649C182.146 75.1649 183.686 76.2849 183.686 78.5949V81.3949C183.686 82.1299 183.861 82.2349 184.596 82.2349Z" fill="#FB9504"/>
<path d="M237.306 54.7949C239.161 54.7949 240.806 55.9849 240.806 58.2599V87.6599H233.806V73.7649H231.531C229.606 73.7649 228.416 72.5749 228.416 70.7899C228.416 69.0399 229.571 67.7799 231.531 67.7799H233.806V58.2599C233.806 55.9849 235.451 54.7949 237.306 54.7949ZM217.916 80.4149H228.416C230.446 80.4149 231.041 82.0249 231.041 83.3549C231.041 84.7199 230.411 86.2599 228.416 86.2599H215.291C210.951 86.2599 210.111 85.1749 210.111 81.0099V61.2349C210.111 57.0699 210.951 56.0199 215.291 56.0199H226.456C228.486 56.0199 229.081 57.6299 229.081 58.9599C229.081 60.3249 228.451 61.9349 226.456 61.9349H217.916C217.286 61.9349 217.006 62.1449 217.006 62.9499V68.0599H224.391C226.421 68.0599 227.191 69.4949 227.191 70.9649C227.191 72.3999 226.386 73.8349 224.391 73.8349H217.006V79.3999C217.006 80.2049 217.286 80.4149 217.916 80.4149Z" fill="#FB9504"/>
</g>
<defs>
<filter id="filter0_i_1137_1815" x="1.52734" y="4.79492" width="263.227" height="82.8652" filterUnits="userSpaceOnUse" color-interpolation-filters="sRGB">
<feFlood flood-opacity="0" result="BackgroundImageFix"/>
<feBlend mode="normal" in="SourceGraphic" in2="BackgroundImageFix" result="shape"/>
<feColorMatrix in="SourceAlpha" type="matrix" values="0 0 0 0 0 0 0 0 0 0 0 0 0 0 0 0 0 0 127 0" result="hardAlpha"/>
<feOffset dy="-2"/>
<feComposite in2="hardAlpha" operator="arithmetic" k2="-1" k3="1"/>
<feColorMatrix type="matrix" values="0 0 0 0 0 0 0 0 0 0 0 0 0 0 0 0 0 0 0.08 0"/>
<feBlend mode="normal" in2="shape" result="effect1_innerShadow_1137_1815"/>
</filter>
</defs>
</svg>
