<svg width="266" height="100" viewBox="0 0 266 100" fill="none" xmlns="http://www.w3.org/2000/svg">
<g filter="url(#filter0_i_1137_1823)">
<path d="M84.2096 19.7759C87.6046 19.3559 89.6346 17.2559 89.6696 13.9309V13.7209H84.8046C83.1596 13.7209 82.2496 12.2509 82.2496 10.9909C82.2496 9.73094 83.0196 8.19094 84.8046 8.19094H89.5296V7.80594C89.5296 5.74094 90.7546 4.76094 92.9246 4.76094C95.0946 4.76094 96.3546 5.77594 96.3546 7.80594V8.19094H101.36C103.145 8.19094 103.915 9.73094 103.915 10.9909C103.915 12.2509 103.005 13.7209 101.36 13.7209H96.2496V13.9309C96.2496 14.6309 96.2146 15.2959 96.1096 15.9259C101.465 15.9959 104.16 18.8659 104.055 24.9909H97.5796C97.6846 21.9809 96.2496 20.5809 94.0796 20.7909C91.8746 23.6959 88.3746 25.2709 84.9796 25.2359C83.2996 25.2359 81.8996 24.0459 81.8996 22.3309C81.8996 20.9309 82.7746 19.9509 84.2096 19.7759ZM109.9 4.79594C111.755 4.79594 113.4 5.98594 113.4 8.26094V37.6609H106.4V8.26094C106.4 5.98594 108.045 4.79594 109.9 4.79594ZM96.4946 30.7659H102.235C104.335 30.7659 105.175 32.2359 105.175 33.6709C105.175 35.1409 104.3 36.5059 102.235 36.5059H84.5596C82.4946 36.5059 81.6196 35.1409 81.6196 33.6709C81.6196 32.2359 82.4596 30.7659 84.5596 30.7659H89.7046V27.3709C89.7046 25.1659 91.2446 24.4659 93.0996 24.4659C94.9196 24.4659 96.4946 25.2009 96.4946 27.3709V30.7659Z" fill="#FB9504"/>
<path d="M119.91 24.0109C118.125 24.0459 116.865 22.9959 116.865 21.4209C116.865 19.8809 117.775 18.9359 119.14 18.7959C122.255 18.4109 124.075 16.4509 124.075 13.4409V13.0909H119.595C117.95 13.0909 117.04 11.6559 117.04 10.3959C117.04 9.13594 117.81 7.63094 119.595 7.63094H123.935C123.935 5.56594 125.09 4.58594 127.26 4.58594C129.43 4.58594 130.655 5.60094 130.655 7.63094H135.1C136.885 7.63094 137.655 9.13594 137.655 10.3959C137.655 11.6559 136.745 13.0909 135.1 13.0909H130.585V13.5459C130.585 14.0359 130.55 14.5259 130.48 15.0159C135.52 15.1559 138.11 17.6759 137.97 23.5909H131.495C131.775 21.0359 130.515 19.6359 128.66 19.7409C126.63 22.4709 123.305 23.9759 119.91 24.0109ZM136.71 15.1909C136.71 13.5809 137.83 12.4259 139.615 12.4259H141.4V8.26094C141.4 5.98594 143.045 4.79594 144.9 4.79594C146.755 4.79594 148.4 5.98594 148.4 8.26094V24.0109H141.4V17.8859H139.615C137.865 17.8859 136.71 16.8359 136.71 15.1909ZM123.97 25.2359H143.71C147.665 25.2359 148.435 26.4959 148.435 30.1009V37.6609H123.97C119.735 37.6609 118.965 36.4009 118.965 32.4809V30.4159C118.965 26.4959 119.735 25.2359 123.97 25.2359ZM126.595 32.9359H141.54V30.6959C141.54 30.1009 141.365 29.9259 140.805 29.9259H126.595C126.035 29.9259 125.86 30.1009 125.86 30.6959V32.1309C125.86 32.7959 126.035 32.9359 126.595 32.9359Z" fill="#FB9504"/>
<path d="M182.525 13.5459H183.61C185.745 13.5459 186.375 15.1909 186.375 16.5909C186.375 18.0259 185.71 19.6359 183.61 19.6359H182.525V29.6109H175.525V8.26094C175.525 5.98594 177.17 4.79594 179.025 4.79594C180.88 4.79594 182.525 5.98594 182.525 8.26094V13.5459ZM170.73 23.4859H156.765C153.65 23.4859 152.705 22.3309 152.705 19.4959V9.97594C152.705 7.14094 153.65 6.02094 156.765 6.02094H169.225C171.255 6.02094 171.85 7.45594 171.85 8.75094C171.85 10.0459 171.22 11.4809 169.225 11.4809H160.125C159.635 11.4809 159.425 11.6909 159.425 12.2159V17.3609C159.425 17.8859 159.635 18.0959 160.125 18.0959H170.73C172.76 18.0959 173.285 19.5309 173.285 20.7909C173.285 22.1209 172.725 23.4859 170.73 23.4859ZM162.295 32.2709H180.74C182.84 32.2709 183.645 33.5309 183.645 34.9309C183.645 36.3659 182.805 37.6609 180.74 37.6609H159.32C155.4 37.6609 154.35 36.2959 154.35 32.5509V28.8759C154.35 26.6009 155.995 25.5159 157.955 25.5159C159.915 25.5159 161.455 26.6359 161.455 28.8759V31.4659C161.455 32.1309 161.63 32.2709 162.295 32.2709Z" fill="#FB9504"/>
<path d="M28.0998 75.3759C26.3848 75.3759 24.9498 74.3959 24.7748 72.6809C24.5998 71.0009 25.5098 69.6359 27.2948 69.2509C31.9148 68.2359 36.1498 64.3159 36.8848 58.4359C37.1648 56.2309 38.7048 55.2859 40.5948 55.2859C42.6948 55.2859 44.1998 56.6859 44.1298 58.9959C44.0948 60.0809 43.9198 61.1659 43.6748 62.2159C49.5548 62.3559 55.6098 66.4509 56.2748 75.3759H49.1698C48.5398 70.6509 45.1098 67.7809 40.9448 67.8859C37.7598 72.2959 32.7198 75.3759 28.0998 75.3759ZM27.2248 81.0459H53.9648C56.1348 81.0459 56.9748 82.5859 56.9748 84.0209C56.9748 85.4909 56.0998 86.9609 53.9648 86.9609H27.2248C25.0898 86.9609 24.2148 85.4909 24.2148 84.0209C24.2148 82.5859 25.0548 81.0459 27.2248 81.0459Z" fill="#FB9504"/>
<path d="M89.9448 67.0459H91.2048C93.3398 67.0459 93.9698 68.6909 93.9698 70.0909C93.9698 71.5259 93.3048 73.1359 91.2048 73.1359H89.9448V87.6609H82.9448V58.2609C82.9448 55.9859 84.5898 54.7959 86.4448 54.7959C88.2998 54.7959 89.9448 55.9859 89.9448 58.2609V67.0459ZM65.5498 55.9509H73.8798C78.3948 55.9509 79.2348 57.3159 79.2348 61.7259V86.3309H65.5498C61.0348 86.3309 60.1948 84.9659 60.1948 80.5559V61.7259C60.1948 57.3159 61.0348 55.9509 65.5498 55.9509ZM68.1048 80.8359H72.4798V62.6009C72.4798 61.9009 72.3048 61.4459 71.5348 61.4459H67.8598C67.0898 61.4459 66.9498 61.9009 66.9498 62.6009V79.6459C66.9498 80.4159 67.1948 80.8359 68.1048 80.8359Z" fill="#FB9504"/>
<path d="M101.355 55.8459H122.565C124.525 55.8459 125.26 57.2809 125.26 58.5759C125.26 59.9059 124.49 61.2709 122.565 61.2709H103.945C103.245 61.2709 102.895 61.5509 102.895 62.1809V63.5459H122.355C124.315 63.5459 125.05 64.9109 125.05 66.1709C125.05 67.4659 124.28 68.7959 122.355 68.7959H102.895V70.1259C102.895 70.8259 103.245 71.0709 103.945 71.0709H123.125C125.085 71.0709 125.82 72.4709 125.82 73.7659C125.82 75.0959 125.05 76.4609 123.125 76.4609H101.355C97.2948 76.4609 95.7898 74.7809 95.7898 71.0009V61.3059C95.7898 57.5259 97.2948 55.8459 101.355 55.8459ZM97.2248 81.0459H123.965C126.135 81.0459 126.975 82.5859 126.975 84.0209C126.975 85.4909 126.1 86.9609 123.965 86.9609H97.2248C95.0898 86.9609 94.2148 85.4909 94.2148 84.0209C94.2148 82.5859 95.0548 81.0459 97.2248 81.0459Z" fill="#FB9504"/>
<path d="M165.379 67.1859H163.629V74.1859H157.679V57.7359C157.679 55.9859 158.799 54.7959 160.654 54.7959C162.509 54.7959 163.629 55.9859 163.629 57.7359V61.7259H165.379V57.7359C165.379 55.9859 166.499 54.7959 168.354 54.7959C170.209 54.7959 171.329 55.9859 171.329 57.7359V74.1859H165.379V67.1859ZM153.829 60.8859H142.174C140.459 60.8859 139.479 59.6609 139.479 58.2959C139.479 56.9309 140.319 55.6709 142.174 55.6709H153.829C155.684 55.6709 156.524 56.9309 156.524 58.2959C156.524 59.6609 155.544 60.8859 153.829 60.8859ZM154.179 73.8359H141.754C140.039 73.8359 139.094 72.7859 139.094 71.4209C139.094 70.1609 139.794 69.1809 141.404 69.0409V64.3509C141.404 62.7059 142.209 61.6909 144.239 61.6909C146.234 61.6909 147.039 62.7409 147.039 64.3509V69.0409H148.964V64.3509C148.964 62.7059 149.699 61.6909 151.729 61.6909C153.724 61.6909 154.529 62.7409 154.529 64.3509V69.0409C156.139 69.1809 156.839 70.1609 156.839 71.4209C156.839 72.7859 155.894 73.8359 154.179 73.8359ZM143.959 75.6209H166.184C170.559 75.6209 171.364 76.8109 171.364 81.0109V87.6609H164.294V81.8859C164.294 81.3609 164.014 81.0459 163.454 81.0459H143.959C142.034 81.0459 140.949 79.9959 140.949 78.3509C140.949 76.7059 142.034 75.6209 143.959 75.6209Z" fill="#FB9504"/>
<path d="M193.974 81.2209H203.844C205.944 81.2209 206.784 82.6559 206.784 84.0909C206.784 85.5959 205.909 86.9609 203.844 86.9609H176.964C174.899 86.9609 174.024 85.5959 174.024 84.0909C174.024 82.6559 174.864 81.2209 176.964 81.2209H186.834V76.2859H181.129C177.104 76.2859 175.599 74.6059 175.599 70.8609V61.2709C175.599 57.5259 177.104 55.8459 181.129 55.8459H202.409C204.334 55.8459 205.069 57.2809 205.069 58.5409C205.069 59.8709 204.299 61.2359 202.409 61.2359H183.754C183.054 61.2359 182.704 61.5159 182.704 62.1459V63.4759H202.199C204.124 63.4759 204.859 64.8409 204.859 66.1009C204.859 67.3609 204.089 68.6909 202.199 68.6909H182.704V69.9859C182.704 70.6859 183.054 70.9309 183.754 70.9309H202.934C204.894 70.9309 205.629 72.3309 205.629 73.6259C205.629 74.9209 204.859 76.2859 202.934 76.2859H193.974V81.2209Z" fill="#FB9504"/>
<path d="M240.804 87.6609H233.804V58.2609C233.804 55.9859 235.449 54.7959 237.304 54.7959C239.159 54.7959 240.804 55.9859 240.804 58.2609V87.6609ZM228.939 86.1909H215.849C211.614 86.1909 209.969 84.6509 209.969 80.4159V73.6959C209.969 69.4609 211.614 67.9909 215.849 67.9909H222.324V62.8809C222.324 62.4259 222.184 61.9359 221.449 61.9359H213.259C211.159 61.9359 210.284 60.4659 210.284 59.0309C210.284 57.6309 211.124 56.0909 213.259 56.0909H223.374C228.064 56.0909 229.324 57.4209 229.324 61.2709V73.6959H218.544C217.354 73.6959 216.969 73.9759 216.969 75.1659V78.9809C216.969 80.1709 217.354 80.4509 218.544 80.4509H228.939C231.074 80.4509 231.914 81.9209 231.914 83.3209C231.914 84.7559 231.039 86.1909 228.939 86.1909Z" fill="#FB9504"/>
</g>
<defs>
<filter id="filter0_i_1137_1823" x="24.2148" y="4.58594" width="216.59" height="83.0742" filterUnits="userSpaceOnUse" color-interpolation-filters="sRGB">
<feFlood flood-opacity="0" result="BackgroundImageFix"/>
<feBlend mode="normal" in="SourceGraphic" in2="BackgroundImageFix" result="shape"/>
<feColorMatrix in="SourceAlpha" type="matrix" values="0 0 0 0 0 0 0 0 0 0 0 0 0 0 0 0 0 0 127 0" result="hardAlpha"/>
<feOffset dy="-2"/>
<feComposite in2="hardAlpha" operator="arithmetic" k2="-1" k3="1"/>
<feColorMatrix type="matrix" values="0 0 0 0 0 0 0 0 0 0 0 0 0 0 0 0 0 0 0.08 0"/>
<feBlend mode="normal" in2="shape" result="effect1_innerShadow_1137_1823"/>
</filter>
</defs>
</svg>
