<svg width="21" height="20" viewBox="0 -1 21 20" fill="none" xmlns="http://www.w3.org/2000/svg">
<rect width="21" height="20" fill="none"/>
<rect width="375" height="814" transform="translate(-143 -740)" fill="none"/>
<rect width="375" height="366" transform="translate(-143 -292)" fill="#none"/>
<rect x="-8.04688" y="-9" width="105" height="36" rx="10" fill="none" fill-opacity="0.3"/>
<path d="M15.9531 12.7333C15.3198 12.7333 14.7531 12.9833 14.3198 13.375L8.37812 9.91667C8.41979 9.725 8.45312 9.53333 8.45312 9.33333C8.45312 9.13333 8.41979 8.94167 8.37812 8.75L14.2531 5.325C14.7031 5.74167 15.2948 6 15.9531 6C17.3365 6 18.4531 4.88333 18.4531 3.5C18.4531 2.11667 17.3365 1 15.9531 1C14.5698 1 13.4531 2.11667 13.4531 3.5C13.4531 3.7 13.4865 3.89167 13.5281 4.08333L7.65312 7.50833C7.20312 7.09167 6.61146 6.83333 5.95312 6.83333C4.56979 6.83333 3.45312 7.95 3.45312 9.33333C3.45312 10.7167 4.56979 11.8333 5.95312 11.8333C6.61146 11.8333 7.20312 11.575 7.65312 11.1583L13.5865 14.625C13.5448 14.8 13.5198 14.9833 13.5198 15.1667C13.5198 16.5083 14.6115 17.6 15.9531 17.6C17.2948 17.6 18.3865 16.5083 18.3865 15.1667C18.3865 13.825 17.2948 12.7333 15.9531 12.7333Z" fill="#989898" />
</svg>
